G04 DipTrace 4.0.0.0*
G04 uTest_PCBpanel.GTL*
%MOIN*%
G04 #@! TF.FileFunction,Copper,L1,Top*
G04 #@! TF.Part,Single*
G04 #@! TA.AperFunction,CopperBalancing*
%ADD15C,0.01*%
%ADD16C,0.007*%
G04 #@! TA.AperFunction,Nonconductor*
%ADD17C,0.5*%
G04 #@! TA.AperFunction,ComponentPad*
%ADD18O,0.299213X0.177165*%
%ADD19C,0.32*%
%FSLAX26Y26*%
G04*
G70*
G90*
G75*
G01*
G04 Top*
%LPD*%
X425443Y5422909D2*
D15*
X582212D1*
X819154D2*
X2382818D1*
X2620052D2*
X2775923D1*
X425443Y5413041D2*
X568794D1*
X832572D2*
X2369439D1*
X2633451D2*
X2775923D1*
X425443Y5403172D2*
X558755D1*
X842611D2*
X2359439D1*
X2643451D2*
X2775923D1*
X425443Y5393303D2*
X550962D1*
X850404D2*
X2351665D1*
X2651224D2*
X2775923D1*
X425443Y5383434D2*
X544830D1*
X856537D2*
X2345552D1*
X2657337D2*
X2775923D1*
X425443Y5373566D2*
X540064D1*
X861302D2*
X2340787D1*
X2662083D2*
X2775923D1*
X425443Y5363697D2*
X536470D1*
X864896D2*
X2337193D1*
X2665677D2*
X2775923D1*
X425443Y5353828D2*
X533912D1*
X867435D2*
X2334654D1*
X2668216D2*
X2775923D1*
X425443Y5343959D2*
X532349D1*
X869017D2*
X2333091D1*
X2669798D2*
X2775923D1*
X425443Y5334091D2*
X531705D1*
X869662D2*
X2332447D1*
X2670423D2*
X2775923D1*
X425443Y5324222D2*
X531958D1*
X869408D2*
X2332720D1*
X2670150D2*
X2775923D1*
X425443Y5314353D2*
X533150D1*
X868216D2*
X2333912D1*
X2668958D2*
X2775923D1*
X425443Y5304484D2*
X535279D1*
X866087D2*
X2336060D1*
X2666810D2*
X2775923D1*
X425443Y5294615D2*
X538423D1*
X862943D2*
X2339224D1*
X2663665D2*
X2775923D1*
X425443Y5284747D2*
X542701D1*
X858665D2*
X2343501D1*
X2659388D2*
X2775923D1*
X425443Y5274878D2*
X548228D1*
X853138D2*
X2349029D1*
X2653841D2*
X2775923D1*
X425443Y5265009D2*
X555279D1*
X846087D2*
X2356099D1*
X2646771D2*
X2775923D1*
X425443Y5255140D2*
X564263D1*
X837103D2*
X2365123D1*
X2637767D2*
X2775923D1*
X425443Y5245272D2*
X576060D1*
X825306D2*
X2376939D1*
X2625931D2*
X2775923D1*
X425443Y5235403D2*
X592740D1*
X808626D2*
X2393697D1*
X2609193D2*
X2775923D1*
X2598623Y5432777D2*
X2606149Y5429777D1*
X2615074Y5425273D1*
X2623539Y5419956D1*
X2631470Y5413872D1*
X2638800Y5407074D1*
X2645463Y5399622D1*
X2651401Y5391581D1*
X2656562Y5383020D1*
X2660903Y5374015D1*
X2664383Y5364644D1*
X2666974Y5354990D1*
X2668653Y5345135D1*
X2669404Y5335167D1*
X2669221Y5325172D1*
X2668107Y5315238D1*
X2666070Y5305452D1*
X2663129Y5295898D1*
X2659309Y5286660D1*
X2654643Y5277820D1*
X2649172Y5269453D1*
X2642945Y5261633D1*
X2636014Y5254429D1*
X2628442Y5247904D1*
X2620293Y5242113D1*
X2611640Y5237109D1*
X2602557Y5232933D1*
X2595149Y5230282D1*
X2776933Y5230338D1*
X2776928Y5432778D1*
X2598705D1*
X2407734Y5230279D2*
X2401343Y5232528D1*
X2392218Y5236610D1*
X2383514Y5241525D1*
X2375306Y5247232D1*
X2367667Y5253680D1*
X2360664Y5260813D1*
X2354356Y5268568D1*
X2348800Y5276878D1*
X2344044Y5285670D1*
X2340129Y5294868D1*
X2337090Y5304392D1*
X2334953Y5314157D1*
X2333737Y5324079D1*
X2333452Y5334071D1*
X2334102Y5344047D1*
X2335679Y5353918D1*
X2338171Y5363599D1*
X2341555Y5373004D1*
X2345803Y5382053D1*
X2350877Y5390667D1*
X2356732Y5398768D1*
X2363318Y5406288D1*
X2370578Y5413161D1*
X2378447Y5419326D1*
X2386857Y5424729D1*
X2395734Y5429324D1*
X2404217Y5432774D1*
X797689Y5432778D1*
X805391Y5429686D1*
X814315Y5425182D1*
X822780Y5419865D1*
X830712Y5413781D1*
X838041Y5406984D1*
X844704Y5399532D1*
X850642Y5391490D1*
X855804Y5382930D1*
X860144Y5373925D1*
X863625Y5364554D1*
X866216Y5354899D1*
X867894Y5345045D1*
X868645Y5335076D1*
X868463Y5325082D1*
X867348Y5315148D1*
X865312Y5305361D1*
X862370Y5295807D1*
X858550Y5286570D1*
X853884Y5277729D1*
X848414Y5269362D1*
X842186Y5261543D1*
X835256Y5254339D1*
X827683Y5247813D1*
X819535Y5242023D1*
X810882Y5237018D1*
X801799Y5232843D1*
X794651Y5230276D1*
X2407661Y5230278D1*
X606677Y5230282D2*
X600584Y5232437D1*
X591459Y5236519D1*
X582755Y5241435D1*
X574548Y5247142D1*
X566909Y5253589D1*
X559905Y5260722D1*
X553598Y5268477D1*
X548042Y5276787D1*
X543286Y5285580D1*
X539371Y5294778D1*
X536332Y5304301D1*
X534195Y5314066D1*
X532979Y5323988D1*
X532694Y5333981D1*
X533343Y5343956D1*
X534920Y5353827D1*
X537412Y5363508D1*
X540797Y5372914D1*
X545044Y5381963D1*
X550118Y5390576D1*
X555974Y5398678D1*
X562560Y5406198D1*
X569819Y5413070D1*
X577688Y5419235D1*
X586098Y5424639D1*
X594976Y5429233D1*
X603714Y5432780D1*
X424433Y5432719D1*
X424438Y5230278D1*
X606606D1*
X425442Y629160D2*
X2763832D1*
X425442Y619291D2*
X2764086D1*
X425442Y609423D2*
X601840D1*
X799524D2*
X2399340D1*
X2601086D2*
X2764340D1*
X425442Y599554D2*
X582289D1*
X819074D2*
X2380609D1*
X2619817D2*
X2764594D1*
X425442Y589685D2*
X569340D1*
X832024D2*
X2367992D1*
X2632434D2*
X2764867D1*
X425442Y579816D2*
X559672D1*
X841692D2*
X2358539D1*
X2641887D2*
X2765121D1*
X425442Y569948D2*
X552192D1*
X849172D2*
X2351215D1*
X2649211D2*
X2765375D1*
X425442Y560079D2*
X546371D1*
X854992D2*
X2345492D1*
X2654934D2*
X2765649D1*
X425442Y550210D2*
X541879D1*
X859484D2*
X2341098D1*
X2659328D2*
X2765902D1*
X425442Y540341D2*
X538559D1*
X862805D2*
X2337875D1*
X2662551D2*
X2766156D1*
X425442Y530472D2*
X536293D1*
X865070D2*
X2335688D1*
X2664738D2*
X2766410D1*
X425442Y520604D2*
X535024D1*
X866340D2*
X2334496D1*
X2665930D2*
X2766684D1*
X425442Y510735D2*
X534692D1*
X866672D2*
X2334223D1*
X2666203D2*
X2766938D1*
X425442Y500866D2*
X535297D1*
X866067D2*
X2334906D1*
X2665520D2*
X2767192D1*
X425442Y490997D2*
X536859D1*
X864504D2*
X2336547D1*
X2663879D2*
X2767465D1*
X425442Y481129D2*
X539418D1*
X861945D2*
X2339203D1*
X2661223D2*
X2767719D1*
X425442Y471260D2*
X543070D1*
X858293D2*
X2342934D1*
X2657492D2*
X2767973D1*
X425442Y461391D2*
X547914D1*
X853449D2*
X2347895D1*
X2652531D2*
X2768246D1*
X425442Y451522D2*
X554203D1*
X847160D2*
X2354301D1*
X2646125D2*
X2768500D1*
X425442Y441654D2*
X562250D1*
X839113D2*
X2362524D1*
X2637902D2*
X2768754D1*
X425442Y431785D2*
X572719D1*
X828664D2*
X2373207D1*
X2627199D2*
X2769008D1*
X425442Y421916D2*
X587035D1*
X814328D2*
X2387973D1*
X2612453D2*
X2769281D1*
X425442Y412047D2*
X610629D1*
X790734D2*
X2413149D1*
X2587277D2*
X2769535D1*
X2444274Y616953D2*
X2566234Y616832D1*
X2576184Y615872D1*
X2585996Y613962D1*
X2595579Y611118D1*
X2604845Y607366D1*
X2613707Y602743D1*
X2622085Y597290D1*
X2629900Y591057D1*
X2637081Y584103D1*
X2643561Y576492D1*
X2649280Y568293D1*
X2654186Y559583D1*
X2658232Y550443D1*
X2661382Y540956D1*
X2663606Y531211D1*
X2664885Y521297D1*
X2665206Y511306D1*
X2664565Y501330D1*
X2662970Y491462D1*
X2660435Y481793D1*
X2656983Y472411D1*
X2652646Y463405D1*
X2647464Y454857D1*
X2641486Y446846D1*
X2634766Y439445D1*
X2627366Y432725D1*
X2619355Y426746D1*
X2610807Y421563D1*
X2601801Y417226D1*
X2592420Y413773D1*
X2583986Y411530D1*
X2770537Y411529D1*
X2764563Y639020D1*
X424414Y639029D1*
X424432Y411522D1*
X613545Y411529D1*
X605316Y414031D1*
X596050Y417782D1*
X587188Y422405D1*
X578810Y427859D1*
X570995Y434091D1*
X563814Y441045D1*
X557334Y448657D1*
X551615Y456855D1*
X546709Y465565D1*
X542663Y474705D1*
X539513Y484192D1*
X537289Y493938D1*
X536010Y503852D1*
X535689Y513843D1*
X536330Y523818D1*
X537925Y533686D1*
X540460Y543356D1*
X543912Y552737D1*
X548249Y561743D1*
X553431Y570292D1*
X559409Y578303D1*
X566129Y585703D1*
X573529Y592424D1*
X581540Y598403D1*
X590088Y603585D1*
X599094Y607922D1*
X608475Y611375D1*
X618144Y613911D1*
X628012Y615507D1*
X637988Y616148D1*
X761706Y616161D1*
X771691Y615681D1*
X781583Y614244D1*
X791292Y611863D1*
X800727Y608562D1*
X809801Y604370D1*
X818432Y599326D1*
X826537Y593476D1*
X834044Y586875D1*
X840882Y579584D1*
X846989Y571670D1*
X852307Y563206D1*
X856788Y554270D1*
X860391Y544946D1*
X863081Y535319D1*
X864835Y525478D1*
X865635Y515514D1*
X865475Y505519D1*
X864356Y495585D1*
X862289Y485805D1*
X859291Y476269D1*
X855393Y467065D1*
X850628Y458277D1*
X845041Y449988D1*
X838684Y442273D1*
X831616Y435205D1*
X823902Y428848D1*
X815613Y423260D1*
X806826Y418495D1*
X797622Y414595D1*
X788086Y411598D1*
X789424Y411529D1*
X2416357D1*
X2409603Y413285D1*
X2400168Y416586D1*
X2391094Y420779D1*
X2382463Y425823D1*
X2374358Y431672D1*
X2366851Y438273D1*
X2360013Y445564D1*
X2353906Y453478D1*
X2348588Y461942D1*
X2344107Y470878D1*
X2340504Y480202D1*
X2337814Y489830D1*
X2336060Y499671D1*
X2335260Y509635D1*
X2335420Y519630D1*
X2336539Y529563D1*
X2338606Y539343D1*
X2341604Y548879D1*
X2345503Y558084D1*
X2350267Y566871D1*
X2355854Y575160D1*
X2362211Y582875D1*
X2369279Y589944D1*
X2376993Y596301D1*
X2385282Y601888D1*
X2394069Y606653D1*
X2403273Y610553D1*
X2412809Y613551D1*
X2422589Y615619D1*
X2432522Y616739D1*
X2439189Y616953D1*
X2444274D1*
X418512Y5214011D2*
D16*
X410192Y5205691D1*
X456686Y5214001D2*
X410199Y5167514D1*
X494870Y5214001D2*
X410197Y5129327D1*
X533054Y5214001D2*
X449328Y5130275D1*
X432725Y5113672D2*
X410194Y5091141D1*
X571238Y5214001D2*
X487511Y5130275D1*
X432722Y5075485D2*
X410191Y5052954D1*
X609421Y5214001D2*
X525695Y5130275D1*
X432729Y5037309D2*
X410198Y5014778D1*
X647605Y5214001D2*
X563879Y5130275D1*
X432726Y4999122D2*
X410195Y4976591D1*
X685789Y5214001D2*
X602063Y5130275D1*
X432723Y4960935D2*
X410192Y4938404D1*
X723973Y5214001D2*
X640247Y5130275D1*
X432721Y4922749D2*
X410199Y4900228D1*
X762156Y5214001D2*
X678430Y5130275D1*
X435019Y4886863D2*
X410197Y4862041D1*
X800340Y5214001D2*
X716614Y5130275D1*
X423782Y4837443D2*
X410194Y4823855D1*
X838524Y5214001D2*
X754798Y5130275D1*
X423809Y4799286D2*
X410191Y4785668D1*
X876708Y5214001D2*
X792982Y5130275D1*
X430447Y4767741D2*
X410198Y4747491D1*
X914891Y5214001D2*
X831165Y5130275D1*
X432726Y4731836D2*
X410195Y4709305D1*
X953075Y5214001D2*
X869349Y5130275D1*
X432723Y4693649D2*
X410192Y4671118D1*
X991259Y5214001D2*
X907533Y5130275D1*
X432721Y4655463D2*
X410199Y4632941D1*
X1029443Y5214001D2*
X945717Y5130275D1*
X432728Y4617286D2*
X410197Y4594755D1*
X1067627Y5214001D2*
X983900Y5130275D1*
X432725Y4579099D2*
X410194Y4556568D1*
X1105810Y5214001D2*
X1022084Y5130275D1*
X774535Y4882726D2*
X758597Y4866788D1*
X432983Y4541174D2*
X410191Y4518382D1*
X1143994Y5214001D2*
X1060268Y5130275D1*
X812719Y4882726D2*
X764608Y4834614D1*
X462717Y4532724D2*
X410198Y4480205D1*
X1182178Y5214001D2*
X1098452Y5130275D1*
X827730Y4859553D2*
X773451Y4805274D1*
X500901Y4532724D2*
X410195Y4442018D1*
X1220362Y5214001D2*
X1136635Y5130275D1*
X822738Y4816378D2*
X811634Y4805274D1*
X539085Y4532724D2*
X410192Y4403832D1*
X1258545Y5214001D2*
X1174819Y5130275D1*
X577269Y4532724D2*
X410199Y4365655D1*
X1296729Y5214001D2*
X1213003Y5130275D1*
X615452Y4532724D2*
X410197Y4327468D1*
X1334913Y5214001D2*
X1251187Y5130275D1*
X653636Y4532724D2*
X410194Y4289282D1*
X1373097Y5214001D2*
X1289371Y5130275D1*
X691820Y4532724D2*
X410191Y4251095D1*
X1411280Y5214001D2*
X1327554Y5130275D1*
X730004Y4532724D2*
X410198Y4212918D1*
X1449464Y5214001D2*
X1365738Y5130275D1*
X768188Y4532724D2*
X410195Y4174732D1*
X1487648Y5214001D2*
X1403922Y5130275D1*
X1156373Y4882726D2*
X1154047Y4880400D1*
X806371Y4532724D2*
X410192Y4136545D1*
X1525832Y5214001D2*
X1442106Y5130275D1*
X1194556Y4882726D2*
X1162416Y4850585D1*
X844555Y4532724D2*
X410199Y4098369D1*
X1564016Y5214001D2*
X1480289Y5130275D1*
X1232740Y4882726D2*
X1165217Y4815202D1*
X882739Y4532724D2*
X410197Y4060182D1*
X1602199Y5214001D2*
X1518473Y5130275D1*
X1223563Y4835365D2*
X1193472Y4805274D1*
X920923Y4532724D2*
X410194Y4021995D1*
X1640383Y5214001D2*
X1556657Y5130275D1*
X959106Y4532724D2*
X410191Y3983809D1*
X1678567Y5214001D2*
X1594841Y5130275D1*
X997290Y4532724D2*
X410198Y3945632D1*
X1716751Y5214001D2*
X1633024Y5130275D1*
X1035474Y4532724D2*
X410195Y3907446D1*
X1754934Y5214001D2*
X1671208Y5130275D1*
X1073658Y4532724D2*
X410192Y3869259D1*
X1793118Y5214001D2*
X1709392Y5130275D1*
X1111841Y4532724D2*
X410199Y3831082D1*
X1831302Y5214001D2*
X1747576Y5130275D1*
X1150025Y4532724D2*
X410197Y3792896D1*
X1869486Y5214001D2*
X1785760Y5130275D1*
X1188209Y4532724D2*
X410194Y3754709D1*
X1907669Y5214001D2*
X1823943Y5130275D1*
X1576394Y4882726D2*
X1559006Y4865338D1*
X1226393Y4532724D2*
X648939Y3955271D1*
X632723Y3939054D2*
X410191Y3716523D1*
X1945853Y5214001D2*
X1862127Y5130275D1*
X1614578Y4882726D2*
X1564746Y4832894D1*
X1264577Y4532724D2*
X687123Y3955271D1*
X632730Y3900877D2*
X410198Y3678346D1*
X1984037Y5214001D2*
X1900311Y5130275D1*
X1627143Y4857107D2*
X1575310Y4805274D1*
X1302760Y4532724D2*
X725306Y3955271D1*
X632727Y3862691D2*
X410195Y3640159D1*
X2022221Y5214001D2*
X1938495Y5130275D1*
X1622770Y4814551D2*
X1613493Y4805274D1*
X1340944Y4532724D2*
X763490Y3955271D1*
X632724Y3824504D2*
X410192Y3601973D1*
X2060404Y5214001D2*
X1955275Y5108871D1*
X1379128Y4532724D2*
X801674Y3955271D1*
X632721Y3786318D2*
X410199Y3563796D1*
X2098588Y5214001D2*
X1955272Y5070685D1*
X1417312Y4532724D2*
X839858Y3955271D1*
X632728Y3748141D2*
X410197Y3525609D1*
X2136772Y5214001D2*
X2053046Y5130275D1*
X2032721Y5109950D2*
X1955279Y5032508D1*
X1455495Y4532724D2*
X878042Y3955271D1*
X632725Y3709954D2*
X410194Y3487423D1*
X2174956Y5214001D2*
X2091230Y5130275D1*
X2032728Y5071773D2*
X1955276Y4994321D1*
X1493679Y4532724D2*
X916225Y3955271D1*
X632723Y3671768D2*
X410191Y3449236D1*
X2213140Y5214001D2*
X2129413Y5130275D1*
X2032725Y5033587D2*
X1955273Y4956135D1*
X1531863Y4532724D2*
X954409Y3955271D1*
X632730Y3633591D2*
X410198Y3411059D1*
X2251323Y5214001D2*
X2167597Y5130275D1*
X2032722Y4995400D2*
X1955270Y4917948D1*
X1570047Y4532724D2*
X992593Y3955271D1*
X632727Y3595405D2*
X410195Y3372873D1*
X2289507Y5214001D2*
X2205781Y5130275D1*
X2032729Y4957223D2*
X1954552Y4879046D1*
X1608230Y4532724D2*
X1030777Y3955271D1*
X632724Y3557218D2*
X410192Y3334686D1*
X2327691Y5214001D2*
X2243965Y5130275D1*
X2032726Y4919037D2*
X1962709Y4849019D1*
X1646414Y4532724D2*
X1068960Y3955271D1*
X632721Y3519032D2*
X410199Y3296509D1*
X2365875Y5214001D2*
X2282148Y5130275D1*
X2035721Y4883847D2*
X1965162Y4813288D1*
X1684598Y4532724D2*
X1107144Y3955271D1*
X632728Y3480855D2*
X410197Y3258323D1*
X2404058Y5214001D2*
X2320332Y5130275D1*
X2023373Y4833315D2*
X1956980Y4766923D1*
X1722782Y4532724D2*
X1145328Y3955271D1*
X632725Y3442668D2*
X410194Y3220136D1*
X2442242Y5214001D2*
X2358516Y5130275D1*
X2024220Y4795979D2*
X1955276Y4727035D1*
X1760965Y4532724D2*
X1183512Y3955271D1*
X632723Y3404482D2*
X410191Y3181950D1*
X2480426Y5214001D2*
X2396700Y5130275D1*
X2031352Y4764927D2*
X1955273Y4688848D1*
X1799149Y4532724D2*
X1221695Y3955271D1*
X632730Y3366305D2*
X410198Y3143773D1*
X2518610Y5214001D2*
X2434884Y5130275D1*
X2032722Y4728114D2*
X1955270Y4650662D1*
X1837333Y4532724D2*
X1259879Y3955271D1*
X632727Y3328118D2*
X410195Y3105586D1*
X2556793Y5214001D2*
X2473067Y5130275D1*
X2032729Y4689937D2*
X1955277Y4612485D1*
X1875517Y4532724D2*
X1298063Y3955271D1*
X632724Y3289932D2*
X410192Y3067400D1*
X2594979Y5214003D2*
X2511253Y5130277D1*
X2032728Y4651752D2*
X1955276Y4574300D1*
X1913702Y4532726D2*
X1336249Y3955272D1*
X632723Y3251747D2*
X410192Y3029215D1*
X2633166Y5214006D2*
X2549439Y5130280D1*
X2032728Y4613568D2*
X1374435Y3955275D1*
X651884Y3232724D2*
X410192Y2991032D1*
X2671342Y5213999D2*
X2587616Y5130273D1*
X2032728Y4575385D2*
X1412622Y3955278D1*
X690071Y3232727D2*
X410192Y2952848D1*
X2709529Y5214002D2*
X2625803Y5130275D1*
X2378254Y4882726D2*
X2359406Y4863878D1*
X2033985Y4538458D2*
X1450799Y3955271D1*
X728257Y3232730D2*
X410192Y2914664D1*
X2747716Y5214004D2*
X2663989Y5130278D1*
X2416440Y4882729D2*
X2364878Y4831166D1*
X2066439Y4532728D2*
X1488985Y3955274D1*
X766434Y3232723D2*
X410192Y2876480D1*
X2777801Y5205906D2*
X2702166Y5130271D1*
X2426610Y4854715D2*
X2377175Y4805280D1*
X2104616Y4532721D2*
X1527172Y3955277D1*
X804621Y3232726D2*
X410192Y2838296D1*
X2777801Y5167722D2*
X2740353Y5130274D1*
X2422821Y4812742D2*
X2415352Y4805273D1*
X2142802Y4532723D2*
X1565358Y3955279D1*
X842807Y3232728D2*
X410192Y2800113D1*
X2777801Y5129538D2*
X2755279Y5107017D1*
X2180989Y4532726D2*
X1603535Y3955272D1*
X880984Y3232721D2*
X410192Y2761929D1*
X2777801Y5091354D2*
X2755279Y5068833D1*
X2219175Y4532729D2*
X1641722Y3955275D1*
X919171Y3232724D2*
X410192Y2723745D1*
X2777801Y5053171D2*
X2755279Y5030649D1*
X2257352Y4532722D2*
X1679908Y3955278D1*
X957357Y3232727D2*
X410192Y2685561D1*
X2777801Y5014987D2*
X2755279Y4992466D1*
X2295539Y4532725D2*
X1718085Y3955271D1*
X995544Y3232730D2*
X410192Y2647378D1*
X2777801Y4976803D2*
X2755279Y4954282D1*
X2333725Y4532728D2*
X1756271Y3955274D1*
X1033720Y3232723D2*
X410192Y2609194D1*
X2777801Y4938619D2*
X2755279Y4916098D1*
X2371902Y4532721D2*
X1794458Y3955277D1*
X1071907Y3232726D2*
X410192Y2571010D1*
X2777801Y4900436D2*
X2755057Y4877692D1*
X2410089Y4532723D2*
X1832645Y3955279D1*
X1110094Y3232728D2*
X410192Y2532826D1*
X2777801Y4862252D2*
X2762975Y4847426D1*
X2448275Y4532726D2*
X1870821Y3955272D1*
X1148270Y3232721D2*
X410192Y2494643D1*
X2777801Y4824068D2*
X2765082Y4811350D1*
X2486462Y4532729D2*
X1909008Y3955275D1*
X1186457Y3232724D2*
X410192Y2456459D1*
X2777801Y4785884D2*
X2756053Y4764136D1*
X2524639Y4532722D2*
X1947194Y3955278D1*
X1224643Y3232727D2*
X410192Y2418275D1*
X2777801Y4747701D2*
X2755279Y4725179D1*
X2562825Y4532725D2*
X2523811Y4493711D1*
X2438037Y4407937D2*
X1985371Y3955271D1*
X1262830Y3232730D2*
X410192Y2380091D1*
X2777801Y4709517D2*
X2755279Y4686995D1*
X2601012Y4532728D2*
X2576344Y4508060D1*
X2423691Y4355407D2*
X2023558Y3955274D1*
X1301007Y3232723D2*
X410192Y2341908D1*
X2777801Y4671333D2*
X2755279Y4648812D1*
X2639188Y4532721D2*
X2614337Y4507869D1*
X2423884Y4317416D2*
X2061744Y3955277D1*
X1339193Y3232726D2*
X410192Y2303724D1*
X2777801Y4633149D2*
X2755279Y4610628D1*
X2677375Y4532723D2*
X2645786Y4501134D1*
X2430613Y4285961D2*
X2099931Y3955279D1*
X1377380Y3232728D2*
X410192Y2265540D1*
X2777801Y4594965D2*
X2755279Y4572444D1*
X2715562Y4532726D2*
X2672835Y4490000D1*
X2432720Y4249885D2*
X2138108Y3955272D1*
X1415557Y3232721D2*
X991381Y2808546D1*
X979457Y2796622D2*
X410192Y2227356D1*
X2777801Y4556782D2*
X2696346Y4475327D1*
X2432720Y4211701D2*
X2176294Y3955275D1*
X1453743Y3232724D2*
X1156250Y2935231D1*
X852765Y2631746D2*
X410192Y2189172D1*
X2777801Y4518598D2*
X2716725Y4457523D1*
X2432720Y4173517D2*
X2214481Y3955278D1*
X1491930Y3232727D2*
X1234489Y2975286D1*
X812712Y2553509D2*
X410192Y2150989D1*
X2777801Y4480414D2*
X2734059Y4436673D1*
X2432720Y4135334D2*
X2252658Y3955271D1*
X1530116Y3232730D2*
X1299367Y3001981D1*
X786020Y2488634D2*
X410192Y2112805D1*
X2777801Y4442230D2*
X2748212Y4412642D1*
X2432720Y4097150D2*
X2290844Y3955274D1*
X1568293Y3232723D2*
X1357159Y3021589D1*
X766415Y2430844D2*
X410192Y2074621D1*
X2777801Y4404047D2*
X2758750Y4384996D1*
X2432720Y4058966D2*
X2329031Y3955277D1*
X1606480Y3232726D2*
X1407363Y3033608D1*
X754398Y2380644D2*
X410192Y2036437D1*
X2777801Y4365863D2*
X2764657Y4352719D1*
X2444660Y4032722D2*
X2367217Y3955279D1*
X1644666Y3232728D2*
X1455023Y3043085D1*
X744914Y2332976D2*
X410192Y1998254D1*
X2777801Y4327679D2*
X2763448Y4313327D1*
X2482846Y4032724D2*
X2405394Y3955272D1*
X1682843Y3232721D2*
X1499745Y3049623D1*
X738379Y2288257D2*
X410192Y1960070D1*
X2777801Y4289495D2*
X2755279Y4266974D1*
X2521033Y4032727D2*
X2443581Y3955275D1*
X1721030Y3232724D2*
X1540609Y3052304D1*
X735701Y2247396D2*
X410192Y1921886D1*
X2777801Y4251312D2*
X2755279Y4228790D1*
X2559209Y4032720D2*
X2481767Y3955278D1*
X1759216Y3232727D2*
X1581435Y3054946D1*
X733052Y2206563D2*
X410192Y1883702D1*
X2777801Y4213128D2*
X2755279Y4190606D1*
X2597396Y4032723D2*
X2519944Y3955271D1*
X1797403Y3232730D2*
X1618906Y3054233D1*
X733768Y2169095D2*
X410192Y1845519D1*
X2777801Y4174944D2*
X2755279Y4152423D1*
X2635582Y4032726D2*
X2553413Y3950556D1*
X1835580Y3232723D2*
X1654744Y3051887D1*
X736117Y2133260D2*
X410192Y1807335D1*
X2777801Y4136760D2*
X2755279Y4114239D1*
X2673769Y4032729D2*
X2555279Y3914238D1*
X1873766Y3232726D2*
X1690581Y3049540D1*
X738466Y2097426D2*
X410192Y1769151D1*
X2777801Y4098576D2*
X2755279Y4076055D1*
X2711946Y4032722D2*
X2555279Y3876054D1*
X1911953Y3232728D2*
X1724243Y3045019D1*
X742981Y2063757D2*
X410192Y1730967D1*
X2777801Y4060393D2*
X2555279Y3837871D1*
X1950129Y3232721D2*
X1756097Y3038689D1*
X749313Y2031905D2*
X410192Y1692783D1*
X2777801Y4022209D2*
X2555279Y3799687D1*
X1988316Y3232724D2*
X1787942Y3032350D1*
X755645Y2000053D2*
X410192Y1654600D1*
X2777801Y3984025D2*
X2555279Y3761503D1*
X2026503Y3232727D2*
X1819197Y3025422D1*
X762577Y1968801D2*
X410192Y1616416D1*
X2777801Y3945841D2*
X2555279Y3723319D1*
X2064689Y3232730D2*
X1848045Y3016085D1*
X771906Y1939947D2*
X410192Y1578232D1*
X2777801Y3907658D2*
X2555279Y3685136D1*
X2102866Y3232723D2*
X1876554Y3006411D1*
X781583Y1911440D2*
X410192Y1540048D1*
X2777801Y3869474D2*
X2555279Y3646952D1*
X2141052Y3232726D2*
X1905064Y2996737D1*
X791260Y1882933D2*
X410192Y1501865D1*
X2777801Y3831290D2*
X2555279Y3608768D1*
X2179239Y3232728D2*
X1932510Y2985999D1*
X1442191Y2495680D2*
X1292320Y2345809D1*
X802001Y1855490D2*
X410192Y1463681D1*
X2777801Y3793106D2*
X2555279Y3570584D1*
X2217416Y3232721D2*
X1958167Y2973473D1*
X1505049Y2520354D2*
X1267648Y2282954D1*
X814520Y1829826D2*
X580552Y1595857D1*
X492139Y1507444D2*
X410192Y1425497D1*
X2777801Y3754923D2*
X2555279Y3532401D1*
X2255602Y3232724D2*
X1983747Y2960869D1*
X1552342Y2529464D2*
X1258532Y2235654D1*
X827136Y1804258D2*
X617153Y1594275D1*
X493724Y1470846D2*
X410192Y1387313D1*
X2777801Y3716739D2*
X2555279Y3494217D1*
X2293789Y3232727D2*
X2009318Y2948256D1*
X1593206Y2532144D2*
X1255854Y2194792D1*
X839743Y1778681D2*
X644705Y1583643D1*
X504359Y1443297D2*
X410192Y1349130D1*
X2777801Y3678555D2*
X2555279Y3456033D1*
X2331975Y3232730D2*
X2033805Y2934560D1*
X1629082Y2529837D2*
X1258164Y2158919D1*
X853441Y1754196D2*
X666467Y1567221D1*
X520774Y1421528D2*
X410192Y1310946D1*
X2777801Y3640371D2*
X2555279Y3417849D1*
X2370152Y3232723D2*
X2056756Y2919326D1*
X1661884Y2524455D2*
X1263540Y2126110D1*
X868668Y1731238D2*
X683095Y1545665D1*
X542332Y1404903D2*
X410192Y1272762D1*
X2777801Y3602188D2*
X2555279Y3379665D1*
X2408339Y3232726D2*
X2079649Y2904035D1*
X1692414Y2516801D2*
X1537264Y2361651D1*
X1432601Y2256987D2*
X1271196Y2095583D1*
X883971Y1708358D2*
X693990Y1518377D1*
X569624Y1394010D2*
X410192Y1234578D1*
X2777801Y3564004D2*
X2555279Y3341482D1*
X2446525Y3232728D2*
X2102531Y2888734D1*
X1720923Y2507126D2*
X1585060Y2371263D1*
X1422981Y2209184D2*
X1280873Y2067076D1*
X899265Y1685468D2*
X696078Y1482281D1*
X605712Y1391915D2*
X410192Y1196395D1*
X2777801Y3525820D2*
X2555279Y3303298D1*
X2484702Y3232721D2*
X2124573Y2872593D1*
X1746726Y2494745D2*
X1621372Y2369391D1*
X1424857Y2172876D2*
X1293257Y2041277D1*
X915410Y1663429D2*
X457253Y1205272D1*
X432723Y1180742D2*
X410192Y1158211D1*
X2777801Y3487636D2*
X2555279Y3265114D1*
X2522889Y3232724D2*
X2145039Y2854875D1*
X1771301Y2481136D2*
X1651795Y2361631D1*
X1432620Y2142455D2*
X1306860Y2016695D1*
X933130Y1642966D2*
X495439Y1205275D1*
X432723Y1142558D2*
X410192Y1120027D1*
X2777801Y3449452D2*
X2165380Y2837031D1*
X1794193Y2465845D2*
X1678042Y2349694D1*
X1444559Y2116211D2*
X1322153Y1993805D1*
X950967Y1622619D2*
X539339Y1210991D1*
X432723Y1104374D2*
X410192Y1081843D1*
X2777801Y3411269D2*
X2185720Y2819188D1*
X1815143Y2448610D2*
X1700877Y2334345D1*
X1459901Y2093369D2*
X1339391Y1972859D1*
X968813Y1602281D2*
X589833Y1223300D1*
X449254Y1082722D2*
X410192Y1043659D1*
X2777801Y3373085D2*
X2205500Y2800784D1*
X1835174Y2430458D2*
X1720608Y2315892D1*
X1478357Y2073641D2*
X1357536Y1952821D1*
X987210Y1582494D2*
X624548Y1219833D1*
X468163Y1063448D2*
X410192Y1005476D1*
X2777801Y3334901D2*
X2223597Y2780698D1*
X1853020Y2410120D2*
X1737304Y2294404D1*
X1499847Y2056948D2*
X1377877Y1934977D1*
X1007299Y1564400D2*
X652497Y1209598D1*
X478401Y1035502D2*
X448175Y1005275D1*
X432723Y989823D2*
X410192Y967292D1*
X2777801Y3296717D2*
X2241434Y2760350D1*
X1869619Y2388535D2*
X1750751Y2269668D1*
X1524587Y2043503D2*
X1399464Y1918381D1*
X1027649Y1546566D2*
X686362Y1205279D1*
X493396Y1012312D2*
X486362Y1005278D1*
X432723Y951639D2*
X410192Y929108D1*
X2777801Y3258534D2*
X2259280Y2740013D1*
X1884913Y2365646D2*
X1760428Y2241161D1*
X1553096Y2033829D2*
X1422357Y1903090D1*
X1047990Y1528723D2*
X724539Y1205272D1*
X432723Y913455D2*
X410192Y890924D1*
X2777801Y3220350D2*
X2276768Y2719317D1*
X1897857Y2340407D2*
X1765137Y2207686D1*
X1586565Y2029114D2*
X1447599Y1890148D1*
X1068678Y1511227D2*
X762726Y1205275D1*
X432723Y875272D2*
X410192Y852741D1*
X2777801Y3182166D2*
X2292517Y2696882D1*
X1909516Y2313882D2*
X1761724Y2166089D1*
X1628164Y2032529D2*
X1474117Y1878482D1*
X1091116Y1495482D2*
X800912Y1205278D1*
X432723Y837088D2*
X410192Y814557D1*
X2777801Y3143982D2*
X2307811Y2673992D1*
X1919194Y2285375D2*
X1727752Y2093934D1*
X1700322Y2066504D2*
X1502626Y1868808D1*
X1114009Y1480190D2*
X839089Y1205271D1*
X432723Y798904D2*
X410192Y776373D1*
X2777801Y3105799D2*
X2323105Y2651102D1*
X1926019Y2254017D2*
X1533978Y1861975D1*
X1136901Y1464899D2*
X877276Y1205273D1*
X754727Y1082725D2*
X710676Y1038674D1*
X432723Y760720D2*
X410192Y738189D1*
X2777801Y3067615D2*
X2338147Y2627961D1*
X1930417Y2220232D2*
X1567775Y1857589D1*
X1160036Y1449850D2*
X915462Y1205276D1*
X792913Y1082727D2*
X715461Y1005275D1*
X442922Y732736D2*
X410192Y700006D1*
X2777801Y3029431D2*
X2351372Y2603003D1*
X1931481Y2183111D2*
X1604888Y1856519D1*
X1184997Y1436627D2*
X969262Y1220892D1*
X831090Y1082720D2*
X753648Y1005278D1*
X481099Y732729D2*
X410192Y661822D1*
X2777801Y2991247D2*
X2363979Y2577425D1*
X1927633Y2141080D2*
X1646923Y1860369D1*
X1210577Y1424024D2*
X1041362Y1254808D1*
X865439Y1078885D2*
X791825Y1005271D1*
X519275Y732722D2*
X441852Y655299D1*
X2777801Y2953063D2*
X2376595Y2551857D1*
X1915501Y2090763D2*
X1697232Y1872495D1*
X1236148Y1411411D2*
X1080012Y1255275D1*
X872863Y1048126D2*
X830011Y1005274D1*
X557462Y732725D2*
X480039Y655302D1*
X2777801Y2914880D2*
X2388882Y2525961D1*
X1886189Y2023268D2*
X1764740Y1901819D1*
X1262037Y1399116D2*
X1118199Y1255278D1*
X885731Y1022810D2*
X868198Y1005277D1*
X595648Y732727D2*
X518226Y655305D1*
X2777801Y2876696D2*
X2399130Y2498025D1*
X1289976Y1388871D2*
X1156376Y1255271D1*
X633825Y732721D2*
X556412Y655307D1*
X2777801Y2838512D2*
X2408807Y2469518D1*
X1318486Y1379197D2*
X1194562Y1255274D1*
X672012Y732723D2*
X594589Y655300D1*
X2777801Y2800328D2*
X2418484Y2441012D1*
X1346995Y1369523D2*
X1232749Y1255276D1*
X710198Y732726D2*
X632775Y655303D1*
X2777801Y2762145D2*
X2427368Y2411712D1*
X1376287Y1360631D2*
X1270935Y1255279D1*
X748385Y732729D2*
X670962Y655306D1*
X2777801Y2723961D2*
X2433913Y2380073D1*
X1407929Y1354089D2*
X1309112Y1255272D1*
X1136563Y1082723D2*
X1120306Y1066466D1*
X786562Y732722D2*
X709139Y655299D1*
X2777801Y2685777D2*
X2440245Y2348222D1*
X1439774Y1347750D2*
X1346999Y1254975D1*
X1174750Y1082726D2*
X1097298Y1005274D1*
X824748Y732725D2*
X747325Y655302D1*
X2777801Y2647593D2*
X2446491Y2316283D1*
X1471715Y1341508D2*
X1367223Y1237016D1*
X1212936Y1082729D2*
X1135484Y1005277D1*
X862935Y732727D2*
X785512Y655305D1*
X2777801Y2609410D2*
X2450116Y2281725D1*
X1506276Y1337885D2*
X1391750Y1223359D1*
X1251113Y1082722D2*
X1173671Y1005280D1*
X901112Y732721D2*
X823698Y655307D1*
X2777801Y2571226D2*
X2452465Y2245890D1*
X1542114Y1335539D2*
X1426040Y1219465D1*
X1268534Y1061959D2*
X1211848Y1005273D1*
X939298Y732723D2*
X861875Y655300D1*
X2777801Y2533042D2*
X2454814Y2210056D1*
X1577951Y1333192D2*
X1453728Y1208969D1*
X1279033Y1034274D2*
X1250034Y1005275D1*
X977485Y732726D2*
X900062Y655303D1*
X2777801Y2494858D2*
X2454321Y2171379D1*
X1616621Y1333678D2*
X1488221Y1205279D1*
X1294230Y1011288D2*
X1288221Y1005278D1*
X1015671Y732729D2*
X938248Y655306D1*
X2777801Y2456675D2*
X2451643Y2130517D1*
X1657485Y1336359D2*
X1526398Y1205272D1*
X1053848Y732722D2*
X976425Y655299D1*
X2777801Y2418491D2*
X2448772Y2089462D1*
X1698543Y1339233D2*
X1564585Y1205275D1*
X1092035Y732725D2*
X1014612Y655302D1*
X2777801Y2380307D2*
X2440748Y2043254D1*
X1744754Y1347260D2*
X1602771Y1205278D1*
X1130221Y732727D2*
X1052798Y655305D1*
X2777801Y2342123D2*
X2431264Y1995587D1*
X1792414Y1356737D2*
X1640948Y1205271D1*
X1168398Y732721D2*
X1090985Y655307D1*
X2777801Y2303939D2*
X2416753Y1942892D1*
X1845112Y1371250D2*
X1679135Y1205273D1*
X1556586Y1082725D2*
X1508813Y1034952D1*
X1206585Y732723D2*
X1129162Y655300D1*
X2777801Y2265756D2*
X2397128Y1885083D1*
X1902914Y1390869D2*
X1717321Y1205276D1*
X1594772Y1082727D2*
X1517320Y1005275D1*
X1244771Y732726D2*
X1167348Y655303D1*
X2777801Y2227572D2*
X2366105Y1815877D1*
X1972123Y1421894D2*
X1771565Y1221337D1*
X1632949Y1082720D2*
X1555507Y1005278D1*
X1282958Y732729D2*
X1205535Y655306D1*
X2777801Y2189388D2*
X2316676Y1728263D1*
X2059739Y1471327D2*
X1810767Y1222354D1*
X1665645Y1077232D2*
X1593684Y1005271D1*
X1321135Y732722D2*
X1243712Y655299D1*
X2777801Y2151204D2*
X1841220Y1214623D1*
X1673379Y1046782D2*
X1631870Y1005274D1*
X1359321Y732725D2*
X1281898Y655302D1*
X2777801Y2113021D2*
X1870058Y1205278D1*
X1686468Y1021688D2*
X1670057Y1005277D1*
X1397508Y732727D2*
X1320085Y655305D1*
X2777801Y2074837D2*
X1908235Y1205271D1*
X1435684Y732721D2*
X1358271Y655307D1*
X2777801Y2036653D2*
X1946276Y1205128D1*
X1473871Y732723D2*
X1396448Y655300D1*
X2777801Y1998469D2*
X1955276Y1175945D1*
X1512057Y732726D2*
X1434635Y655303D1*
X2777801Y1960286D2*
X1955276Y1137761D1*
X1550244Y732729D2*
X1472821Y655306D1*
X2777801Y1922102D2*
X1955276Y1099578D1*
X1938422Y1082723D2*
X1919739Y1064040D1*
X1588421Y732722D2*
X1510998Y655299D1*
X2777801Y1883918D2*
X1899157Y1005274D1*
X1626607Y732725D2*
X1549184Y655302D1*
X2777801Y1845734D2*
X2145977Y1213911D1*
X2074096Y1142029D2*
X1937343Y1005277D1*
X1664794Y732727D2*
X1587371Y655305D1*
X2777801Y1807551D2*
X2561650Y1591399D1*
X2496603Y1526353D2*
X2193638Y1223388D1*
X2064612Y1094362D2*
X1955276Y985026D1*
X1702971Y732721D2*
X1625558Y655307D1*
X2777801Y1769367D2*
X2604737Y1596303D1*
X2491701Y1483267D2*
X2263708Y1255274D1*
X2068914Y1060480D2*
X1955276Y946842D1*
X1741157Y732723D2*
X1663734Y655300D1*
X2777801Y1731183D2*
X2635055Y1588437D1*
X2499571Y1452953D2*
X2301894Y1255276D1*
X2079664Y1033046D2*
X2051893Y1005275D1*
X2032728Y986111D2*
X1955276Y908659D1*
X1779344Y732726D2*
X1701921Y655303D1*
X2777801Y1692999D2*
X2658846Y1574045D1*
X2513956Y1429154D2*
X2340081Y1255279D1*
X2095084Y1010282D2*
X2090080Y1005278D1*
X2032728Y947927D2*
X1955276Y870475D1*
X1817530Y732729D2*
X1740107Y655306D1*
X2777801Y1654815D2*
X2677418Y1554432D1*
X2533562Y1410576D2*
X2378257Y1255272D1*
X2032728Y909743D2*
X1955276Y832291D1*
X1855707Y732722D2*
X1778284Y655299D1*
X2777801Y1616632D2*
X2690652Y1529483D1*
X2558523Y1397354D2*
X2416444Y1255275D1*
X2032728Y871559D2*
X1955276Y794107D1*
X1893894Y732725D2*
X1816471Y655302D1*
X2777801Y1578448D2*
X2696772Y1497419D1*
X2590580Y1391228D2*
X2454631Y1255278D1*
X2032728Y833376D2*
X1955276Y755924D1*
X1932080Y732727D2*
X1854657Y655305D1*
X2777801Y1540264D2*
X2685751Y1448214D1*
X2639788Y1402251D2*
X2492807Y1255271D1*
X2032728Y795192D2*
X1892844Y655307D1*
X2777801Y1502080D2*
X2530994Y1255274D1*
X2358445Y1082725D2*
X2306593Y1030872D1*
X2032728Y757008D2*
X1931021Y655300D1*
X2777801Y1463897D2*
X2559068Y1245164D1*
X2396632Y1082727D2*
X2319180Y1005275D1*
X2046630Y732726D2*
X1969207Y655303D1*
X2777801Y1425713D2*
X2578162Y1226074D1*
X2434808Y1082720D2*
X2357366Y1005278D1*
X2084817Y732729D2*
X2007394Y655306D1*
X2777801Y1387529D2*
X2612413Y1222142D1*
X2465860Y1075589D2*
X2395543Y1005271D1*
X2122994Y732722D2*
X2045571Y655299D1*
X2777801Y1349345D2*
X2642547Y1214092D1*
X2473904Y1045448D2*
X2433729Y1005274D1*
X2161180Y732725D2*
X2083757Y655302D1*
X2777801Y1311162D2*
X2667421Y1200782D1*
X2487225Y1020586D2*
X2471916Y1005277D1*
X2199367Y732727D2*
X2121944Y655305D1*
X2777801Y1272978D2*
X2688013Y1183190D1*
X2237544Y732721D2*
X2160130Y655307D1*
X2777801Y1234794D2*
X2704564Y1161557D1*
X2275730Y732723D2*
X2198307Y655300D1*
X2777801Y1196610D2*
X2716696Y1135506D1*
X2313917Y732726D2*
X2236494Y655303D1*
X2777801Y1158426D2*
X2723058Y1103683D1*
X2352103Y732729D2*
X2274680Y655306D1*
X2777801Y1120243D2*
X2719104Y1061546D1*
X2390280Y732722D2*
X2312857Y655299D1*
X2777801Y1082059D2*
X2701016Y1005274D1*
X2428467Y732725D2*
X2351044Y655302D1*
X2777801Y1043875D2*
X2739202Y1005277D1*
X2466653Y732727D2*
X2389230Y655305D1*
X2777801Y1005691D2*
X2755279Y983170D1*
X2504830Y732721D2*
X2427417Y655307D1*
X2777801Y967508D2*
X2755279Y944986D1*
X2543016Y732723D2*
X2465593Y655300D1*
X2777801Y929324D2*
X2755279Y906803D1*
X2581203Y732726D2*
X2503780Y655303D1*
X2777801Y891140D2*
X2755279Y868619D1*
X2619389Y732729D2*
X2541967Y655306D1*
X2777801Y852956D2*
X2755279Y830435D1*
X2657566Y732722D2*
X2580143Y655299D1*
X2777801Y814773D2*
X2755279Y792251D1*
X2695753Y732725D2*
X2618330Y655302D1*
X2777801Y776589D2*
X2755279Y754067D1*
X2733939Y732727D2*
X2656516Y655305D1*
X2777801Y738405D2*
X2694703Y655307D1*
X2777801Y700221D2*
X2732880Y655300D1*
X2777801Y662038D2*
X2771008Y655245D1*
X2769497Y5214001D2*
X2777808Y5205691D1*
X2731314Y5214001D2*
X2777801Y5167514D1*
X2693130Y5214001D2*
X2777803Y5129327D1*
X2654946Y5214001D2*
X2738672Y5130275D1*
X2755275Y5113672D2*
X2777806Y5091141D1*
X2616762Y5214001D2*
X2700489Y5130275D1*
X2755278Y5075485D2*
X2777809Y5052954D1*
X2578579Y5214001D2*
X2662305Y5130275D1*
X2755271Y5037309D2*
X2777802Y5014778D1*
X2540395Y5214001D2*
X2624121Y5130275D1*
X2755274Y4999122D2*
X2777805Y4976591D1*
X2502211Y5214001D2*
X2585937Y5130275D1*
X2755277Y4960935D2*
X2777808Y4938404D1*
X2464027Y5214001D2*
X2547753Y5130275D1*
X2755279Y4922749D2*
X2777801Y4900228D1*
X2425844Y5214001D2*
X2509570Y5130275D1*
X2752981Y4886863D2*
X2777803Y4862041D1*
X2387660Y5214001D2*
X2471386Y5130275D1*
X2764218Y4837443D2*
X2777806Y4823855D1*
X2349476Y5214001D2*
X2433202Y5130275D1*
X2764191Y4799286D2*
X2777809Y4785668D1*
X2311292Y5214001D2*
X2395018Y5130275D1*
X2757553Y4767741D2*
X2777802Y4747491D1*
X2273109Y5214001D2*
X2356835Y5130275D1*
X2755274Y4731836D2*
X2777805Y4709305D1*
X2234925Y5214001D2*
X2318651Y5130275D1*
X2755277Y4693649D2*
X2777808Y4671118D1*
X2196741Y5214001D2*
X2280467Y5130275D1*
X2755279Y4655463D2*
X2777801Y4632941D1*
X2158557Y5214001D2*
X2242283Y5130275D1*
X2755272Y4617286D2*
X2777803Y4594755D1*
X2120373Y5214001D2*
X2204100Y5130275D1*
X2755275Y4579099D2*
X2777806Y4556568D1*
X2082190Y5214001D2*
X2165916Y5130275D1*
X2413465Y4882726D2*
X2429403Y4866788D1*
X2755017Y4541174D2*
X2777809Y4518382D1*
X2044006Y5214001D2*
X2127732Y5130275D1*
X2375281Y4882726D2*
X2423392Y4834614D1*
X2725283Y4532724D2*
X2777802Y4480205D1*
X2005822Y5214001D2*
X2089548Y5130275D1*
X2360270Y4859553D2*
X2414549Y4805274D1*
X2687099Y4532724D2*
X2777805Y4442018D1*
X1967638Y5214001D2*
X2051365Y5130275D1*
X2365262Y4816378D2*
X2376366Y4805274D1*
X2648915Y4532724D2*
X2777808Y4403832D1*
X1929455Y5214001D2*
X2032728Y5110727D1*
X2610731Y4532724D2*
X2641238Y4502218D1*
X2758470Y4384986D2*
X2777801Y4365655D1*
X1891271Y5214001D2*
X2032721Y5072550D1*
X2572548Y4532724D2*
X2596268Y4509004D1*
X2765249Y4340023D2*
X2777803Y4327468D1*
X1853087Y5214001D2*
X1936813Y5130275D1*
X1955272Y5111816D2*
X2032724Y5034364D1*
X2534364Y4532724D2*
X2561158Y4505930D1*
X2762187Y4304901D2*
X2777806Y4289282D1*
X1814903Y5214001D2*
X1898629Y5130275D1*
X1955275Y5073629D2*
X2032727Y4996177D1*
X2496180Y4532724D2*
X2531520Y4497384D1*
X2755278Y4273626D2*
X2777809Y4251095D1*
X1776720Y5214001D2*
X1860446Y5130275D1*
X1955278Y5035443D2*
X2032720Y4958000D1*
X2457996Y4532724D2*
X2505885Y4484836D1*
X2755271Y4235449D2*
X2777802Y4212918D1*
X1738536Y5214001D2*
X1822262Y5130275D1*
X1955271Y4997266D2*
X2032723Y4919814D1*
X2419812Y4532724D2*
X2483585Y4468952D1*
X2755274Y4197263D2*
X2777805Y4174732D1*
X1700352Y5214001D2*
X1784078Y5130275D1*
X1955274Y4959079D2*
X2033953Y4880400D1*
X2381629Y4532724D2*
X2464359Y4449994D1*
X2755277Y4159076D2*
X2777808Y4136545D1*
X1662168Y5214001D2*
X1745894Y5130275D1*
X1955276Y4920893D2*
X2025584Y4850585D1*
X2343445Y4532724D2*
X2448198Y4427971D1*
X2755279Y4120890D2*
X2777801Y4098369D1*
X1623984Y5214001D2*
X1707711Y5130275D1*
X1952108Y4885877D2*
X2022783Y4815202D1*
X2305261Y4532724D2*
X2435333Y4402652D1*
X2755272Y4082713D2*
X2777803Y4060182D1*
X1585801Y5214001D2*
X1669527Y5130275D1*
X1964437Y4835365D2*
X2030162Y4769639D1*
X2267077Y4532724D2*
X2426384Y4373418D1*
X2755275Y4044526D2*
X2777806Y4021995D1*
X1547617Y5214001D2*
X1631343Y5130275D1*
X1963995Y4797623D2*
X2032727Y4728891D1*
X2228894Y4532724D2*
X2422723Y4338895D1*
X2728895Y4032723D2*
X2777809Y3983809D1*
X1509433Y5214001D2*
X1593159Y5130275D1*
X1957105Y4766329D2*
X2032730Y4690704D1*
X2190710Y4532724D2*
X2428236Y4295198D1*
X2690712Y4032723D2*
X2777802Y3945632D1*
X1471249Y5214001D2*
X1554976Y5130275D1*
X1955271Y4729980D2*
X2032723Y4652528D1*
X2152526Y4532724D2*
X2432724Y4252526D1*
X2652528Y4032723D2*
X2777805Y3907446D1*
X1433066Y5214001D2*
X1516792Y5130275D1*
X1955274Y4691793D2*
X2032726Y4614341D1*
X2114342Y4532724D2*
X2432727Y4214340D1*
X2614344Y4032723D2*
X2777808Y3869259D1*
X1394882Y5214001D2*
X1478608Y5130275D1*
X1955276Y4653606D2*
X2032728Y4576155D1*
X2076159Y4532724D2*
X2432720Y4176163D1*
X2576160Y4032723D2*
X2777801Y3831082D1*
X1356698Y5214001D2*
X1440424Y5130275D1*
X1955279Y4615420D2*
X2432723Y4137976D1*
X2537977Y4032723D2*
X2777803Y3792896D1*
X1318514Y5214001D2*
X1402240Y5130275D1*
X1955272Y4577243D2*
X2432726Y4099790D1*
X2499793Y4032723D2*
X2777806Y3754709D1*
X1280331Y5214001D2*
X1364057Y5130275D1*
X1611606Y4882726D2*
X1628994Y4865338D1*
X1954598Y4539733D2*
X2432728Y4061603D1*
X2461609Y4032723D2*
X2539061Y3955271D1*
X2555277Y3939054D2*
X2777809Y3716523D1*
X1242147Y5214001D2*
X1325873Y5130275D1*
X1573422Y4882726D2*
X1623254Y4832894D1*
X1923423Y4532724D2*
X2500877Y3955271D1*
X2555270Y3900877D2*
X2777802Y3678346D1*
X1203963Y5214001D2*
X1287689Y5130275D1*
X1560857Y4857107D2*
X1612690Y4805274D1*
X1885240Y4532724D2*
X2462694Y3955271D1*
X2555273Y3862691D2*
X2777805Y3640159D1*
X1165779Y5214001D2*
X1249505Y5130275D1*
X1565230Y4814551D2*
X1574507Y4805274D1*
X1847056Y4532724D2*
X2424510Y3955271D1*
X2555276Y3824504D2*
X2777808Y3601973D1*
X1127596Y5214001D2*
X1211322Y5130275D1*
X1808872Y4532724D2*
X2386326Y3955271D1*
X2555279Y3786318D2*
X2777801Y3563796D1*
X1089412Y5214001D2*
X1173138Y5130275D1*
X1770688Y4532724D2*
X2348142Y3955271D1*
X2555272Y3748141D2*
X2777803Y3525609D1*
X1051228Y5214001D2*
X1134954Y5130275D1*
X1732505Y4532724D2*
X2309958Y3955271D1*
X2555275Y3709954D2*
X2777806Y3487423D1*
X1013044Y5214001D2*
X1096770Y5130275D1*
X1694321Y4532724D2*
X2271775Y3955271D1*
X2555277Y3671768D2*
X2777809Y3449236D1*
X974860Y5214001D2*
X1058587Y5130275D1*
X1656137Y4532724D2*
X2233591Y3955271D1*
X2555270Y3633591D2*
X2777802Y3411059D1*
X936677Y5214001D2*
X1020403Y5130275D1*
X1617953Y4532724D2*
X2195407Y3955271D1*
X2555273Y3595405D2*
X2777805Y3372873D1*
X898493Y5214001D2*
X982219Y5130275D1*
X1229768Y4882726D2*
X1233448Y4879046D1*
X1579770Y4532724D2*
X2157223Y3955271D1*
X2555276Y3557218D2*
X2777808Y3334686D1*
X860309Y5214001D2*
X944035Y5130275D1*
X1191585Y4882726D2*
X1225291Y4849019D1*
X1541586Y4532724D2*
X2119040Y3955271D1*
X2555279Y3519032D2*
X2777801Y3296509D1*
X822125Y5214001D2*
X905852Y5130275D1*
X1153401Y4882726D2*
X1222838Y4813288D1*
X1503402Y4532724D2*
X2080856Y3955271D1*
X2555272Y3480855D2*
X2777803Y3258323D1*
X783942Y5214001D2*
X867668Y5130275D1*
X1164627Y4833315D2*
X1192669Y4805274D1*
X1465218Y4532724D2*
X2042672Y3955271D1*
X2555275Y3442668D2*
X2777806Y3220136D1*
X745758Y5214001D2*
X829484Y5130275D1*
X1427035Y4532724D2*
X2004488Y3955271D1*
X2555277Y3404482D2*
X2777809Y3181950D1*
X707574Y5214001D2*
X791300Y5130275D1*
X1388851Y4532724D2*
X1966305Y3955271D1*
X2555270Y3366305D2*
X2777802Y3143773D1*
X669390Y5214001D2*
X753116Y5130275D1*
X1350667Y4532724D2*
X1928121Y3955271D1*
X2555273Y3328118D2*
X2777805Y3105586D1*
X631207Y5214001D2*
X714933Y5130275D1*
X1312483Y4532724D2*
X1889937Y3955271D1*
X2555276Y3289932D2*
X2777808Y3067400D1*
X593021Y5214003D2*
X676747Y5130277D1*
X1274298Y4532726D2*
X1851751Y3955272D1*
X2555277Y3251747D2*
X2777808Y3029215D1*
X554834Y5214006D2*
X638561Y5130280D1*
X1236111Y4532729D2*
X1813565Y3955275D1*
X2536116Y3232724D2*
X2777808Y2991032D1*
X516658Y5213999D2*
X600384Y5130273D1*
X1197934Y4532722D2*
X1775378Y3955278D1*
X2497929Y3232727D2*
X2777808Y2952848D1*
X478471Y5214002D2*
X562197Y5130275D1*
X809746Y4882726D2*
X828594Y4863878D1*
X1159748Y4532725D2*
X1737201Y3955271D1*
X2459743Y3232730D2*
X2777808Y2914664D1*
X440284Y5214004D2*
X524011Y5130278D1*
X771560Y4882729D2*
X823122Y4831166D1*
X1121561Y4532728D2*
X1699015Y3955274D1*
X2421566Y3232723D2*
X2777808Y2876480D1*
X410199Y5205906D2*
X485834Y5130271D1*
X761390Y4854715D2*
X810825Y4805280D1*
X1083384Y4532721D2*
X1660828Y3955277D1*
X2383379Y3232726D2*
X2777808Y2838296D1*
X410199Y5167722D2*
X447647Y5130274D1*
X765179Y4812742D2*
X772648Y4805273D1*
X1045198Y4532723D2*
X1622642Y3955279D1*
X2345193Y3232728D2*
X2777808Y2800113D1*
X410199Y5129538D2*
X432721Y5107017D1*
X1007011Y4532726D2*
X1584465Y3955272D1*
X2307016Y3232721D2*
X2777808Y2761929D1*
X410199Y5091354D2*
X432721Y5068833D1*
X968825Y4532729D2*
X1546278Y3955275D1*
X2268829Y3232724D2*
X2777808Y2723745D1*
X410199Y5053171D2*
X432721Y5030649D1*
X930648Y4532722D2*
X1508092Y3955278D1*
X2230643Y3232727D2*
X2777808Y2685561D1*
X410199Y5014987D2*
X432721Y4992466D1*
X892461Y4532725D2*
X1469915Y3955271D1*
X2192456Y3232730D2*
X2777808Y2647378D1*
X410199Y4976803D2*
X432721Y4954282D1*
X854275Y4532728D2*
X1431729Y3955274D1*
X2154280Y3232723D2*
X2777808Y2609194D1*
X410199Y4938619D2*
X432721Y4916098D1*
X816098Y4532721D2*
X1393542Y3955277D1*
X2116093Y3232726D2*
X2777808Y2571010D1*
X410199Y4900436D2*
X432943Y4877692D1*
X777911Y4532723D2*
X1355355Y3955279D1*
X2077906Y3232728D2*
X2777808Y2532826D1*
X410199Y4862252D2*
X425025Y4847426D1*
X739725Y4532726D2*
X1317179Y3955272D1*
X2039730Y3232721D2*
X2777808Y2494643D1*
X410199Y4824068D2*
X422918Y4811350D1*
X701538Y4532729D2*
X1278992Y3955275D1*
X2001543Y3232724D2*
X2777808Y2456459D1*
X410199Y4785884D2*
X431947Y4764136D1*
X663361Y4532722D2*
X1240806Y3955278D1*
X1963357Y3232727D2*
X2777808Y2418275D1*
X410199Y4747701D2*
X432721Y4725179D1*
X625175Y4532725D2*
X1202629Y3955271D1*
X1925170Y3232730D2*
X2777808Y2380091D1*
X410199Y4709517D2*
X432721Y4686995D1*
X586988Y4532728D2*
X1164442Y3955274D1*
X1886993Y3232723D2*
X2777808Y2341908D1*
X410199Y4671333D2*
X432721Y4648812D1*
X548812Y4532721D2*
X1126256Y3955277D1*
X1848807Y3232726D2*
X2777808Y2303724D1*
X410199Y4633149D2*
X432721Y4610628D1*
X510625Y4532723D2*
X1088069Y3955279D1*
X1810620Y3232728D2*
X2777808Y2265540D1*
X410199Y4594965D2*
X432721Y4572444D1*
X472438Y4532726D2*
X1049892Y3955272D1*
X1772443Y3232721D2*
X2196619Y2808546D1*
X2208543Y2796622D2*
X2777808Y2227356D1*
X410199Y4556782D2*
X1011706Y3955275D1*
X1734257Y3232724D2*
X2031750Y2935231D1*
X2335235Y2631746D2*
X2777808Y2189172D1*
X410199Y4518598D2*
X973519Y3955278D1*
X1696070Y3232727D2*
X1953511Y2975286D1*
X2375288Y2553509D2*
X2777808Y2150989D1*
X410199Y4480414D2*
X935342Y3955271D1*
X1657884Y3232730D2*
X1888633Y3001981D1*
X2401980Y2488634D2*
X2777808Y2112805D1*
X410199Y4442230D2*
X897156Y3955274D1*
X1619707Y3232723D2*
X1830841Y3021589D1*
X2421585Y2430844D2*
X2777808Y2074621D1*
X410199Y4404047D2*
X858969Y3955277D1*
X1581520Y3232726D2*
X1780637Y3033608D1*
X2433602Y2380644D2*
X2777808Y2036437D1*
X410199Y4365863D2*
X820783Y3955279D1*
X1543334Y3232728D2*
X1732977Y3043085D1*
X2443086Y2332976D2*
X2777808Y1998254D1*
X410199Y4327679D2*
X782606Y3955272D1*
X1505157Y3232721D2*
X1688255Y3049623D1*
X2449621Y2288257D2*
X2777808Y1960070D1*
X410199Y4289495D2*
X744419Y3955275D1*
X1466970Y3232724D2*
X1647391Y3052304D1*
X2452299Y2247396D2*
X2777808Y1921886D1*
X410199Y4251312D2*
X706233Y3955278D1*
X1428784Y3232727D2*
X1606565Y3054946D1*
X2454948Y2206563D2*
X2777808Y1883702D1*
X410199Y4213128D2*
X668056Y3955271D1*
X1390597Y3232730D2*
X1569094Y3054233D1*
X2454232Y2169095D2*
X2777808Y1845519D1*
X410199Y4174944D2*
X634587Y3950556D1*
X1352420Y3232723D2*
X1533256Y3051887D1*
X2451883Y2133260D2*
X2777808Y1807335D1*
X410199Y4136760D2*
X632721Y3914238D1*
X1314234Y3232726D2*
X1497419Y3049540D1*
X2449534Y2097426D2*
X2777808Y1769151D1*
X410199Y4098576D2*
X632721Y3876054D1*
X1276047Y3232728D2*
X1463757Y3045019D1*
X2445019Y2063757D2*
X2777808Y1730967D1*
X410199Y4060393D2*
X632721Y3837871D1*
X1237871Y3232721D2*
X1431903Y3038689D1*
X2438687Y2031905D2*
X2777808Y1692783D1*
X410199Y4022209D2*
X632721Y3799687D1*
X1199684Y3232724D2*
X1400058Y3032350D1*
X2432355Y2000053D2*
X2777808Y1654600D1*
X410199Y3984025D2*
X632721Y3761503D1*
X1161497Y3232727D2*
X1368803Y3025422D1*
X2425423Y1968801D2*
X2777808Y1616416D1*
X410199Y3945841D2*
X632721Y3723319D1*
X1123311Y3232730D2*
X1339955Y3016085D1*
X2416094Y1939947D2*
X2777808Y1578232D1*
X410199Y3907658D2*
X632721Y3685136D1*
X1085134Y3232723D2*
X1311446Y3006411D1*
X2406417Y1911440D2*
X2777808Y1540048D1*
X410199Y3869474D2*
X632721Y3646952D1*
X1046948Y3232726D2*
X1282936Y2996737D1*
X2396740Y1882933D2*
X2777808Y1501865D1*
X410199Y3831290D2*
X632721Y3608768D1*
X1008761Y3232728D2*
X1255490Y2985999D1*
X1745809Y2495680D2*
X1895680Y2345809D1*
X2385999Y1855490D2*
X2777808Y1463681D1*
X410199Y3793106D2*
X632721Y3570584D1*
X970584Y3232721D2*
X1229833Y2973473D1*
X1682951Y2520354D2*
X1920352Y2282954D1*
X2373480Y1829826D2*
X2607448Y1595857D1*
X2695861Y1507444D2*
X2777808Y1425497D1*
X410199Y3754923D2*
X632721Y3532401D1*
X932398Y3232724D2*
X1204253Y2960869D1*
X1635658Y2529464D2*
X1929468Y2235654D1*
X2360864Y1804258D2*
X2570847Y1594275D1*
X2694276Y1470846D2*
X2777808Y1387313D1*
X410199Y3716739D2*
X632721Y3494217D1*
X894211Y3232727D2*
X1178682Y2948256D1*
X1594794Y2532144D2*
X1932146Y2194792D1*
X2348257Y1778681D2*
X2543295Y1583643D1*
X2683641Y1443297D2*
X2777808Y1349130D1*
X410199Y3678555D2*
X632721Y3456033D1*
X856025Y3232730D2*
X1154195Y2934560D1*
X1558918Y2529837D2*
X1929836Y2158919D1*
X2334559Y1754196D2*
X2521533Y1567221D1*
X2667226Y1421528D2*
X2777808Y1310946D1*
X410199Y3640371D2*
X632721Y3417849D1*
X817848Y3232723D2*
X1131244Y2919326D1*
X1526116Y2524455D2*
X1924460Y2126110D1*
X2319332Y1731238D2*
X2504905Y1545665D1*
X2645668Y1404903D2*
X2777808Y1272762D1*
X410199Y3602188D2*
X632721Y3379665D1*
X779661Y3232726D2*
X1108351Y2904035D1*
X1495586Y2516801D2*
X1650736Y2361651D1*
X1755399Y2256987D2*
X1916804Y2095583D1*
X2304029Y1708358D2*
X2494010Y1518377D1*
X2618376Y1394010D2*
X2777808Y1234578D1*
X410199Y3564004D2*
X632721Y3341482D1*
X741475Y3232728D2*
X1085469Y2888734D1*
X1467077Y2507126D2*
X1602940Y2371263D1*
X1765019Y2209184D2*
X1907127Y2067076D1*
X2288735Y1685468D2*
X2491922Y1482281D1*
X2582288Y1391915D2*
X2777808Y1196395D1*
X410199Y3525820D2*
X632721Y3303298D1*
X703298Y3232721D2*
X1063427Y2872593D1*
X1441284Y2494735D2*
X1566628Y2369391D1*
X1763143Y2172876D2*
X1894743Y2041277D1*
X2272590Y1663429D2*
X2777808Y1158211D1*
X410199Y3487636D2*
X632721Y3265114D1*
X665111Y3232724D2*
X1042961Y2854875D1*
X1416699Y2481136D2*
X1536205Y2361631D1*
X1755380Y2142455D2*
X1881140Y2016695D1*
X2254870Y1642966D2*
X2777808Y1120027D1*
X410199Y3449452D2*
X1022620Y2837031D1*
X1393807Y2465845D2*
X1509958Y2349694D1*
X1743441Y2116211D2*
X1865847Y1993805D1*
X2237033Y1622619D2*
X2648661Y1210991D1*
X2710991Y1148661D2*
X2777808Y1081843D1*
X410199Y3411269D2*
X1002280Y2819188D1*
X1372857Y2448610D2*
X1487123Y2334345D1*
X1728099Y2093369D2*
X1848609Y1972859D1*
X2219187Y1602281D2*
X2598167Y1223300D1*
X2723307Y1098161D2*
X2777808Y1043659D1*
X410199Y3373085D2*
X982500Y2800784D1*
X1352826Y2430458D2*
X1467392Y2315892D1*
X1709643Y2073641D2*
X1830464Y1952821D1*
X2200790Y1582494D2*
X2528011Y1255274D1*
X2719837Y1063448D2*
X2777808Y1005476D1*
X410199Y3334901D2*
X964403Y2780698D1*
X1334980Y2410120D2*
X1450696Y2294404D1*
X1688153Y2056948D2*
X1810114Y1934987D1*
X2180701Y1564400D2*
X2489824Y1255276D1*
X2709599Y1035502D2*
X2739825Y1005275D1*
X2755277Y989823D2*
X2777808Y967292D1*
X410199Y3296717D2*
X946566Y2760350D1*
X1318381Y2388535D2*
X1437249Y2269668D1*
X1663413Y2043503D2*
X1788536Y1918381D1*
X2160351Y1546566D2*
X2451638Y1255279D1*
X2694604Y1012312D2*
X2701638Y1005278D1*
X2755277Y951639D2*
X2777808Y929108D1*
X410199Y3258534D2*
X928720Y2740013D1*
X1303087Y2365646D2*
X1427572Y2241161D1*
X1634904Y2033829D2*
X1765643Y1903090D1*
X2140010Y1528723D2*
X2413461Y1255272D1*
X2755277Y913455D2*
X2777808Y890924D1*
X410199Y3220350D2*
X911232Y2719317D1*
X1290143Y2340407D2*
X1422863Y2207686D1*
X1601435Y2029114D2*
X1740401Y1890148D1*
X2119322Y1511227D2*
X2375274Y1255275D1*
X2755277Y875272D2*
X2777808Y852741D1*
X410199Y3182166D2*
X895483Y2696882D1*
X1278484Y2313882D2*
X1426276Y2166089D1*
X1559836Y2032529D2*
X1713883Y1878482D1*
X2096884Y1495482D2*
X2337088Y1255278D1*
X2755277Y837088D2*
X2777808Y814557D1*
X410199Y3143982D2*
X880189Y2673992D1*
X1268806Y2285375D2*
X1460248Y2093934D1*
X1487678Y2066504D2*
X1685374Y1868808D1*
X2073991Y1480190D2*
X2298911Y1255271D1*
X2755277Y798904D2*
X2777808Y776373D1*
X410199Y3105799D2*
X864895Y2651102D1*
X1261981Y2254017D2*
X1654022Y1861975D1*
X2051099Y1464899D2*
X2260724Y1255274D1*
X2433273Y1082725D2*
X2477324Y1038674D1*
X2755277Y760720D2*
X2777808Y738189D1*
X410199Y3067615D2*
X849853Y2627961D1*
X1257583Y2220232D2*
X1620225Y1857589D1*
X2027964Y1449850D2*
X2230794Y1247020D1*
X2395087Y1082727D2*
X2472539Y1005275D1*
X2745078Y732736D2*
X2777808Y700006D1*
X410199Y3029431D2*
X836628Y2603003D1*
X1256519Y2183111D2*
X1583112Y1856519D1*
X2003003Y1436627D2*
X2211700Y1227930D1*
X2356910Y1082720D2*
X2434352Y1005278D1*
X2706901Y732729D2*
X2777808Y661822D1*
X410199Y2991247D2*
X824021Y2577425D1*
X1260367Y2141080D2*
X1541077Y1860369D1*
X1977423Y1424024D2*
X2178889Y1222557D1*
X2322561Y1078885D2*
X2396175Y1005271D1*
X2668725Y732722D2*
X2746148Y655299D1*
X410199Y2953063D2*
X811405Y2551857D1*
X1272499Y2090763D2*
X1490768Y1872495D1*
X1951852Y1411411D2*
X2148127Y1215136D1*
X2315137Y1048126D2*
X2357989Y1005274D1*
X2630538Y732725D2*
X2707961Y655302D1*
X410199Y2914880D2*
X799118Y2525961D1*
X1301811Y2023268D2*
X1423260Y1901819D1*
X1925963Y1399116D2*
X2122808Y1202271D1*
X2302269Y1022810D2*
X2319802Y1005277D1*
X2592352Y732727D2*
X2669774Y655305D1*
X410199Y2876696D2*
X788870Y2498025D1*
X1898024Y1388871D2*
X2101810Y1185085D1*
X2554175Y732721D2*
X2631588Y655307D1*
X410199Y2838512D2*
X779193Y2469518D1*
X1869514Y1379197D2*
X2084863Y1163848D1*
X2515988Y732723D2*
X2593411Y655300D1*
X410199Y2800328D2*
X769516Y2441012D1*
X1841005Y1369523D2*
X2072266Y1138261D1*
X2477802Y732726D2*
X2555225Y655303D1*
X410199Y2762145D2*
X760632Y2411712D1*
X1811713Y1360631D2*
X2065229Y1107115D1*
X2439615Y732729D2*
X2517038Y655306D1*
X410199Y2723961D2*
X754087Y2380073D1*
X1780071Y1354089D2*
X1928888Y1205272D1*
X1955275Y1178886D2*
X2067694Y1066466D1*
X2401438Y732722D2*
X2478861Y655299D1*
X410199Y2685777D2*
X747755Y2348222D1*
X1748226Y1347750D2*
X1890702Y1205275D1*
X1955275Y1140702D2*
X2090702Y1005274D1*
X2363252Y732725D2*
X2440675Y655302D1*
X410199Y2647593D2*
X741509Y2316283D1*
X1716285Y1341508D2*
X1845245Y1212548D1*
X1955275Y1102518D2*
X2052516Y1005277D1*
X2325065Y732727D2*
X2402488Y655305D1*
X410199Y2609410D2*
X737884Y2281725D1*
X1681724Y1337885D2*
X1796250Y1223359D1*
X1936887Y1082722D2*
X2032726Y986882D1*
X2286888Y732721D2*
X2364302Y655307D1*
X410199Y2571226D2*
X735535Y2245890D1*
X1645886Y1335539D2*
X1761960Y1219465D1*
X1919466Y1061959D2*
X2032726Y948699D1*
X2248702Y732723D2*
X2326125Y655300D1*
X410199Y2533042D2*
X733186Y2210056D1*
X1610049Y1333192D2*
X1734272Y1208969D1*
X1908967Y1034274D2*
X1937966Y1005275D1*
X1955275Y987967D2*
X2032726Y910515D1*
X2210515Y732726D2*
X2287938Y655303D1*
X410199Y2494858D2*
X733679Y2171379D1*
X1571379Y1333678D2*
X1699779Y1205279D1*
X1893770Y1011288D2*
X1899779Y1005278D1*
X1955275Y949783D2*
X2032726Y872331D1*
X2172329Y732729D2*
X2249752Y655306D1*
X410199Y2456675D2*
X736357Y2130517D1*
X1530515Y1336359D2*
X1661602Y1205272D1*
X1955275Y911599D2*
X2032726Y834147D1*
X2134152Y732722D2*
X2211575Y655299D1*
X410199Y2418491D2*
X739228Y2089462D1*
X1489457Y1339233D2*
X1623415Y1205275D1*
X1955275Y873415D2*
X2032726Y795964D1*
X2095965Y732725D2*
X2173388Y655302D1*
X410199Y2380307D2*
X747252Y2043254D1*
X1443246Y1347260D2*
X1585229Y1205278D1*
X1955275Y835232D2*
X2032726Y757780D1*
X2057779Y732727D2*
X2135202Y655305D1*
X410199Y2342123D2*
X756736Y1995587D1*
X1395586Y1356737D2*
X1547052Y1205271D1*
X1955275Y797048D2*
X2097015Y655307D1*
X410199Y2303939D2*
X771247Y1942892D1*
X1342888Y1371250D2*
X1508865Y1205273D1*
X1631414Y1082725D2*
X1679187Y1034952D1*
X1955275Y758864D2*
X2058838Y655300D1*
X410199Y2265756D2*
X790872Y1885083D1*
X1285086Y1390869D2*
X1470679Y1205276D1*
X1593228Y1082727D2*
X1670680Y1005275D1*
X1943229Y732726D2*
X2020652Y655303D1*
X410199Y2227572D2*
X821895Y1815877D1*
X1215877Y1421894D2*
X1416435Y1221337D1*
X1555051Y1082720D2*
X1632493Y1005278D1*
X1905042Y732729D2*
X1982465Y655306D1*
X410199Y2189388D2*
X871324Y1728263D1*
X1128261Y1471327D2*
X1344344Y1255243D1*
X1522355Y1077232D2*
X1594316Y1005271D1*
X1866865Y732722D2*
X1944288Y655299D1*
X410199Y2151204D2*
X1306129Y1255275D1*
X1514621Y1046782D2*
X1556130Y1005274D1*
X1828679Y732725D2*
X1906102Y655302D1*
X410199Y2113021D2*
X1267942Y1255278D1*
X1501532Y1021688D2*
X1517943Y1005277D1*
X1790492Y732727D2*
X1867915Y655305D1*
X410199Y2074837D2*
X1229765Y1255271D1*
X1752316Y732721D2*
X1829729Y655307D1*
X410199Y2036653D2*
X1191579Y1255274D1*
X1714129Y732723D2*
X1791552Y655300D1*
X410199Y1998469D2*
X1153392Y1255276D1*
X1675943Y732726D2*
X1753365Y655303D1*
X410199Y1960286D2*
X1115206Y1255279D1*
X1637756Y732729D2*
X1715179Y655306D1*
X410199Y1922102D2*
X1077029Y1255272D1*
X1249578Y1082723D2*
X1268261Y1064040D1*
X1599579Y732722D2*
X1677002Y655299D1*
X410199Y1883918D2*
X1039577Y1254540D1*
X1211391Y1082726D2*
X1288843Y1005274D1*
X1561393Y732725D2*
X1638816Y655302D1*
X410199Y1845734D2*
X1019846Y1236088D1*
X1173205Y1082729D2*
X1250657Y1005277D1*
X1523206Y732727D2*
X1600629Y655305D1*
X410199Y1807551D2*
X626350Y1591399D1*
X691397Y1526353D2*
X994362Y1223388D1*
X1135028Y1082722D2*
X1212470Y1005280D1*
X1485029Y732721D2*
X1562442Y655307D1*
X410199Y1769367D2*
X583263Y1596303D1*
X696299Y1483267D2*
X960478Y1219088D1*
X1119086Y1060480D2*
X1174293Y1005273D1*
X1446843Y732723D2*
X1524266Y655300D1*
X410199Y1731183D2*
X552945Y1588437D1*
X688429Y1452953D2*
X933051Y1208331D1*
X1108336Y1033046D2*
X1136107Y1005275D1*
X1408656Y732726D2*
X1486079Y655303D1*
X410199Y1692999D2*
X529154Y1574045D1*
X674044Y1429154D2*
X897920Y1205279D1*
X1092916Y1010282D2*
X1097920Y1005278D1*
X1370470Y732729D2*
X1447893Y655306D1*
X410199Y1654815D2*
X510582Y1554432D1*
X654438Y1410576D2*
X859743Y1205272D1*
X1332293Y732722D2*
X1409716Y655299D1*
X410199Y1616632D2*
X497348Y1529483D1*
X629477Y1397354D2*
X821556Y1205275D1*
X1294106Y732725D2*
X1371529Y655302D1*
X410199Y1578448D2*
X491228Y1497419D1*
X597420Y1391228D2*
X783370Y1205278D1*
X1255920Y732727D2*
X1333343Y655305D1*
X410199Y1540264D2*
X502249Y1448214D1*
X548212Y1402251D2*
X745193Y1205271D1*
X1217743Y732721D2*
X1295156Y655307D1*
X410199Y1502080D2*
X707006Y1205273D1*
X829555Y1082725D2*
X881407Y1030872D1*
X1179556Y732723D2*
X1256979Y655300D1*
X410199Y1463897D2*
X668820Y1205276D1*
X791368Y1082727D2*
X868820Y1005275D1*
X1141370Y732726D2*
X1218793Y655303D1*
X410199Y1425713D2*
X614198Y1221714D1*
X753192Y1082720D2*
X830634Y1005278D1*
X1103183Y732729D2*
X1180606Y655306D1*
X410199Y1387529D2*
X575587Y1222142D1*
X722140Y1075589D2*
X792457Y1005271D1*
X1065006Y732722D2*
X1142429Y655299D1*
X410199Y1349345D2*
X545453Y1214092D1*
X714096Y1045448D2*
X754271Y1005274D1*
X1026820Y732725D2*
X1104243Y655302D1*
X410199Y1311162D2*
X516083Y1205278D1*
X700775Y1020586D2*
X716084Y1005277D1*
X988633Y732727D2*
X1066056Y655305D1*
X410199Y1272978D2*
X477906Y1205271D1*
X950456Y732721D2*
X1027870Y655307D1*
X410199Y1234794D2*
X440232Y1204761D1*
X912270Y732723D2*
X989693Y655300D1*
X410199Y1196610D2*
X432721Y1174089D1*
X874083Y732726D2*
X951506Y655303D1*
X410199Y1158426D2*
X432721Y1135905D1*
X835897Y732729D2*
X913320Y655306D1*
X410199Y1120243D2*
X432721Y1097721D1*
X447719Y1082723D2*
X468896Y1061546D1*
X797720Y732722D2*
X875143Y655299D1*
X410199Y1082059D2*
X486984Y1005274D1*
X759533Y732725D2*
X836956Y655302D1*
X410199Y1043875D2*
X448798Y1005277D1*
X721347Y732727D2*
X798770Y655305D1*
X410199Y1005691D2*
X432721Y983170D1*
X683170Y732721D2*
X760583Y655307D1*
X410199Y967508D2*
X432721Y944986D1*
X644984Y732723D2*
X722407Y655300D1*
X410199Y929324D2*
X432721Y906803D1*
X606797Y732726D2*
X684220Y655303D1*
X410199Y891140D2*
X432721Y868619D1*
X568611Y732729D2*
X646033Y655306D1*
X410199Y852956D2*
X432721Y830435D1*
X530434Y732722D2*
X607857Y655299D1*
X410199Y814773D2*
X432721Y792251D1*
X492247Y732725D2*
X569670Y655302D1*
X410199Y776589D2*
X432721Y754067D1*
X454061Y732727D2*
X531484Y655305D1*
X410199Y738405D2*
X493297Y655307D1*
X410199Y700221D2*
X455120Y655300D1*
X410199Y662038D2*
X417088Y655148D1*
X1122439Y1083226D2*
X1121708Y1076554D1*
X1120572Y1069647D1*
X1119064Y1062813D1*
X1117186Y1056070D1*
X1114946Y1049439D1*
X1112349Y1042940D1*
X1109403Y1036591D1*
X1106116Y1030411D1*
X1102499Y1024419D1*
X1098562Y1018632D1*
X1094317Y1013067D1*
X1089776Y1007741D1*
X1087007Y1004772D1*
X1300983Y1004780D1*
X1297512Y1008538D1*
X1293016Y1013902D1*
X1288817Y1019502D1*
X1284928Y1025321D1*
X1281360Y1031343D1*
X1278125Y1037549D1*
X1275232Y1043922D1*
X1272689Y1050443D1*
X1270503Y1057092D1*
X1268682Y1063850D1*
X1267230Y1070697D1*
X1266152Y1077613D1*
X1265568Y1083229D1*
X1122455Y1083220D1*
X900996Y1004777D2*
X897512Y1008538D1*
X893016Y1013902D1*
X888817Y1019502D1*
X884928Y1025321D1*
X881360Y1031343D1*
X878125Y1037549D1*
X875232Y1043922D1*
X872689Y1050443D1*
X870503Y1057092D1*
X868682Y1063850D1*
X867230Y1070697D1*
X866152Y1077613D1*
X865568Y1083229D1*
X722443Y1083220D1*
X721708Y1076554D1*
X720572Y1069647D1*
X719064Y1062813D1*
X717186Y1056070D1*
X714946Y1049439D1*
X712349Y1042940D1*
X709403Y1036591D1*
X706116Y1030411D1*
X702499Y1024419D1*
X698562Y1018632D1*
X694317Y1013067D1*
X689776Y1007741D1*
X687007Y1004772D1*
X900971Y1004780D1*
X928125Y1204779D2*
X934898Y1208545D1*
X941203Y1211584D1*
X947664Y1214277D1*
X954261Y1216615D1*
X960975Y1218591D1*
X967787Y1220200D1*
X974676Y1221437D1*
X981622Y1222298D1*
X988604Y1222781D1*
X995603Y1222884D1*
X1002596Y1222607D1*
X1006996Y1222228D1*
X1036999Y1252197D1*
X1038367Y1253192D1*
X1039875Y1253960D1*
X1041483Y1254482D1*
X1043154Y1254747D1*
X1078988Y1254780D1*
X1344846Y1254747D1*
X1346517Y1254482D1*
X1348125Y1253960D1*
X1349633Y1253192D1*
X1351001Y1252197D1*
X1376397Y1226849D1*
X1381008Y1222237D1*
X1388604Y1222781D1*
X1395603Y1222884D1*
X1402596Y1222607D1*
X1409565Y1221950D1*
X1416487Y1220917D1*
X1423343Y1219509D1*
X1430113Y1217731D1*
X1436776Y1215589D1*
X1443313Y1213087D1*
X1449704Y1210235D1*
X1455932Y1207040D1*
X1459880Y1204774D1*
X1728108Y1204780D1*
X1734898Y1208545D1*
X1741203Y1211584D1*
X1747664Y1214277D1*
X1754261Y1216615D1*
X1760975Y1218591D1*
X1767787Y1220200D1*
X1774676Y1221437D1*
X1781622Y1222298D1*
X1788604Y1222781D1*
X1795603Y1222884D1*
X1802596Y1222607D1*
X1809565Y1221950D1*
X1816487Y1220917D1*
X1823343Y1219509D1*
X1830113Y1217731D1*
X1836776Y1215589D1*
X1843313Y1213087D1*
X1849704Y1210235D1*
X1855932Y1207040D1*
X1859880Y1204774D1*
X1944846Y1204747D1*
X1946517Y1204482D1*
X1948125Y1203960D1*
X1949633Y1203192D1*
X1951001Y1202197D1*
X1952197Y1201001D1*
X1953192Y1199633D1*
X1953960Y1198125D1*
X1954482Y1196517D1*
X1954747Y1194846D1*
X1954780Y1159167D1*
X1954747Y1093154D1*
X1954482Y1091483D1*
X1953960Y1089875D1*
X1953192Y1088367D1*
X1952197Y1086999D1*
X1951001Y1085803D1*
X1949633Y1084808D1*
X1948125Y1084040D1*
X1946517Y1083518D1*
X1944846Y1083253D1*
X1922451Y1083220D1*
X1921708Y1076554D1*
X1920572Y1069647D1*
X1919064Y1062813D1*
X1917186Y1056070D1*
X1914946Y1049439D1*
X1912349Y1042940D1*
X1909403Y1036591D1*
X1906116Y1030411D1*
X1902499Y1024419D1*
X1898562Y1018632D1*
X1894317Y1013067D1*
X1889776Y1007741D1*
X1887007Y1004772D1*
X1944846Y1004747D1*
X1946517Y1004482D1*
X1948125Y1003959D1*
X1949633Y1003192D1*
X1951001Y1002197D1*
X1952197Y1001001D1*
X1953192Y999633D1*
X1953959Y998125D1*
X1954482Y996517D1*
X1954747Y994846D1*
X1954780Y959028D1*
X1954747Y743154D1*
X1954482Y741483D1*
X1953959Y739875D1*
X1953192Y738367D1*
X1952197Y736999D1*
X1951001Y735803D1*
X1949633Y734808D1*
X1948125Y734041D1*
X1946517Y733518D1*
X1944846Y733253D1*
X1909012Y733220D1*
X443154Y733253D1*
X441483Y733518D1*
X439875Y734041D1*
X438367Y734808D1*
X436999Y735803D1*
X435803Y736999D1*
X434808Y738367D1*
X434041Y739875D1*
X433518Y741483D1*
X433253Y743154D1*
X433220Y778972D1*
X433253Y994846D1*
X433518Y996517D1*
X434041Y998125D1*
X434808Y999633D1*
X435803Y1001001D1*
X436999Y1002197D1*
X438367Y1003192D1*
X439875Y1003959D1*
X441483Y1004482D1*
X443154Y1004747D1*
X478988Y1004780D1*
X500986D1*
X497512Y1008538D1*
X493016Y1013902D1*
X488817Y1019502D1*
X484928Y1025321D1*
X481360Y1031343D1*
X478125Y1037549D1*
X475232Y1043922D1*
X472689Y1050443D1*
X470503Y1057092D1*
X468682Y1063850D1*
X467230Y1070697D1*
X466152Y1077613D1*
X465568Y1083229D1*
X443154Y1083253D1*
X441483Y1083518D1*
X439875Y1084040D1*
X438367Y1084808D1*
X436999Y1085803D1*
X435803Y1086999D1*
X434808Y1088367D1*
X434040Y1089875D1*
X433518Y1091483D1*
X433253Y1093154D1*
X433220Y1128833D1*
X433253Y1194846D1*
X433518Y1196517D1*
X434041Y1198125D1*
X434808Y1199633D1*
X435803Y1201001D1*
X436999Y1202197D1*
X438367Y1203192D1*
X439875Y1203959D1*
X441483Y1204482D1*
X443154Y1204747D1*
X478981Y1204780D1*
X528104D1*
X534898Y1208545D1*
X541203Y1211584D1*
X547664Y1214277D1*
X554261Y1216615D1*
X560975Y1218591D1*
X567787Y1220200D1*
X574676Y1221437D1*
X581622Y1222298D1*
X588604Y1222781D1*
X595603Y1222884D1*
X602596Y1222607D1*
X609565Y1221950D1*
X616487Y1220917D1*
X623343Y1219509D1*
X630113Y1217731D1*
X636776Y1215589D1*
X643313Y1213087D1*
X649704Y1210235D1*
X655932Y1207040D1*
X659880Y1204774D1*
X928116Y1204780D1*
X1522439Y1083226D2*
X1521708Y1076554D1*
X1520572Y1069647D1*
X1519064Y1062813D1*
X1517186Y1056070D1*
X1514946Y1049439D1*
X1512349Y1042940D1*
X1509403Y1036591D1*
X1506116Y1030411D1*
X1502499Y1024419D1*
X1498562Y1018632D1*
X1494317Y1013067D1*
X1489776Y1007741D1*
X1487007Y1004772D1*
X1700967Y1004780D1*
X1695227Y1011190D1*
X1690878Y1016673D1*
X1686833Y1022385D1*
X1683103Y1028308D1*
X1679701Y1034424D1*
X1676635Y1040716D1*
X1673916Y1047166D1*
X1671551Y1053753D1*
X1669547Y1060459D1*
X1667910Y1067264D1*
X1666644Y1074148D1*
X1665754Y1081090D1*
X1665568Y1083229D1*
X1522439Y1083220D1*
X2322439Y1083226D2*
X2321708Y1076554D1*
X2320572Y1069647D1*
X2319064Y1062813D1*
X2317186Y1056070D1*
X2314946Y1049439D1*
X2312349Y1042940D1*
X2309403Y1036591D1*
X2306116Y1030411D1*
X2302499Y1024419D1*
X2298562Y1018632D1*
X2294317Y1013067D1*
X2289776Y1007741D1*
X2287007Y1004772D1*
X2500982Y1004780D1*
X2497512Y1008538D1*
X2493016Y1013902D1*
X2488817Y1019502D1*
X2484928Y1025321D1*
X2481360Y1031343D1*
X2478125Y1037549D1*
X2475232Y1043922D1*
X2472689Y1050443D1*
X2470503Y1057092D1*
X2468682Y1063850D1*
X2467230Y1070697D1*
X2466152Y1077613D1*
X2465568Y1083229D1*
X2322454Y1083220D1*
X2100996Y1004777D2*
X2097512Y1008538D1*
X2093016Y1013902D1*
X2088817Y1019502D1*
X2084928Y1025321D1*
X2081360Y1031343D1*
X2078125Y1037549D1*
X2075232Y1043922D1*
X2072689Y1050443D1*
X2070503Y1057092D1*
X2068682Y1063850D1*
X2067230Y1070697D1*
X2066152Y1077613D1*
X2065451Y1084577D1*
X2065129Y1091569D1*
X2065187Y1098568D1*
X2065625Y1105553D1*
X2066441Y1112504D1*
X2067634Y1119401D1*
X2069199Y1126223D1*
X2071132Y1132950D1*
X2073428Y1139562D1*
X2076079Y1146040D1*
X2079077Y1152364D1*
X2082415Y1158516D1*
X2086081Y1164478D1*
X2090066Y1170232D1*
X2094357Y1175761D1*
X2098942Y1181050D1*
X2103808Y1186081D1*
X2108939Y1190841D1*
X2114321Y1195316D1*
X2119938Y1199491D1*
X2125774Y1203356D1*
X2131810Y1206898D1*
X2138030Y1210108D1*
X2144415Y1212975D1*
X2150946Y1215491D1*
X2157605Y1217649D1*
X2164370Y1219442D1*
X2171223Y1220865D1*
X2178143Y1221915D1*
X2185110Y1222587D1*
X2192103Y1222880D1*
X2199101Y1222793D1*
X2206996Y1222228D1*
X2236999Y1252197D1*
X2238367Y1253192D1*
X2239875Y1253960D1*
X2241483Y1254482D1*
X2243154Y1254747D1*
X2278972Y1254780D1*
X2544846Y1254747D1*
X2546517Y1254482D1*
X2548125Y1253960D1*
X2549633Y1253192D1*
X2551001Y1252197D1*
X2576397Y1226849D1*
X2581008Y1222237D1*
X2588604Y1222781D1*
X2595603Y1222884D1*
X2602596Y1222607D1*
X2609565Y1221950D1*
X2616487Y1220917D1*
X2623343Y1219509D1*
X2630113Y1217731D1*
X2636776Y1215589D1*
X2643313Y1213087D1*
X2649704Y1210235D1*
X2655932Y1207040D1*
X2661976Y1203512D1*
X2667821Y1199660D1*
X2673447Y1195497D1*
X2678840Y1191035D1*
X2683982Y1186287D1*
X2688858Y1181267D1*
X2693456Y1175989D1*
X2697759Y1170469D1*
X2701757Y1164724D1*
X2705438Y1158771D1*
X2708789Y1152626D1*
X2711802Y1146309D1*
X2714468Y1139837D1*
X2716778Y1133231D1*
X2718727Y1126508D1*
X2720308Y1119690D1*
X2721516Y1112796D1*
X2722348Y1105846D1*
X2722802Y1098862D1*
X2722846Y1090500D1*
X2722466Y1083512D1*
X2721708Y1076554D1*
X2720572Y1069647D1*
X2719064Y1062813D1*
X2717186Y1056070D1*
X2714946Y1049439D1*
X2712349Y1042940D1*
X2709403Y1036591D1*
X2706116Y1030411D1*
X2702499Y1024419D1*
X2698562Y1018632D1*
X2694317Y1013067D1*
X2689776Y1007741D1*
X2687007Y1004772D1*
X2744846Y1004747D1*
X2746517Y1004482D1*
X2748125Y1003959D1*
X2749633Y1003192D1*
X2751001Y1002197D1*
X2752197Y1001001D1*
X2753192Y999633D1*
X2753959Y998125D1*
X2754482Y996517D1*
X2754747Y994846D1*
X2754780Y959028D1*
X2754747Y743154D1*
X2754482Y741483D1*
X2753959Y739875D1*
X2753191Y738367D1*
X2752197Y736999D1*
X2751001Y735803D1*
X2749633Y734809D1*
X2748125Y734041D1*
X2746517Y733518D1*
X2744846Y733253D1*
X2709000Y733220D1*
X2043154Y733253D1*
X2041483Y733518D1*
X2039875Y734041D1*
X2038367Y734809D1*
X2036999Y735803D1*
X2035803Y736999D1*
X2034809Y738367D1*
X2034041Y739875D1*
X2033518Y741483D1*
X2033253Y743154D1*
X2033220Y778972D1*
X2033253Y994846D1*
X2033518Y996517D1*
X2034041Y998125D1*
X2034808Y999633D1*
X2035803Y1001001D1*
X2036999Y1002197D1*
X2038367Y1003192D1*
X2039875Y1003959D1*
X2041483Y1004482D1*
X2043154Y1004747D1*
X2079000Y1004780D1*
X2100971D1*
X2696259Y1490501D2*
X2695781Y1483518D1*
X2694826Y1476585D1*
X2693400Y1469733D1*
X2691508Y1462995D1*
X2689161Y1456402D1*
X2686368Y1449985D1*
X2683143Y1443774D1*
X2679501Y1437797D1*
X2675459Y1432084D1*
X2671036Y1426660D1*
X2666252Y1421551D1*
X2661130Y1416782D1*
X2655695Y1412373D1*
X2649970Y1408347D1*
X2643984Y1404721D1*
X2637764Y1401513D1*
X2631339Y1398738D1*
X2624740Y1396408D1*
X2617997Y1394535D1*
X2611141Y1393127D1*
X2604205Y1392191D1*
X2597222Y1391732D1*
X2590223Y1391751D1*
X2583242Y1392248D1*
X2576311Y1393222D1*
X2569464Y1394667D1*
X2562731Y1396576D1*
X2556144Y1398942D1*
X2549734Y1401752D1*
X2543532Y1404994D1*
X2537565Y1408652D1*
X2531863Y1412710D1*
X2526451Y1417147D1*
X2521356Y1421945D1*
X2516600Y1427079D1*
X2512206Y1432527D1*
X2508195Y1438262D1*
X2504586Y1444258D1*
X2501394Y1450487D1*
X2498637Y1456919D1*
X2496325Y1463525D1*
X2494470Y1470274D1*
X2493081Y1477133D1*
X2492164Y1484071D1*
X2491723Y1491056D1*
X2491761Y1498055D1*
X2492278Y1505034D1*
X2493270Y1511962D1*
X2494734Y1518806D1*
X2496662Y1525534D1*
X2499045Y1532114D1*
X2501873Y1538516D1*
X2505131Y1544710D1*
X2508806Y1550666D1*
X2512879Y1556358D1*
X2517331Y1561757D1*
X2522142Y1566840D1*
X2527290Y1571582D1*
X2532749Y1575961D1*
X2538496Y1579956D1*
X2544501Y1583549D1*
X2550739Y1586723D1*
X2557179Y1589464D1*
X2563791Y1591758D1*
X2570544Y1593594D1*
X2577407Y1594965D1*
X2584348Y1595863D1*
X2591334Y1596284D1*
X2598332Y1596227D1*
X2605310Y1595692D1*
X2612236Y1594681D1*
X2619076Y1593199D1*
X2625798Y1591252D1*
X2632372Y1588851D1*
X2638766Y1586006D1*
X2644951Y1582731D1*
X2650897Y1579040D1*
X2656578Y1574952D1*
X2661965Y1570485D1*
X2667035Y1565659D1*
X2671763Y1560499D1*
X2676127Y1555028D1*
X2680106Y1549271D1*
X2683683Y1543255D1*
X2686841Y1537009D1*
X2689563Y1530562D1*
X2691839Y1523944D1*
X2693657Y1517185D1*
X2695009Y1510319D1*
X2695888Y1503375D1*
X2696291Y1496388D1*
X2696259Y1490501D1*
X696259D2*
X695781Y1483518D1*
X694826Y1476585D1*
X693400Y1469733D1*
X691508Y1462995D1*
X689161Y1456402D1*
X686368Y1449985D1*
X683143Y1443774D1*
X679501Y1437797D1*
X675459Y1432084D1*
X671036Y1426660D1*
X666252Y1421551D1*
X661130Y1416782D1*
X655695Y1412373D1*
X649970Y1408347D1*
X643984Y1404721D1*
X637764Y1401513D1*
X631339Y1398738D1*
X624740Y1396408D1*
X617997Y1394535D1*
X611141Y1393127D1*
X604205Y1392191D1*
X597222Y1391732D1*
X590223Y1391751D1*
X583242Y1392248D1*
X576311Y1393222D1*
X569464Y1394667D1*
X562731Y1396576D1*
X556144Y1398942D1*
X549734Y1401752D1*
X543532Y1404994D1*
X537565Y1408652D1*
X531863Y1412710D1*
X526451Y1417147D1*
X521356Y1421945D1*
X516600Y1427079D1*
X512206Y1432527D1*
X508195Y1438262D1*
X504586Y1444258D1*
X501394Y1450487D1*
X498637Y1456919D1*
X496325Y1463525D1*
X494470Y1470274D1*
X493081Y1477133D1*
X492164Y1484071D1*
X491723Y1491056D1*
X491761Y1498055D1*
X492278Y1505034D1*
X493270Y1511962D1*
X494734Y1518806D1*
X496662Y1525534D1*
X499045Y1532114D1*
X501873Y1538516D1*
X505131Y1544710D1*
X508806Y1550666D1*
X512879Y1556358D1*
X517331Y1561757D1*
X522142Y1566840D1*
X527290Y1571582D1*
X532749Y1575961D1*
X538496Y1579956D1*
X544501Y1583549D1*
X550739Y1586723D1*
X557179Y1589464D1*
X563791Y1591758D1*
X570544Y1593594D1*
X577407Y1594965D1*
X584348Y1595863D1*
X591334Y1596284D1*
X598332Y1596227D1*
X605310Y1595692D1*
X612236Y1594681D1*
X619076Y1593199D1*
X625798Y1591252D1*
X632372Y1588851D1*
X638766Y1586006D1*
X644951Y1582731D1*
X650897Y1579040D1*
X656578Y1574952D1*
X661965Y1570485D1*
X667035Y1565659D1*
X671763Y1560499D1*
X676127Y1555028D1*
X680106Y1549271D1*
X683683Y1543255D1*
X686841Y1537009D1*
X689563Y1530562D1*
X691839Y1523944D1*
X693657Y1517185D1*
X695009Y1510319D1*
X695888Y1503375D1*
X696291Y1496388D1*
X696259Y1490501D1*
X2364744Y4815500D2*
X2364457Y4808507D1*
X2364185Y4804784D1*
X2423818Y4804780D1*
X2423408Y4810982D1*
X2423223Y4817979D1*
X2423325Y4824978D1*
X2423713Y4831966D1*
X2424387Y4838933D1*
X2425347Y4845867D1*
X2426589Y4852755D1*
X2428113Y4859587D1*
X2429915Y4866350D1*
X2431993Y4873034D1*
X2434344Y4879627D1*
X2435761Y4883227D1*
X2352232Y4883220D1*
X2355011Y4875931D1*
X2357209Y4869286D1*
X2359132Y4862556D1*
X2360778Y4855753D1*
X2362144Y4848888D1*
X2363228Y4841973D1*
X2364027Y4835019D1*
X2364541Y4828038D1*
X2364780Y4819000D1*
X2364744Y4815500D1*
X2033219Y4761449D2*
X2030493Y4769691D1*
X2028610Y4776432D1*
X2027005Y4783245D1*
X2025680Y4790118D1*
X2024638Y4797040D1*
X2023880Y4803998D1*
X2023408Y4810982D1*
X2023223Y4817979D1*
X2023325Y4824978D1*
X2023713Y4831966D1*
X2024387Y4838933D1*
X2025347Y4845867D1*
X2026589Y4852755D1*
X2028113Y4859587D1*
X2029915Y4866350D1*
X2031993Y4873034D1*
X2034344Y4879627D1*
X2036873Y4885904D1*
X2035279Y4887664D1*
X2034395Y4889106D1*
X2033747Y4890669D1*
X2033353Y4892314D1*
X2033220Y4894003D1*
X2033253Y5119846D1*
X2033518Y5121517D1*
X2034040Y5123125D1*
X2034808Y5124633D1*
X2035803Y5126001D1*
X2036999Y5127197D1*
X2038367Y5128192D1*
X2039875Y5128960D1*
X2041483Y5129482D1*
X2043154Y5129747D1*
X2079000Y5129780D1*
X2744846Y5129747D1*
X2746517Y5129482D1*
X2748125Y5128960D1*
X2749633Y5128192D1*
X2751001Y5127197D1*
X2752197Y5126001D1*
X2753192Y5124633D1*
X2753960Y5123125D1*
X2754482Y5121517D1*
X2754747Y5119846D1*
X2754780Y5083984D1*
X2754747Y4893154D1*
X2754482Y4891483D1*
X2753960Y4889875D1*
X2753192Y4888367D1*
X2752197Y4886999D1*
X2751209Y4885717D1*
X2753811Y4879219D1*
X2756144Y4872620D1*
X2758205Y4865931D1*
X2759990Y4859163D1*
X2761497Y4852327D1*
X2762722Y4845436D1*
X2763663Y4838500D1*
X2764320Y4831531D1*
X2764690Y4824541D1*
X2764744Y4815500D1*
X2764457Y4808507D1*
X2763884Y4801531D1*
X2763026Y4794584D1*
X2761883Y4787678D1*
X2760459Y4780825D1*
X2758755Y4774036D1*
X2756774Y4767323D1*
X2754778Y4761432D1*
X2754747Y4543154D1*
X2754482Y4541483D1*
X2753959Y4539875D1*
X2753191Y4538367D1*
X2752197Y4536999D1*
X2751001Y4535803D1*
X2749633Y4534809D1*
X2748125Y4534041D1*
X2746517Y4533518D1*
X2744846Y4533253D1*
X2709000Y4533220D1*
X2043154Y4533253D1*
X2041483Y4533518D1*
X2039875Y4534041D1*
X2038367Y4534809D1*
X2036999Y4535803D1*
X2035803Y4536999D1*
X2034809Y4538367D1*
X2034041Y4539875D1*
X2033518Y4541483D1*
X2033253Y4543154D1*
X2033220Y4578972D1*
Y4761423D1*
X1964744Y4815500D2*
X1964457Y4808507D1*
X1963884Y4801531D1*
X1963026Y4794584D1*
X1961883Y4787678D1*
X1960459Y4780825D1*
X1958755Y4774036D1*
X1956774Y4767323D1*
X1954778Y4761432D1*
X1954747Y4543154D1*
X1954482Y4541483D1*
X1953960Y4539875D1*
X1953192Y4538367D1*
X1952197Y4536999D1*
X1951001Y4535803D1*
X1949633Y4534808D1*
X1948125Y4534040D1*
X1946517Y4533518D1*
X1944846Y4533253D1*
X1909012Y4533220D1*
X443154Y4533253D1*
X441483Y4533518D1*
X439875Y4534040D1*
X438367Y4534808D1*
X436999Y4535803D1*
X435803Y4536999D1*
X434808Y4538367D1*
X434040Y4539875D1*
X433518Y4541483D1*
X433253Y4543154D1*
X433220Y4578972D1*
Y4761423D1*
X430493Y4769691D1*
X428610Y4776432D1*
X427005Y4783245D1*
X425680Y4790118D1*
X424638Y4797040D1*
X423880Y4803998D1*
X423408Y4810982D1*
X423223Y4817979D1*
X423325Y4824978D1*
X423713Y4831966D1*
X424387Y4838933D1*
X425347Y4845867D1*
X426589Y4852755D1*
X428113Y4859587D1*
X429915Y4866350D1*
X431993Y4873034D1*
X434344Y4879627D1*
X436873Y4885904D1*
X435279Y4887664D1*
X434395Y4889106D1*
X433747Y4890669D1*
X433353Y4892314D1*
X433220Y4894000D1*
X433253Y5119846D1*
X433518Y5121517D1*
X434040Y5123125D1*
X434808Y5124633D1*
X435803Y5126001D1*
X436999Y5127197D1*
X438367Y5128192D1*
X439875Y5128960D1*
X441483Y5129482D1*
X443154Y5129747D1*
X478988Y5129780D1*
X1944846Y5129747D1*
X1946517Y5129482D1*
X1948125Y5128960D1*
X1949633Y5128192D1*
X1951001Y5127197D1*
X1952197Y5126001D1*
X1953192Y5124633D1*
X1953960Y5123125D1*
X1954482Y5121517D1*
X1954747Y5119846D1*
X1954780Y5083984D1*
X1954747Y4893154D1*
X1954482Y4891483D1*
X1953960Y4889875D1*
X1953192Y4888367D1*
X1952197Y4886999D1*
X1951209Y4885717D1*
X1953811Y4879219D1*
X1956144Y4872620D1*
X1958205Y4865931D1*
X1959990Y4859163D1*
X1961497Y4852327D1*
X1962722Y4845436D1*
X1963663Y4838500D1*
X1964320Y4831531D1*
X1964690Y4824541D1*
X1964744Y4815500D1*
X1623820Y4804775D2*
X1623408Y4810982D1*
X1623223Y4817979D1*
X1623325Y4824978D1*
X1623713Y4831966D1*
X1624387Y4838933D1*
X1625347Y4845867D1*
X1626589Y4852755D1*
X1628113Y4859587D1*
X1629915Y4866350D1*
X1631993Y4873034D1*
X1634344Y4879627D1*
X1635761Y4883227D1*
X1552244Y4883220D1*
X1555011Y4875931D1*
X1557209Y4869286D1*
X1559132Y4862556D1*
X1560778Y4855753D1*
X1562144Y4848888D1*
X1563228Y4841973D1*
X1564027Y4835019D1*
X1564541Y4828038D1*
X1564780Y4819000D1*
X1564637Y4812002D1*
X1564185Y4804784D1*
X1623803Y4804780D1*
X1223820Y4804775D2*
X1223408Y4810982D1*
X1223223Y4817979D1*
X1223325Y4824978D1*
X1223713Y4831966D1*
X1224387Y4838933D1*
X1225347Y4845867D1*
X1226589Y4852755D1*
X1228113Y4859587D1*
X1229915Y4866350D1*
X1231993Y4873034D1*
X1234344Y4879627D1*
X1235761Y4883227D1*
X1152232Y4883220D1*
X1155011Y4875931D1*
X1157209Y4869286D1*
X1159132Y4862556D1*
X1160778Y4855753D1*
X1162144Y4848888D1*
X1163228Y4841973D1*
X1164027Y4835019D1*
X1164541Y4828038D1*
X1164780Y4819000D1*
X1164637Y4812002D1*
X1164185Y4804784D1*
X1223818Y4804780D1*
X823820Y4804775D2*
X823408Y4810982D1*
X823223Y4817979D1*
X823325Y4824978D1*
X823713Y4831966D1*
X824387Y4838933D1*
X825347Y4845867D1*
X826589Y4852755D1*
X828113Y4859587D1*
X829915Y4866350D1*
X831993Y4873034D1*
X834344Y4879627D1*
X835761Y4883227D1*
X752248Y4883220D1*
X755011Y4875931D1*
X757209Y4869286D1*
X759132Y4862556D1*
X760778Y4855753D1*
X762144Y4848888D1*
X763228Y4841973D1*
X764027Y4835019D1*
X764541Y4828038D1*
X764780Y4819000D1*
X764637Y4812002D1*
X764185Y4804784D1*
X823807Y4804780D1*
X2764744Y4334250D2*
X2764457Y4327256D1*
X2763884Y4320280D1*
X2763026Y4313333D1*
X2761883Y4306428D1*
X2760459Y4299575D1*
X2758755Y4292786D1*
X2756774Y4286072D1*
X2754778Y4280181D1*
X2754747Y4043154D1*
X2754482Y4041483D1*
X2753959Y4039875D1*
X2753192Y4038367D1*
X2752197Y4036999D1*
X2751001Y4035803D1*
X2749633Y4034808D1*
X2748125Y4034041D1*
X2746517Y4033518D1*
X2744846Y4033253D1*
X2709012Y4033220D1*
X2443154Y4033253D1*
X2441483Y4033518D1*
X2439875Y4034041D1*
X2438367Y4034808D1*
X2436999Y4035803D1*
X2435803Y4036999D1*
X2434808Y4038367D1*
X2434041Y4039875D1*
X2433518Y4041483D1*
X2433253Y4043154D1*
X2433220Y4078988D1*
Y4280170D1*
X2430493Y4288440D1*
X2428610Y4295182D1*
X2427005Y4301995D1*
X2425680Y4308868D1*
X2424638Y4315789D1*
X2423880Y4322748D1*
X2423408Y4329731D1*
X2423223Y4336728D1*
X2423325Y4343727D1*
X2423713Y4350716D1*
X2424387Y4357683D1*
X2425347Y4364616D1*
X2426589Y4371504D1*
X2428113Y4378336D1*
X2429915Y4385100D1*
X2431993Y4391783D1*
X2434344Y4398377D1*
X2436962Y4404868D1*
X2439844Y4411246D1*
X2442985Y4417502D1*
X2446380Y4423623D1*
X2450023Y4429600D1*
X2453908Y4435422D1*
X2458028Y4441081D1*
X2462376Y4446566D1*
X2466946Y4451868D1*
X2471729Y4456978D1*
X2476717Y4461888D1*
X2481902Y4466590D1*
X2487276Y4471075D1*
X2492829Y4475336D1*
X2498552Y4479367D1*
X2504435Y4483159D1*
X2510469Y4486707D1*
X2516643Y4490004D1*
X2522946Y4493046D1*
X2529370Y4495828D1*
X2535902Y4498343D1*
X2542531Y4500589D1*
X2549247Y4502561D1*
X2556038Y4504257D1*
X2562893Y4505672D1*
X2569800Y4506806D1*
X2576748Y4507656D1*
X2583724Y4508220D1*
X2590718Y4508498D1*
X2597718Y4508489D1*
X2604711Y4508193D1*
X2611686Y4507611D1*
X2618632Y4506744D1*
X2625536Y4505592D1*
X2632387Y4504159D1*
X2639174Y4502446D1*
X2645885Y4500457D1*
X2652509Y4498194D1*
X2659034Y4495662D1*
X2665450Y4492864D1*
X2671746Y4489806D1*
X2677912Y4486493D1*
X2683936Y4482929D1*
X2689810Y4479122D1*
X2695522Y4475077D1*
X2701064Y4470802D1*
X2706427Y4466303D1*
X2711600Y4461588D1*
X2716576Y4456665D1*
X2721346Y4451543D1*
X2725901Y4446229D1*
X2730236Y4440733D1*
X2734341Y4435064D1*
X2738211Y4429231D1*
X2741839Y4423245D1*
X2745218Y4417115D1*
X2748343Y4410852D1*
X2751209Y4404466D1*
X2753811Y4397968D1*
X2756144Y4391369D1*
X2758205Y4384680D1*
X2759990Y4377912D1*
X2761497Y4371076D1*
X2762722Y4364185D1*
X2763663Y4357249D1*
X2764320Y4350280D1*
X2764690Y4343291D1*
X2764744Y4334250D1*
X1764744Y2196750D2*
X1764457Y2189756D1*
X1763884Y2182780D1*
X1763026Y2175833D1*
X1761883Y2168928D1*
X1760459Y2162075D1*
X1758755Y2155286D1*
X1756774Y2148572D1*
X1754519Y2141946D1*
X1751996Y2135417D1*
X1749206Y2128997D1*
X1746156Y2122697D1*
X1742851Y2116528D1*
X1739295Y2110499D1*
X1735495Y2104620D1*
X1731458Y2098902D1*
X1727189Y2093355D1*
X1722697Y2087987D1*
X1717989Y2082808D1*
X1713072Y2077826D1*
X1707956Y2073049D1*
X1702648Y2068487D1*
X1697157Y2064145D1*
X1691494Y2060032D1*
X1685666Y2056155D1*
X1679685Y2052520D1*
X1673559Y2049133D1*
X1667300Y2046000D1*
X1660918Y2043126D1*
X1654423Y2040516D1*
X1647827Y2038174D1*
X1641140Y2036104D1*
X1634375Y2034311D1*
X1627541Y2032795D1*
X1620651Y2031562D1*
X1613717Y2030611D1*
X1606749Y2029946D1*
X1599760Y2029566D1*
X1592761Y2029474D1*
X1585764Y2029668D1*
X1578781Y2030149D1*
X1571823Y2030915D1*
X1564903Y2031966D1*
X1558032Y2033300D1*
X1551221Y2034914D1*
X1544482Y2036806D1*
X1537826Y2038972D1*
X1531265Y2041409D1*
X1524809Y2044114D1*
X1518469Y2047080D1*
X1512256Y2050304D1*
X1506180Y2053779D1*
X1500252Y2057501D1*
X1494481Y2061462D1*
X1488878Y2065657D1*
X1483451Y2070077D1*
X1478210Y2074717D1*
X1473163Y2079567D1*
X1468319Y2084620D1*
X1463687Y2089867D1*
X1459273Y2095299D1*
X1455086Y2100908D1*
X1451132Y2106684D1*
X1447418Y2112617D1*
X1443950Y2118697D1*
X1440734Y2124914D1*
X1437776Y2131258D1*
X1435080Y2137717D1*
X1432651Y2144282D1*
X1430493Y2150940D1*
X1428610Y2157682D1*
X1427005Y2164495D1*
X1425680Y2171368D1*
X1424638Y2178289D1*
X1423880Y2185248D1*
X1423408Y2192231D1*
X1423223Y2199228D1*
X1423325Y2206227D1*
X1423713Y2213216D1*
X1424387Y2220183D1*
X1425347Y2227116D1*
X1426589Y2234004D1*
X1428113Y2240836D1*
X1429915Y2247600D1*
X1431993Y2254283D1*
X1434344Y2260877D1*
X1436962Y2267368D1*
X1439844Y2273746D1*
X1442985Y2280002D1*
X1446380Y2286123D1*
X1450023Y2292100D1*
X1453908Y2297922D1*
X1458028Y2303581D1*
X1462376Y2309066D1*
X1466946Y2314368D1*
X1471729Y2319478D1*
X1476717Y2324388D1*
X1481902Y2329090D1*
X1487276Y2333575D1*
X1492829Y2337836D1*
X1498552Y2341867D1*
X1504435Y2345659D1*
X1510469Y2349207D1*
X1516643Y2352504D1*
X1522946Y2355546D1*
X1529370Y2358328D1*
X1535902Y2360843D1*
X1542531Y2363089D1*
X1549247Y2365061D1*
X1556038Y2366757D1*
X1562893Y2368172D1*
X1569800Y2369306D1*
X1576748Y2370156D1*
X1583724Y2370720D1*
X1590718Y2370998D1*
X1597718Y2370989D1*
X1604711Y2370693D1*
X1611686Y2370111D1*
X1618632Y2369244D1*
X1625536Y2368092D1*
X1632387Y2366659D1*
X1639174Y2364946D1*
X1645885Y2362957D1*
X1652509Y2360694D1*
X1659034Y2358162D1*
X1665450Y2355364D1*
X1671746Y2352306D1*
X1677912Y2348993D1*
X1683936Y2345429D1*
X1689810Y2341622D1*
X1695522Y2337577D1*
X1701064Y2333302D1*
X1706427Y2328803D1*
X1711600Y2324088D1*
X1716576Y2319165D1*
X1721346Y2314043D1*
X1725901Y2308729D1*
X1730236Y2303233D1*
X1734341Y2297564D1*
X1738211Y2291731D1*
X1741839Y2285745D1*
X1745218Y2279615D1*
X1748343Y2273352D1*
X1751209Y2266966D1*
X1753811Y2260468D1*
X1756144Y2253869D1*
X1758205Y2247180D1*
X1759990Y2240412D1*
X1761497Y2233576D1*
X1762722Y2226685D1*
X1763663Y2219749D1*
X1764320Y2212780D1*
X1764690Y2205791D1*
X1764744Y2196750D1*
X1258237Y2238208D2*
X1255371Y2193526D1*
X1258330Y2149330D1*
X1267032Y2105898D1*
X1281329Y2063974D1*
X1300975Y2024275D1*
X1325636Y1987479D1*
X1354888Y1954218D1*
X1388232Y1925059D1*
X1425096Y1900501D1*
X1464850Y1880966D1*
X1506814Y1866786D1*
X1550270Y1858206D1*
X1594474Y1855371D1*
X1638670Y1858330D1*
X1682102Y1867032D1*
X1724026Y1881329D1*
X1763725Y1900975D1*
X1800520Y1925636D1*
X1833782Y1954888D1*
X1862941Y1988232D1*
X1887499Y2025096D1*
X1907034Y2064850D1*
X1921213Y2106814D1*
X1929794Y2150270D1*
X1932629Y2194474D1*
X1929670Y2238670D1*
X1920968Y2282102D1*
X1906671Y2324026D1*
X1887025Y2363725D1*
X1862364Y2400521D1*
X1833112Y2433782D1*
X1799768Y2462941D1*
X1762904Y2487499D1*
X1723150Y2507034D1*
X1681186Y2521214D1*
X1637730Y2529794D1*
X1593526Y2532629D1*
X1549330Y2529670D1*
X1505898Y2520968D1*
X1463974Y2506671D1*
X1424275Y2487025D1*
X1387480Y2462364D1*
X1354218Y2433112D1*
X1325059Y2399768D1*
X1300501Y2362904D1*
X1280966Y2323150D1*
X1266787Y2281186D1*
X1258238Y2238209D1*
X1907158Y1392638D2*
X1827536Y1365679D1*
X1817459Y1362732D1*
X1807271Y1360192D1*
X1793235Y1357297D1*
X1717420Y1342283D1*
X1707045Y1340676D1*
X1696613Y1339487D1*
X1682319Y1338449D1*
X1605193Y1333460D1*
X1594697Y1333221D1*
X1584199Y1333404D1*
X1569892Y1334241D1*
X1492774Y1339361D1*
X1482336Y1340494D1*
X1471952Y1342046D1*
X1457877Y1344743D1*
X1382088Y1359885D1*
X1371887Y1362371D1*
X1361794Y1365265D1*
X1348191Y1369776D1*
X1275027Y1394682D1*
X1265238Y1398477D1*
X1255609Y1402664D1*
X1242711Y1408912D1*
X1173424Y1443154D1*
X1164214Y1448195D1*
X1155214Y1453603D1*
X1143242Y1461481D1*
X1079017Y1504474D1*
X1070544Y1510674D1*
X1062327Y1517210D1*
X1051485Y1526583D1*
X993421Y1577592D1*
X985830Y1584845D1*
X978537Y1592397D1*
X969011Y1603105D1*
X918102Y1661256D1*
X911522Y1669438D1*
X905277Y1677878D1*
X897231Y1689738D1*
X854347Y1754036D1*
X848892Y1763007D1*
X843802Y1772190D1*
X837372Y1784999D1*
X803248Y1854344D1*
X799010Y1863950D1*
X795162Y1873719D1*
X790460Y1887257D1*
X765679Y1960464D1*
X762732Y1970541D1*
X760192Y1980728D1*
X757296Y1994765D1*
X742283Y2070579D1*
X740676Y2080955D1*
X739487Y2091387D1*
X738449Y2105681D1*
X733573Y2180438D1*
X733238Y2190932D1*
X733326Y2201431D1*
X733788Y2211209D1*
X739361Y2295225D1*
X740494Y2305663D1*
X742046Y2316047D1*
X744743Y2330123D1*
X759885Y2405912D1*
X762371Y2416113D1*
X765265Y2426206D1*
X769776Y2439809D1*
X794681Y2512973D1*
X798477Y2522762D1*
X802664Y2532391D1*
X808912Y2545289D1*
X843154Y2614576D1*
X848195Y2623786D1*
X853603Y2632786D1*
X861480Y2644758D1*
X904474Y2708983D1*
X910674Y2717456D1*
X917210Y2725673D1*
X926583Y2736515D1*
X977592Y2794579D1*
X984844Y2802170D1*
X992397Y2809463D1*
X1003105Y2818989D1*
X1061256Y2869898D1*
X1069438Y2876478D1*
X1077878Y2882723D1*
X1089738Y2890769D1*
X1154036Y2933653D1*
X1163007Y2939108D1*
X1172190Y2944198D1*
X1184998Y2950628D1*
X1254344Y2984752D1*
X1263950Y2988990D1*
X1273719Y2992838D1*
X1287257Y2997540D1*
X1360464Y3022321D1*
X1370541Y3025268D1*
X1380728Y3027808D1*
X1394765Y3030704D1*
X1470579Y3045717D1*
X1480955Y3047324D1*
X1491387Y3048513D1*
X1505681Y3049551D1*
X1580438Y3054427D1*
X1590932Y3054762D1*
X1601431Y3054674D1*
X1611348Y3054203D1*
X1695226Y3048639D1*
X1705664Y3047506D1*
X1716048Y3045954D1*
X1730123Y3043257D1*
X1805912Y3028115D1*
X1816113Y3025629D1*
X1826206Y3022735D1*
X1839809Y3018224D1*
X1912973Y2993318D1*
X1922762Y2989523D1*
X1932391Y2985336D1*
X1945289Y2979088D1*
X2014576Y2944846D1*
X2023786Y2939805D1*
X2032786Y2934397D1*
X2044758Y2926519D1*
X2108983Y2883526D1*
X2117456Y2877326D1*
X2125673Y2870790D1*
X2136515Y2861417D1*
X2194579Y2810408D1*
X2202170Y2803155D1*
X2209463Y2795603D1*
X2218989Y2784895D1*
X2269898Y2726744D1*
X2276478Y2718562D1*
X2282723Y2710122D1*
X2290769Y2698262D1*
X2333653Y2633964D1*
X2339108Y2624993D1*
X2344198Y2615810D1*
X2350628Y2603001D1*
X2384752Y2533656D1*
X2388990Y2524050D1*
X2392838Y2514281D1*
X2397540Y2500743D1*
X2422321Y2427536D1*
X2425268Y2417459D1*
X2427808Y2407272D1*
X2430704Y2393235D1*
X2445717Y2317421D1*
X2447324Y2307045D1*
X2448513Y2296613D1*
X2449551Y2282319D1*
X2454540Y2205193D1*
X2454779Y2194697D1*
X2454596Y2184199D1*
X2453760Y2169892D1*
X2448639Y2092775D1*
X2447506Y2082337D1*
X2445954Y2071953D1*
X2443257Y2057877D1*
X2428115Y1982088D1*
X2425629Y1971887D1*
X2422735Y1961795D1*
X2418224Y1948191D1*
X2393319Y1875027D1*
X2389523Y1865238D1*
X2385336Y1855609D1*
X2379088Y1842711D1*
X2344846Y1773424D1*
X2339805Y1764214D1*
X2334398Y1755214D1*
X2326520Y1743242D1*
X2283526Y1679017D1*
X2277326Y1670544D1*
X2270790Y1662327D1*
X2261417Y1651485D1*
X2210409Y1593421D1*
X2203156Y1585830D1*
X2195603Y1578537D1*
X2184895Y1569011D1*
X2126744Y1518102D1*
X2118562Y1511522D1*
X2110122Y1505277D1*
X2098262Y1497231D1*
X2033964Y1454347D1*
X2024993Y1448892D1*
X2015810Y1443802D1*
X2003002Y1437372D1*
X1935801Y1404259D1*
X1926234Y1399934D1*
X1916500Y1395997D1*
X1909914Y1393587D1*
X2778288Y5214498D2*
X418587Y5214531D1*
X416916Y5214796D1*
X415308Y5215319D1*
X413800Y5216087D1*
X412432Y5217081D1*
X411236Y5218277D1*
X410241Y5219646D1*
X409827Y5220387D1*
X409700Y5213802D1*
Y648667D1*
X410710Y650365D1*
X411809Y651652D1*
X413095Y652750D1*
X414538Y653634D1*
X416101Y654281D1*
X417745Y654676D1*
X419435Y654809D1*
X2770279Y654776D1*
X2771950Y654511D1*
X2773558Y653988D1*
X2775066Y653220D1*
X2776434Y652226D1*
X2777630Y651030D1*
X2778156Y650362D1*
X2778300Y651198D1*
Y5214501D1*
X644014Y3954780D2*
X2544846Y3954747D1*
X2546517Y3954482D1*
X2548125Y3953959D1*
X2549633Y3953191D1*
X2551001Y3952197D1*
X2552197Y3951001D1*
X2553191Y3949633D1*
X2553959Y3948125D1*
X2554482Y3946517D1*
X2554747Y3944846D1*
X2554780Y3909000D1*
X2554747Y3243154D1*
X2554482Y3241483D1*
X2553959Y3239875D1*
X2553191Y3238367D1*
X2552197Y3236999D1*
X2551001Y3235803D1*
X2549633Y3234809D1*
X2548125Y3234041D1*
X2546517Y3233518D1*
X2544846Y3233253D1*
X2509007Y3233220D1*
X643154Y3233253D1*
X641483Y3233518D1*
X639875Y3234041D1*
X638367Y3234809D1*
X636999Y3235803D1*
X635803Y3236999D1*
X634809Y3238367D1*
X634041Y3239875D1*
X633518Y3241483D1*
X633253Y3243154D1*
X633220Y3279000D1*
X633253Y3944846D1*
X633518Y3946517D1*
X634041Y3948125D1*
X634809Y3949633D1*
X635803Y3951001D1*
X636999Y3952197D1*
X638367Y3953191D1*
X639875Y3953959D1*
X641483Y3954482D1*
X643154Y3954747D1*
X644003Y3954780D1*
X648207Y3933631D2*
X2539801D1*
X648207Y3926762D2*
X2539801D1*
X648207Y3919894D2*
X2539801D1*
X648207Y3913025D2*
X2539801D1*
X648207Y3906156D2*
X715248D1*
X2473388D2*
X2539801D1*
X648207Y3899287D2*
X703477D1*
X2485160D2*
X2539801D1*
X648207Y3892419D2*
X695287D1*
X2493240D2*
X2539801D1*
X648207Y3885550D2*
X689217D1*
X2499228D2*
X2539801D1*
X648207Y3878681D2*
X684555D1*
X2503822D2*
X2539801D1*
X648207Y3871812D2*
X681028D1*
X730689D2*
X2457988D1*
X2507295D2*
X2539801D1*
X648207Y3864944D2*
X678389D1*
X721721D2*
X2466766D1*
X2509851D2*
X2539801D1*
X648207Y3858075D2*
X676502D1*
X716922D2*
X2471414D1*
X2511656D2*
X2539801D1*
X648207Y3851206D2*
X675313D1*
X714269D2*
X2473903D1*
X2512777D2*
X2539801D1*
X648207Y3844337D2*
X674807D1*
X713285D2*
X2474737D1*
X2513201D2*
X2539801D1*
X648207Y3837469D2*
X674793D1*
X713203D2*
X2474805D1*
X2513201D2*
X2539801D1*
X648207Y3830600D2*
X674793D1*
X713203D2*
X2474805D1*
X2513201D2*
X2539801D1*
X648207Y3823731D2*
X674793D1*
X713203D2*
X2474805D1*
X2513201D2*
X2539801D1*
X648207Y3816862D2*
X674793D1*
X713203D2*
X2474805D1*
X2513201D2*
X2539801D1*
X648207Y3809993D2*
X674793D1*
X713203D2*
X2474805D1*
X2513201D2*
X2539801D1*
X648207Y3803125D2*
X674793D1*
X713203D2*
X2474805D1*
X2513201D2*
X2539801D1*
X648207Y3796256D2*
X674793D1*
X713203D2*
X2474805D1*
X2513201D2*
X2539801D1*
X648207Y3789387D2*
X674793D1*
X713203D2*
X2474805D1*
X2513201D2*
X2539801D1*
X648207Y3782518D2*
X674793D1*
X713203D2*
X2474805D1*
X2513201D2*
X2539801D1*
X648207Y3775650D2*
X674793D1*
X713203D2*
X2474805D1*
X2513201D2*
X2539801D1*
X648207Y3768781D2*
X674793D1*
X713203D2*
X2474805D1*
X2513201D2*
X2539801D1*
X648207Y3761912D2*
X674793D1*
X713203D2*
X2474805D1*
X2513201D2*
X2539801D1*
X648207Y3755043D2*
X674793D1*
X713203D2*
X2474805D1*
X2513201D2*
X2539801D1*
X648207Y3748175D2*
X674793D1*
X713203D2*
X2474805D1*
X2513201D2*
X2539801D1*
X648207Y3741306D2*
X674793D1*
X713203D2*
X2474805D1*
X2513201D2*
X2539801D1*
X648207Y3734437D2*
X674793D1*
X713203D2*
X2474805D1*
X2513201D2*
X2539801D1*
X648207Y3727568D2*
X674793D1*
X713203D2*
X2474805D1*
X2513201D2*
X2539801D1*
X648207Y3720699D2*
X674793D1*
X713203D2*
X2474805D1*
X2513201D2*
X2539801D1*
X648207Y3713831D2*
X674793D1*
X713203D2*
X2474805D1*
X2513201D2*
X2539801D1*
X648207Y3706962D2*
X674793D1*
X713203D2*
X2474805D1*
X2513201D2*
X2539801D1*
X648207Y3700093D2*
X674793D1*
X713203D2*
X2474805D1*
X2513201D2*
X2539801D1*
X648207Y3693224D2*
X674793D1*
X713203D2*
X2474805D1*
X2513201D2*
X2539801D1*
X648207Y3686356D2*
X674793D1*
X713203D2*
X2474805D1*
X2513201D2*
X2539801D1*
X648207Y3679487D2*
X674793D1*
X713203D2*
X2474805D1*
X2513201D2*
X2539801D1*
X648207Y3672618D2*
X674793D1*
X713203D2*
X2474805D1*
X2513201D2*
X2539801D1*
X648207Y3665749D2*
X674793D1*
X713203D2*
X2474805D1*
X2513201D2*
X2539801D1*
X648207Y3658881D2*
X674793D1*
X713203D2*
X2474805D1*
X2513201D2*
X2539801D1*
X648207Y3652012D2*
X674793D1*
X713203D2*
X2474805D1*
X2513201D2*
X2539801D1*
X648207Y3645143D2*
X674793D1*
X713203D2*
X2474805D1*
X2513201D2*
X2539801D1*
X648207Y3638274D2*
X674793D1*
X713203D2*
X2474805D1*
X2513201D2*
X2539801D1*
X648207Y3631406D2*
X674793D1*
X713203D2*
X2474805D1*
X2513201D2*
X2539801D1*
X648207Y3624537D2*
X674793D1*
X713203D2*
X2474805D1*
X2513201D2*
X2539801D1*
X648207Y3617668D2*
X674793D1*
X713203D2*
X2474805D1*
X2513201D2*
X2539801D1*
X648207Y3610799D2*
X674793D1*
X713203D2*
X2474805D1*
X2513201D2*
X2539801D1*
X648207Y3603930D2*
X674793D1*
X713203D2*
X2474805D1*
X2513201D2*
X2539801D1*
X648207Y3597062D2*
X674793D1*
X713203D2*
X2474805D1*
X2513201D2*
X2539801D1*
X648207Y3590193D2*
X674793D1*
X713203D2*
X2474805D1*
X2513201D2*
X2539801D1*
X648207Y3583324D2*
X674793D1*
X713203D2*
X2474805D1*
X2513201D2*
X2539801D1*
X648207Y3576455D2*
X674793D1*
X713203D2*
X2474805D1*
X2513201D2*
X2539801D1*
X648207Y3569587D2*
X674793D1*
X713203D2*
X2474805D1*
X2513201D2*
X2539801D1*
X648207Y3562718D2*
X674793D1*
X713203D2*
X2474805D1*
X2513201D2*
X2539801D1*
X648207Y3555849D2*
X674793D1*
X713203D2*
X2474805D1*
X2513201D2*
X2539801D1*
X648207Y3548980D2*
X674793D1*
X713203D2*
X2474805D1*
X2513201D2*
X2539801D1*
X648207Y3542112D2*
X674793D1*
X713203D2*
X2474805D1*
X2513201D2*
X2539801D1*
X648207Y3535243D2*
X674793D1*
X713203D2*
X2474805D1*
X2513201D2*
X2539801D1*
X648207Y3528374D2*
X674793D1*
X713203D2*
X2474805D1*
X2513201D2*
X2539801D1*
X648207Y3521505D2*
X674793D1*
X713203D2*
X2474805D1*
X2513201D2*
X2539801D1*
X648207Y3514636D2*
X674793D1*
X713203D2*
X2474805D1*
X2513201D2*
X2539801D1*
X648207Y3507768D2*
X674793D1*
X713203D2*
X2474805D1*
X2513201D2*
X2539801D1*
X648207Y3500899D2*
X674793D1*
X713203D2*
X2474805D1*
X2513201D2*
X2539801D1*
X648207Y3494030D2*
X674793D1*
X713203D2*
X2474805D1*
X2513201D2*
X2539801D1*
X648207Y3487161D2*
X674793D1*
X713203D2*
X2474805D1*
X2513201D2*
X2539801D1*
X648207Y3480293D2*
X674793D1*
X713203D2*
X2474805D1*
X2513201D2*
X2539801D1*
X648207Y3473424D2*
X674793D1*
X713203D2*
X2474805D1*
X2513201D2*
X2539801D1*
X648207Y3466555D2*
X674793D1*
X713203D2*
X2474805D1*
X2513201D2*
X2539801D1*
X648207Y3459686D2*
X674793D1*
X713203D2*
X2474805D1*
X2513201D2*
X2539801D1*
X648207Y3452818D2*
X674793D1*
X713203D2*
X2474805D1*
X2513201D2*
X2539801D1*
X648207Y3445949D2*
X674793D1*
X713203D2*
X2474805D1*
X2513201D2*
X2539801D1*
X648207Y3439080D2*
X674793D1*
X713203D2*
X2474805D1*
X2513201D2*
X2539801D1*
X648207Y3432211D2*
X674793D1*
X713203D2*
X2474805D1*
X2513201D2*
X2539801D1*
X648207Y3425343D2*
X674793D1*
X713203D2*
X2474805D1*
X2513201D2*
X2539801D1*
X648207Y3418474D2*
X674793D1*
X713203D2*
X2474805D1*
X2513201D2*
X2539801D1*
X648207Y3411605D2*
X674793D1*
X713203D2*
X2474805D1*
X2513201D2*
X2539801D1*
X648207Y3404736D2*
X674793D1*
X713203D2*
X2474805D1*
X2513201D2*
X2539801D1*
X648207Y3397867D2*
X674793D1*
X713203D2*
X2474805D1*
X2513201D2*
X2539801D1*
X648207Y3390999D2*
X674793D1*
X713203D2*
X2474805D1*
X2513201D2*
X2539801D1*
X648207Y3384130D2*
X674793D1*
X713203D2*
X2474805D1*
X2513201D2*
X2539801D1*
X648207Y3377261D2*
X674793D1*
X713203D2*
X2474805D1*
X2513201D2*
X2539801D1*
X648207Y3370392D2*
X674793D1*
X713203D2*
X2474805D1*
X2513201D2*
X2539801D1*
X648207Y3363524D2*
X674793D1*
X713203D2*
X2474805D1*
X2513201D2*
X2539801D1*
X648207Y3356655D2*
X674793D1*
X713203D2*
X2474805D1*
X2513201D2*
X2539801D1*
X648207Y3349786D2*
X674793D1*
X713203D2*
X2474805D1*
X2513201D2*
X2539801D1*
X648207Y3342917D2*
X674834D1*
X713545D2*
X2474696D1*
X2513174D2*
X2539801D1*
X648207Y3336049D2*
X675504D1*
X714474D2*
X2473738D1*
X2512722D2*
X2539801D1*
X648207Y3329180D2*
X676721D1*
X717181D2*
X2471004D1*
X2511492D2*
X2539801D1*
X648207Y3322311D2*
X678635D1*
X722103D2*
X2466028D1*
X2509578D2*
X2539801D1*
X648207Y3315442D2*
X681301D1*
X731728D2*
X2456334D1*
X2506885D2*
X2539801D1*
X648207Y3308573D2*
X684883D1*
X2503303D2*
X2539801D1*
X648207Y3301705D2*
X689586D1*
X2498586D2*
X2539801D1*
X648207Y3294836D2*
X695766D1*
X2492379D2*
X2539801D1*
X648207Y3287967D2*
X704174D1*
X2483943D2*
X2539801D1*
X648207Y3281098D2*
X716315D1*
X2471721D2*
X2539801D1*
X648207Y3274230D2*
X2539801D1*
X648207Y3267361D2*
X2539801D1*
X648207Y3260492D2*
X2539801D1*
X648207Y3253623D2*
X2539801D1*
X712912Y3341886D2*
X713038Y3339837D1*
X713824Y3335816D1*
X715129Y3331932D1*
X716931Y3328252D1*
X719198Y3324838D1*
X721892Y3321751D1*
X724967Y3319043D1*
X728369Y3316759D1*
X732041Y3314940D1*
X735919Y3313617D1*
X739936Y3312812D1*
X744610Y3312501D1*
X2442635Y3312506D1*
X2447968Y3312820D1*
X2452019Y3313601D1*
X2455932Y3314905D1*
X2459640Y3316712D1*
X2463080Y3318988D1*
X2466192Y3321696D1*
X2468921Y3324789D1*
X2471222Y3328212D1*
X2473055Y3331908D1*
X2474387Y3335812D1*
X2475196Y3339856D1*
X2475500Y3344458D1*
Y3843420D1*
X2475201Y3848157D1*
X2474407Y3852192D1*
X2473092Y3856087D1*
X2471277Y3859776D1*
X2468995Y3863196D1*
X2466285Y3866288D1*
X2463193Y3868998D1*
X2459772Y3871280D1*
X2456082Y3873094D1*
X2452187Y3874409D1*
X2448153Y3875202D1*
X2443411Y3875500D1*
X744733D1*
X740151Y3875136D1*
X736105Y3874282D1*
X732201Y3872918D1*
X728504Y3871065D1*
X725074Y3868754D1*
X721969Y3866023D1*
X719239Y3862916D1*
X716929Y3859486D1*
X715077Y3855788D1*
X713714Y3851884D1*
X712862Y3847837D1*
X712499Y3843258D1*
X712564Y3346588D1*
X712912Y3341886D1*
X676183Y3336358D2*
X675966Y3339870D1*
X675557Y3342549D1*
X675500Y3354472D1*
X675558Y3845465D1*
X676247Y3853407D1*
X678113Y3862096D1*
X681077Y3870474D1*
X685088Y3878404D1*
X690083Y3885755D1*
X695977Y3892407D1*
X702674Y3898249D1*
X710064Y3903185D1*
X718025Y3907135D1*
X725910Y3909889D1*
X733692Y3911587D1*
X735130Y3911831D1*
X743992Y3912500D1*
X2445163Y3912464D1*
X2452668Y3911965D1*
X2460513Y3910480D1*
X2462873Y3909853D1*
X2469991Y3907422D1*
X2477181Y3903950D1*
X2479297Y3902733D1*
X2485540Y3898536D1*
X2491581Y3893316D1*
X2493308Y3891591D1*
X2498247Y3885917D1*
X2502733Y3879297D1*
X2503493Y3878053D1*
X2507241Y3870431D1*
X2509849Y3862885D1*
X2510477Y3860526D1*
X2511904Y3853140D1*
X2512459Y3845227D1*
X2512500Y3823028D1*
X2512468Y3342748D1*
X2511882Y3334751D1*
X2510087Y3325942D1*
X2507153Y3317444D1*
X2503131Y3309404D1*
X2498090Y3301961D1*
X2492116Y3295242D1*
X2485313Y3289364D1*
X2477799Y3284429D1*
X2469703Y3280521D1*
X2461164Y3277708D1*
X2452330Y3276039D1*
X2444000Y3275500D1*
X743994D1*
X734805Y3276131D1*
X726035Y3277921D1*
X717575Y3280843D1*
X709569Y3284846D1*
X702156Y3289861D1*
X695462Y3295803D1*
X689602Y3302569D1*
X684677Y3310043D1*
X680771Y3318096D1*
X677953Y3326591D1*
X676269Y3335382D1*
X2540494Y3940500D2*
X647513D1*
X647500Y3247514D1*
X2540487Y3247500D1*
X2540500Y3940486D1*
X2448207Y4244337D2*
X2450344D1*
X2737668D2*
X2739800D1*
X2448207Y4237469D2*
X2455065D1*
X2732937D2*
X2739795D1*
X2448207Y4230600D2*
X2460315D1*
X2727687D2*
X2739795D1*
X2448207Y4223731D2*
X2466153D1*
X2721849D2*
X2739795D1*
X2448207Y4216862D2*
X2472674D1*
X2715328D2*
X2739795D1*
X2448207Y4209993D2*
X2479961D1*
X2708027D2*
X2739795D1*
X2448207Y4203125D2*
X2488219D1*
X2699783D2*
X2739795D1*
X2448207Y4196256D2*
X2497666D1*
X2690336D2*
X2739795D1*
X2448207Y4189387D2*
X2508713D1*
X2679289D2*
X2739795D1*
X2448207Y4182518D2*
X2522098D1*
X2665904D2*
X2739795D1*
X2448207Y4175650D2*
X2539543D1*
X2648459D2*
X2739795D1*
X2448207Y4168781D2*
X2568487D1*
X2619502D2*
X2739795D1*
X2448207Y4161912D2*
X2739795D1*
X2448207Y4155043D2*
X2739795D1*
X2448207Y4148175D2*
X2739795D1*
X2448207Y4141306D2*
X2739795D1*
X2448207Y4134437D2*
X2739795D1*
X2448207Y4127568D2*
X2739795D1*
X2448207Y4120699D2*
X2739795D1*
X2448207Y4113831D2*
X2739795D1*
X2448207Y4106962D2*
X2739795D1*
X2448207Y4100093D2*
X2739795D1*
X2448207Y4093224D2*
X2739795D1*
X2448207Y4086356D2*
X2739795D1*
X2448207Y4079487D2*
X2739795D1*
X2448207Y4072618D2*
X2739795D1*
X2448207Y4065749D2*
X2739795D1*
X2448207Y4058881D2*
X2739795D1*
X2448207Y4052012D2*
X2739795D1*
X2740503Y4250000D2*
X2737425Y4245040D1*
X2733506Y4239241D1*
X2729352Y4233607D1*
X2724971Y4228148D1*
X2720370Y4222873D1*
X2715556Y4217792D1*
X2710539Y4212911D1*
X2705325Y4208241D1*
X2699925Y4203788D1*
X2694347Y4199560D1*
X2688600Y4195564D1*
X2682694Y4191807D1*
X2676639Y4188295D1*
X2670446Y4185034D1*
X2664124Y4182030D1*
X2657684Y4179287D1*
X2651137Y4176811D1*
X2644494Y4174605D1*
X2637767Y4172673D1*
X2630966Y4171018D1*
X2624102Y4169643D1*
X2617189Y4168551D1*
X2610236Y4167743D1*
X2603256Y4167220D1*
X2596261Y4166984D1*
X2589261Y4167035D1*
X2582270Y4167373D1*
X2575298Y4167996D1*
X2568358Y4168905D1*
X2561461Y4170098D1*
X2554618Y4171572D1*
X2547842Y4173325D1*
X2541143Y4175355D1*
X2534533Y4177657D1*
X2528023Y4180228D1*
X2521624Y4183064D1*
X2515346Y4186160D1*
X2509200Y4189510D1*
X2503197Y4193110D1*
X2497346Y4196952D1*
X2491658Y4201031D1*
X2486142Y4205339D1*
X2480807Y4209870D1*
X2475662Y4214616D1*
X2470715Y4219568D1*
X2465976Y4224720D1*
X2461452Y4230060D1*
X2457151Y4235582D1*
X2453079Y4241276D1*
X2449244Y4247131D1*
X2447496Y4249989D1*
X2447500Y4047510D1*
X2740490Y4047500D1*
X2740500Y4249983D1*
X761771Y4783631D2*
X826229D1*
X1161783D2*
X1226227D1*
X1561781D2*
X1626225D1*
X760172Y4776762D2*
X827828D1*
X1160170D2*
X1227826D1*
X1560168D2*
X1627824D1*
X758271Y4769894D2*
X829729D1*
X1158269D2*
X1229727D1*
X1558267D2*
X1629738D1*
X756043Y4763025D2*
X831957D1*
X1156041D2*
X1231955D1*
X1556053D2*
X1631953D1*
X753500Y4756156D2*
X834500D1*
X1153498D2*
X1234498D1*
X1553496D2*
X1634496D1*
X750601Y4749287D2*
X837399D1*
X1150599D2*
X1237397D1*
X1550597D2*
X1637395D1*
X747347Y4742419D2*
X840653D1*
X1147346D2*
X1240651D1*
X1547344D2*
X1640649D1*
X743697Y4735550D2*
X844303D1*
X1143709D2*
X1244301D1*
X1543707D2*
X1644299D1*
X739637Y4728681D2*
X848363D1*
X1139648D2*
X1248362D1*
X1539646D2*
X1648360D1*
X448207Y4721812D2*
X452858D1*
X735125D2*
X852875D1*
X1135123D2*
X1252873D1*
X1535135D2*
X1652871D1*
X1935133D2*
X1939803D1*
X448207Y4714944D2*
X457881D1*
X730121D2*
X857879D1*
X1130119D2*
X1257877D1*
X1530117D2*
X1657875D1*
X1930115D2*
X1939803D1*
X448207Y4708075D2*
X463446D1*
X724556D2*
X863444D1*
X1124554D2*
X1263455D1*
X1524553D2*
X1663453D1*
X1924551D2*
X1939803D1*
X448207Y4701206D2*
X469639D1*
X718349D2*
X869651D1*
X1118361D2*
X1269649D1*
X1518359D2*
X1669647D1*
X1918357D2*
X1939803D1*
X448207Y4694337D2*
X476571D1*
X711431D2*
X876569D1*
X1111429D2*
X1276580D1*
X1511428D2*
X1676578D1*
X1911426D2*
X1939803D1*
X448207Y4687469D2*
X484377D1*
X703625D2*
X884375D1*
X1103623D2*
X1284373D1*
X1503635D2*
X1684371D1*
X1903633D2*
X1939803D1*
X448207Y4680600D2*
X493250D1*
X694752D2*
X893248D1*
X1094750D2*
X1293246D1*
X1494762D2*
X1693244D1*
X1894760D2*
X1939803D1*
X448207Y4673731D2*
X503504D1*
X684498D2*
X903502D1*
X1084496D2*
X1303514D1*
X1484494D2*
X1703512D1*
X1884492D2*
X1939803D1*
X448207Y4666862D2*
X515713D1*
X672289D2*
X915711D1*
X1072287D2*
X1315709D1*
X1472285D2*
X1715707D1*
X1872283D2*
X1939803D1*
X448207Y4659993D2*
X530985D1*
X657017D2*
X930983D1*
X1057015D2*
X1330994D1*
X1457013D2*
X1730992D1*
X1857012D2*
X1939803D1*
X448207Y4653125D2*
X552668D1*
X635334D2*
X952666D1*
X1035332D2*
X1352664D1*
X1435330D2*
X1752662D1*
X1835328D2*
X1939803D1*
X448207Y4646256D2*
X1939803D1*
X448207Y4639387D2*
X1939803D1*
X448207Y4632518D2*
X1939803D1*
X448207Y4625650D2*
X1939803D1*
X448207Y4618781D2*
X1939803D1*
X448207Y4611912D2*
X1939803D1*
X448207Y4605043D2*
X1939803D1*
X448207Y4598175D2*
X1939803D1*
X448207Y4591306D2*
X1939803D1*
X448207Y4584437D2*
X1939803D1*
X448207Y4577568D2*
X1939803D1*
X448207Y4570699D2*
X1939803D1*
X448207Y4563831D2*
X1939803D1*
X448207Y4556962D2*
X1939803D1*
X448207Y4550093D2*
X1939803D1*
X1940503Y4731251D2*
X1937425Y4726291D1*
X1933506Y4720491D1*
X1929352Y4714858D1*
X1924971Y4709399D1*
X1920370Y4704124D1*
X1915556Y4699042D1*
X1910539Y4694162D1*
X1905325Y4689491D1*
X1899925Y4685038D1*
X1894347Y4680810D1*
X1888600Y4676815D1*
X1882694Y4673058D1*
X1876639Y4669546D1*
X1870446Y4666285D1*
X1864124Y4663281D1*
X1857684Y4660538D1*
X1851137Y4658062D1*
X1844494Y4655855D1*
X1837767Y4653923D1*
X1830966Y4652269D1*
X1824102Y4650894D1*
X1817189Y4649802D1*
X1810236Y4648994D1*
X1803256Y4648471D1*
X1796261Y4648235D1*
X1789261Y4648286D1*
X1782270Y4648623D1*
X1775298Y4649247D1*
X1768358Y4650156D1*
X1761461Y4651349D1*
X1754618Y4652823D1*
X1747842Y4654576D1*
X1741143Y4656606D1*
X1734533Y4658908D1*
X1728023Y4661479D1*
X1721624Y4664315D1*
X1715346Y4667411D1*
X1709200Y4670761D1*
X1703197Y4674360D1*
X1697346Y4678203D1*
X1691658Y4682281D1*
X1686142Y4686590D1*
X1680807Y4691121D1*
X1675662Y4695867D1*
X1670715Y4700819D1*
X1665976Y4705970D1*
X1661452Y4711311D1*
X1657151Y4716833D1*
X1653079Y4722526D1*
X1649244Y4728382D1*
X1645653Y4734390D1*
X1642310Y4740540D1*
X1639223Y4746821D1*
X1636395Y4753224D1*
X1633832Y4759738D1*
X1631538Y4766351D1*
X1629517Y4773052D1*
X1627773Y4779831D1*
X1626307Y4786675D1*
X1625617Y4790510D1*
X1562389Y4790500D1*
X1561206Y4784244D1*
X1559641Y4777422D1*
X1557799Y4770670D1*
X1555681Y4763998D1*
X1553291Y4757419D1*
X1550634Y4750944D1*
X1547713Y4744582D1*
X1544535Y4738346D1*
X1541104Y4732246D1*
X1537425Y4726291D1*
X1533506Y4720491D1*
X1529352Y4714858D1*
X1524971Y4709399D1*
X1520370Y4704124D1*
X1515556Y4699042D1*
X1510539Y4694162D1*
X1505325Y4689491D1*
X1499925Y4685038D1*
X1494347Y4680810D1*
X1488600Y4676815D1*
X1482694Y4673058D1*
X1476639Y4669546D1*
X1470446Y4666285D1*
X1464124Y4663281D1*
X1457684Y4660538D1*
X1451137Y4658062D1*
X1444494Y4655855D1*
X1437767Y4653923D1*
X1430966Y4652269D1*
X1424102Y4650894D1*
X1417189Y4649802D1*
X1410236Y4648994D1*
X1403256Y4648471D1*
X1396261Y4648235D1*
X1389261Y4648286D1*
X1382270Y4648623D1*
X1375298Y4649247D1*
X1368358Y4650156D1*
X1361461Y4651349D1*
X1354618Y4652823D1*
X1347842Y4654576D1*
X1341143Y4656606D1*
X1334533Y4658908D1*
X1328023Y4661479D1*
X1321624Y4664315D1*
X1315346Y4667411D1*
X1309200Y4670761D1*
X1303197Y4674360D1*
X1297346Y4678203D1*
X1291658Y4682281D1*
X1286142Y4686590D1*
X1280807Y4691121D1*
X1275662Y4695867D1*
X1270715Y4700819D1*
X1265976Y4705970D1*
X1261452Y4711311D1*
X1257151Y4716833D1*
X1253079Y4722526D1*
X1249244Y4728382D1*
X1245653Y4734390D1*
X1242310Y4740540D1*
X1239223Y4746821D1*
X1236395Y4753224D1*
X1233832Y4759738D1*
X1231538Y4766351D1*
X1229517Y4773052D1*
X1227773Y4779831D1*
X1226307Y4786675D1*
X1225617Y4790510D1*
X1162377Y4790500D1*
X1161206Y4784244D1*
X1159641Y4777422D1*
X1157799Y4770670D1*
X1155681Y4763998D1*
X1153291Y4757419D1*
X1150634Y4750944D1*
X1147713Y4744582D1*
X1144535Y4738346D1*
X1141104Y4732246D1*
X1137425Y4726291D1*
X1133506Y4720491D1*
X1129352Y4714858D1*
X1124971Y4709399D1*
X1120370Y4704124D1*
X1115556Y4699042D1*
X1110539Y4694162D1*
X1105325Y4689491D1*
X1099925Y4685038D1*
X1094347Y4680810D1*
X1088600Y4676815D1*
X1082694Y4673058D1*
X1076639Y4669546D1*
X1070446Y4666285D1*
X1064124Y4663281D1*
X1057684Y4660538D1*
X1051137Y4658062D1*
X1044494Y4655855D1*
X1037767Y4653923D1*
X1030966Y4652269D1*
X1024102Y4650894D1*
X1017189Y4649802D1*
X1010236Y4648994D1*
X1003256Y4648471D1*
X996261Y4648235D1*
X989261Y4648286D1*
X982270Y4648623D1*
X975298Y4649247D1*
X968358Y4650156D1*
X961461Y4651349D1*
X954618Y4652823D1*
X947842Y4654576D1*
X941143Y4656606D1*
X934533Y4658908D1*
X928023Y4661479D1*
X921624Y4664315D1*
X915346Y4667411D1*
X909200Y4670761D1*
X903197Y4674360D1*
X897346Y4678203D1*
X891658Y4682281D1*
X886142Y4686590D1*
X880807Y4691121D1*
X875662Y4695867D1*
X870715Y4700819D1*
X865976Y4705970D1*
X861452Y4711311D1*
X857151Y4716833D1*
X853079Y4722526D1*
X849244Y4728382D1*
X845653Y4734390D1*
X842310Y4740540D1*
X839223Y4746821D1*
X836395Y4753224D1*
X833832Y4759738D1*
X831538Y4766351D1*
X829517Y4773052D1*
X827773Y4779831D1*
X826307Y4786675D1*
X825617Y4790510D1*
X762392Y4790500D1*
X761206Y4784244D1*
X759641Y4777422D1*
X757799Y4770670D1*
X755681Y4763998D1*
X753291Y4757419D1*
X750634Y4750944D1*
X747713Y4744582D1*
X744535Y4738346D1*
X741104Y4732246D1*
X737425Y4726291D1*
X733506Y4720491D1*
X729352Y4714858D1*
X724971Y4709399D1*
X720370Y4704124D1*
X715556Y4699042D1*
X710539Y4694162D1*
X705325Y4689491D1*
X699925Y4685038D1*
X694347Y4680810D1*
X688600Y4676815D1*
X682694Y4673058D1*
X676639Y4669546D1*
X670446Y4666285D1*
X664124Y4663281D1*
X657684Y4660538D1*
X651137Y4658062D1*
X644494Y4655855D1*
X637767Y4653923D1*
X630966Y4652269D1*
X624102Y4650894D1*
X617189Y4649802D1*
X610236Y4648994D1*
X603256Y4648471D1*
X596261Y4648235D1*
X589261Y4648286D1*
X582270Y4648623D1*
X575298Y4649247D1*
X568358Y4650156D1*
X561461Y4651349D1*
X554618Y4652823D1*
X547842Y4654576D1*
X541143Y4656606D1*
X534533Y4658908D1*
X528023Y4661479D1*
X521624Y4664315D1*
X515346Y4667411D1*
X509200Y4670761D1*
X503197Y4674360D1*
X497346Y4678203D1*
X491658Y4682281D1*
X486142Y4686590D1*
X480807Y4691121D1*
X475662Y4695867D1*
X470715Y4700819D1*
X465976Y4705970D1*
X461452Y4711311D1*
X457151Y4716833D1*
X453079Y4722526D1*
X449244Y4728382D1*
X447496Y4731239D1*
X447500Y4547510D1*
X1940498Y4547500D1*
X1940500Y4731236D1*
X448207Y5108631D2*
X1939803D1*
X448207Y5101762D2*
X1939803D1*
X448207Y5094894D2*
X1939803D1*
X448207Y5088025D2*
X1939803D1*
X448207Y5081156D2*
X1939803D1*
X448207Y5074287D2*
X1939803D1*
X448207Y5067419D2*
X1939803D1*
X448207Y5060550D2*
X1939803D1*
X448207Y5053681D2*
X1939803D1*
X448207Y5046812D2*
X1939803D1*
X448207Y5039944D2*
X1939803D1*
X448207Y5033075D2*
X1939803D1*
X448207Y5026206D2*
X1939803D1*
X448207Y5019337D2*
X1939803D1*
X448207Y5012469D2*
X1939803D1*
X448207Y5005600D2*
X1939803D1*
X448207Y4998731D2*
X1939803D1*
X448207Y4991862D2*
X1939803D1*
X448207Y4984993D2*
X553147D1*
X634855D2*
X953145D1*
X1034853D2*
X1353156D1*
X1434851D2*
X1753154D1*
X1834849D2*
X1939803D1*
X448207Y4978125D2*
X531285D1*
X656703D2*
X931297D1*
X1056715D2*
X1331295D1*
X1456713D2*
X1731293D1*
X1856711D2*
X1939803D1*
X448207Y4971256D2*
X515946D1*
X672056D2*
X915944D1*
X1072054D2*
X1315942D1*
X1472053D2*
X1715940D1*
X1872051D2*
X1939803D1*
X448207Y4964387D2*
X503696D1*
X684306D2*
X903694D1*
X1084304D2*
X1303705D1*
X1484303D2*
X1703703D1*
X1884301D2*
X1939803D1*
X448207Y4957518D2*
X493414D1*
X694588D2*
X893412D1*
X1094586D2*
X1293410D1*
X1494597D2*
X1693408D1*
X1894596D2*
X1939803D1*
X448207Y4950650D2*
X484514D1*
X703488D2*
X884512D1*
X1103486D2*
X1284510D1*
X1503484D2*
X1684522D1*
X1903482D2*
X1939803D1*
X448207Y4943781D2*
X476694D1*
X711295D2*
X876705D1*
X1111306D2*
X1276703D1*
X1511304D2*
X1676701D1*
X1911303D2*
X1939803D1*
X448207Y4936912D2*
X469762D1*
X718240D2*
X869760D1*
X1118238D2*
X1269758D1*
X1518236D2*
X1669756D1*
X1918248D2*
X1939803D1*
X448207Y4930043D2*
X463555D1*
X724447D2*
X863553D1*
X1124445D2*
X1263551D1*
X1524457D2*
X1663549D1*
X1924455D2*
X1939803D1*
X448207Y4923175D2*
X457977D1*
X730025D2*
X857975D1*
X1130023D2*
X1257973D1*
X1530021D2*
X1657971D1*
X1930033D2*
X1939803D1*
X448207Y4916306D2*
X452940D1*
X735043D2*
X852957D1*
X1135041D2*
X1252955D1*
X1535053D2*
X1652953D1*
X1935051D2*
X1939803D1*
X739568Y4909437D2*
X848432D1*
X1139566D2*
X1248430D1*
X1539564D2*
X1648428D1*
X743642Y4902568D2*
X844358D1*
X1143640D2*
X1244369D1*
X1543638D2*
X1644367D1*
X1642341Y4897500D2*
X1646380Y4904873D1*
X1650023Y4910850D1*
X1653908Y4916673D1*
X1658028Y4922331D1*
X1662376Y4927816D1*
X1666946Y4933118D1*
X1671729Y4938229D1*
X1676717Y4943139D1*
X1681902Y4947841D1*
X1687276Y4952326D1*
X1692829Y4956587D1*
X1698552Y4960617D1*
X1704435Y4964409D1*
X1710469Y4967957D1*
X1716643Y4971255D1*
X1722946Y4974297D1*
X1729370Y4977078D1*
X1735902Y4979594D1*
X1742531Y4981840D1*
X1749247Y4983812D1*
X1756038Y4985507D1*
X1762893Y4986923D1*
X1769800Y4988057D1*
X1776748Y4988906D1*
X1783724Y4989471D1*
X1790718Y4989748D1*
X1797718Y4989740D1*
X1804711Y4989444D1*
X1811686Y4988862D1*
X1818632Y4987994D1*
X1825536Y4986843D1*
X1832387Y4985410D1*
X1839174Y4983697D1*
X1845885Y4981708D1*
X1852509Y4979445D1*
X1859034Y4976913D1*
X1865450Y4974115D1*
X1871746Y4971057D1*
X1877912Y4967743D1*
X1883936Y4964180D1*
X1889810Y4960373D1*
X1895522Y4956328D1*
X1901064Y4952053D1*
X1906427Y4947554D1*
X1911600Y4942839D1*
X1916576Y4937916D1*
X1921346Y4932793D1*
X1925901Y4927480D1*
X1930236Y4921983D1*
X1934341Y4916314D1*
X1938211Y4910482D1*
X1940494Y4906766D1*
X1940500Y5115486D1*
X447502Y5115500D1*
X447500Y4906783D1*
X451936Y4913781D1*
X455939Y4919523D1*
X460174Y4925096D1*
X464634Y4930491D1*
X469311Y4935698D1*
X474198Y4940709D1*
X479286Y4945516D1*
X484566Y4950111D1*
X490031Y4954485D1*
X495670Y4958631D1*
X501474Y4962543D1*
X507434Y4966214D1*
X513539Y4969638D1*
X519779Y4972808D1*
X526144Y4975721D1*
X532623Y4978370D1*
X539205Y4980751D1*
X545879Y4982860D1*
X552634Y4984694D1*
X559458Y4986250D1*
X566341Y4987525D1*
X573269Y4988517D1*
X580233Y4989224D1*
X587220Y4989645D1*
X594218Y4989780D1*
X601216Y4989627D1*
X608202Y4989188D1*
X615164Y4988464D1*
X622090Y4987454D1*
X628969Y4986162D1*
X635790Y4984588D1*
X642540Y4982737D1*
X649208Y4980610D1*
X655784Y4978212D1*
X662256Y4975547D1*
X668614Y4972618D1*
X674846Y4969432D1*
X680942Y4965993D1*
X686893Y4962307D1*
X692687Y4958380D1*
X698315Y4954219D1*
X703769Y4949831D1*
X709037Y4945223D1*
X714113Y4940403D1*
X718987Y4935379D1*
X723651Y4930160D1*
X728097Y4924754D1*
X732318Y4919170D1*
X736306Y4913418D1*
X740056Y4907507D1*
X743560Y4901448D1*
X745660Y4897502D1*
X842318Y4897500D1*
X846380Y4904873D1*
X850023Y4910850D1*
X853908Y4916673D1*
X858028Y4922331D1*
X862376Y4927816D1*
X866946Y4933118D1*
X871729Y4938229D1*
X876717Y4943139D1*
X881902Y4947841D1*
X887276Y4952326D1*
X892829Y4956587D1*
X898552Y4960617D1*
X904435Y4964409D1*
X910469Y4967957D1*
X916643Y4971255D1*
X922946Y4974297D1*
X929370Y4977078D1*
X935902Y4979594D1*
X942531Y4981840D1*
X949247Y4983812D1*
X956038Y4985507D1*
X962893Y4986923D1*
X969800Y4988057D1*
X976748Y4988906D1*
X983724Y4989471D1*
X990718Y4989748D1*
X997718Y4989740D1*
X1004711Y4989444D1*
X1011686Y4988862D1*
X1018632Y4987994D1*
X1025536Y4986843D1*
X1032387Y4985410D1*
X1039174Y4983697D1*
X1045885Y4981708D1*
X1052509Y4979445D1*
X1059034Y4976913D1*
X1065450Y4974115D1*
X1071746Y4971057D1*
X1077912Y4967743D1*
X1083936Y4964180D1*
X1089810Y4960373D1*
X1095522Y4956328D1*
X1101064Y4952053D1*
X1106427Y4947554D1*
X1111600Y4942839D1*
X1116576Y4937916D1*
X1121346Y4932793D1*
X1125901Y4927480D1*
X1130236Y4921983D1*
X1134341Y4916314D1*
X1138211Y4910482D1*
X1141839Y4904496D1*
X1145660Y4897502D1*
X1242330Y4897500D1*
X1246380Y4904873D1*
X1250023Y4910850D1*
X1253908Y4916673D1*
X1258028Y4922331D1*
X1262376Y4927816D1*
X1266946Y4933118D1*
X1271729Y4938229D1*
X1276717Y4943139D1*
X1281902Y4947841D1*
X1287276Y4952326D1*
X1292829Y4956587D1*
X1298552Y4960617D1*
X1304435Y4964409D1*
X1310469Y4967957D1*
X1316643Y4971255D1*
X1322946Y4974297D1*
X1329370Y4977078D1*
X1335902Y4979594D1*
X1342531Y4981840D1*
X1349247Y4983812D1*
X1356038Y4985507D1*
X1362893Y4986923D1*
X1369800Y4988057D1*
X1376748Y4988906D1*
X1383724Y4989471D1*
X1390718Y4989748D1*
X1397718Y4989740D1*
X1404711Y4989444D1*
X1411686Y4988862D1*
X1418632Y4987994D1*
X1425536Y4986843D1*
X1432387Y4985410D1*
X1439174Y4983697D1*
X1445885Y4981708D1*
X1452509Y4979445D1*
X1459034Y4976913D1*
X1465450Y4974115D1*
X1471746Y4971057D1*
X1477912Y4967743D1*
X1483936Y4964180D1*
X1489810Y4960373D1*
X1495522Y4956328D1*
X1501064Y4952053D1*
X1506427Y4947554D1*
X1511600Y4942839D1*
X1516576Y4937916D1*
X1521346Y4932793D1*
X1525901Y4927480D1*
X1530236Y4921983D1*
X1534341Y4916314D1*
X1538211Y4910482D1*
X1541839Y4904496D1*
X1545660Y4897502D1*
X1642342Y4897500D1*
X2048207Y5108631D2*
X2739793D1*
X2048207Y5101762D2*
X2739793D1*
X2048207Y5094894D2*
X2739793D1*
X2048207Y5088025D2*
X2739793D1*
X2048207Y5081156D2*
X2739793D1*
X2048207Y5074287D2*
X2739793D1*
X2048207Y5067419D2*
X2739793D1*
X2048207Y5060550D2*
X2739793D1*
X2048207Y5053681D2*
X2739793D1*
X2048207Y5046812D2*
X2739793D1*
X2048207Y5039944D2*
X2739793D1*
X2048207Y5033075D2*
X2739793D1*
X2048207Y5026206D2*
X2739793D1*
X2048207Y5019337D2*
X2739793D1*
X2048207Y5012469D2*
X2739793D1*
X2048207Y5005600D2*
X2739793D1*
X2048207Y4998731D2*
X2739793D1*
X2048207Y4991862D2*
X2739793D1*
X2048207Y4984993D2*
X2153147D1*
X2234855D2*
X2553145D1*
X2634853D2*
X2739793D1*
X2048207Y4978125D2*
X2131285D1*
X2256703D2*
X2531297D1*
X2656715D2*
X2739793D1*
X2048207Y4971256D2*
X2115946D1*
X2272056D2*
X2515944D1*
X2672054D2*
X2739793D1*
X2048207Y4964387D2*
X2103696D1*
X2284306D2*
X2503694D1*
X2684304D2*
X2739793D1*
X2048207Y4957518D2*
X2093414D1*
X2294588D2*
X2493412D1*
X2694586D2*
X2739793D1*
X2048207Y4950650D2*
X2084514D1*
X2303488D2*
X2484512D1*
X2703486D2*
X2739793D1*
X2048207Y4943781D2*
X2076694D1*
X2311295D2*
X2476705D1*
X2711306D2*
X2739793D1*
X2048207Y4936912D2*
X2069762D1*
X2318240D2*
X2469760D1*
X2718238D2*
X2739793D1*
X2048207Y4930043D2*
X2063555D1*
X2324447D2*
X2463553D1*
X2724445D2*
X2739793D1*
X2048207Y4923175D2*
X2057977D1*
X2330025D2*
X2457975D1*
X2730023D2*
X2739793D1*
X2048207Y4916306D2*
X2052940D1*
X2335043D2*
X2452957D1*
X2735041D2*
X2739788D1*
X2339568Y4909437D2*
X2448432D1*
X2343642Y4902568D2*
X2444358D1*
X2047507Y4906764D2*
X2051936Y4913781D1*
X2055939Y4919523D1*
X2060174Y4925096D1*
X2064634Y4930491D1*
X2069311Y4935698D1*
X2074198Y4940709D1*
X2079286Y4945516D1*
X2084566Y4950111D1*
X2090031Y4954485D1*
X2095670Y4958631D1*
X2101474Y4962543D1*
X2107434Y4966214D1*
X2113539Y4969638D1*
X2119779Y4972808D1*
X2126144Y4975721D1*
X2132623Y4978370D1*
X2139205Y4980751D1*
X2145879Y4982860D1*
X2152634Y4984694D1*
X2159458Y4986250D1*
X2166341Y4987525D1*
X2173269Y4988517D1*
X2180233Y4989224D1*
X2187220Y4989645D1*
X2194218Y4989780D1*
X2201216Y4989627D1*
X2208202Y4989188D1*
X2215164Y4988464D1*
X2222090Y4987454D1*
X2228969Y4986162D1*
X2235790Y4984588D1*
X2242540Y4982737D1*
X2249208Y4980610D1*
X2255784Y4978212D1*
X2262256Y4975547D1*
X2268614Y4972618D1*
X2274846Y4969432D1*
X2280942Y4965993D1*
X2286893Y4962307D1*
X2292687Y4958380D1*
X2298315Y4954219D1*
X2303769Y4949831D1*
X2309037Y4945223D1*
X2314113Y4940403D1*
X2318987Y4935379D1*
X2323651Y4930160D1*
X2328097Y4924754D1*
X2332318Y4919170D1*
X2336306Y4913418D1*
X2340056Y4907507D1*
X2343560Y4901448D1*
X2345660Y4897502D1*
X2442330Y4897500D1*
X2446380Y4904873D1*
X2450023Y4910850D1*
X2453908Y4916673D1*
X2458028Y4922331D1*
X2462376Y4927816D1*
X2466946Y4933118D1*
X2471729Y4938229D1*
X2476717Y4943139D1*
X2481902Y4947841D1*
X2487276Y4952326D1*
X2492829Y4956587D1*
X2498552Y4960617D1*
X2504435Y4964409D1*
X2510469Y4967957D1*
X2516643Y4971255D1*
X2522946Y4974297D1*
X2529370Y4977078D1*
X2535902Y4979594D1*
X2542531Y4981840D1*
X2549247Y4983812D1*
X2556038Y4985507D1*
X2562893Y4986923D1*
X2569800Y4988057D1*
X2576748Y4988906D1*
X2583724Y4989471D1*
X2590718Y4989748D1*
X2597718Y4989740D1*
X2604711Y4989444D1*
X2611686Y4988862D1*
X2618632Y4987994D1*
X2625536Y4986843D1*
X2632387Y4985410D1*
X2639174Y4983697D1*
X2645885Y4981708D1*
X2652509Y4979445D1*
X2659034Y4976913D1*
X2665450Y4974115D1*
X2671746Y4971057D1*
X2677912Y4967743D1*
X2683936Y4964180D1*
X2689810Y4960373D1*
X2695522Y4956328D1*
X2701064Y4952053D1*
X2706427Y4947554D1*
X2711600Y4942839D1*
X2716576Y4937916D1*
X2721346Y4932793D1*
X2725901Y4927480D1*
X2730236Y4921983D1*
X2734341Y4916314D1*
X2738211Y4910482D1*
X2740494Y4906766D1*
X2740500Y5115486D1*
X2047500Y5115484D1*
Y4906783D1*
X2361771Y4783631D2*
X2426229D1*
X2360172Y4776762D2*
X2427828D1*
X2358271Y4769894D2*
X2429729D1*
X2356043Y4763025D2*
X2431957D1*
X2353500Y4756156D2*
X2434500D1*
X2350601Y4749287D2*
X2437399D1*
X2347347Y4742419D2*
X2440653D1*
X2343697Y4735550D2*
X2444303D1*
X2339637Y4728681D2*
X2448363D1*
X2048207Y4721812D2*
X2052858D1*
X2335125D2*
X2452875D1*
X2735123D2*
X2739788D1*
X2048207Y4714944D2*
X2057881D1*
X2330121D2*
X2457879D1*
X2730119D2*
X2739793D1*
X2048207Y4708075D2*
X2063446D1*
X2324556D2*
X2463444D1*
X2724554D2*
X2739793D1*
X2048207Y4701206D2*
X2069639D1*
X2318349D2*
X2469651D1*
X2718361D2*
X2739793D1*
X2048207Y4694337D2*
X2076571D1*
X2311431D2*
X2476569D1*
X2711429D2*
X2739793D1*
X2048207Y4687469D2*
X2084377D1*
X2303625D2*
X2484375D1*
X2703623D2*
X2739793D1*
X2048207Y4680600D2*
X2093250D1*
X2294752D2*
X2493248D1*
X2694750D2*
X2739793D1*
X2048207Y4673731D2*
X2103504D1*
X2284498D2*
X2503502D1*
X2684496D2*
X2739793D1*
X2048207Y4666862D2*
X2115713D1*
X2272289D2*
X2515711D1*
X2672287D2*
X2739793D1*
X2048207Y4659993D2*
X2130985D1*
X2257017D2*
X2530983D1*
X2657015D2*
X2739793D1*
X2048207Y4653125D2*
X2152668D1*
X2235334D2*
X2552666D1*
X2635332D2*
X2739793D1*
X2048207Y4646256D2*
X2739793D1*
X2048207Y4639387D2*
X2739793D1*
X2048207Y4632518D2*
X2739793D1*
X2048207Y4625650D2*
X2739793D1*
X2048207Y4618781D2*
X2739793D1*
X2048207Y4611912D2*
X2739793D1*
X2048207Y4605043D2*
X2739793D1*
X2048207Y4598175D2*
X2739793D1*
X2048207Y4591306D2*
X2739793D1*
X2048207Y4584437D2*
X2739793D1*
X2048207Y4577568D2*
X2739793D1*
X2048207Y4570699D2*
X2739793D1*
X2048207Y4563831D2*
X2739793D1*
X2048207Y4556962D2*
X2739793D1*
X2048207Y4550093D2*
X2739793D1*
X2362378Y4790492D2*
X2361206Y4784244D1*
X2359641Y4777422D1*
X2357799Y4770670D1*
X2355681Y4763998D1*
X2353291Y4757419D1*
X2350634Y4750944D1*
X2347713Y4744582D1*
X2344535Y4738346D1*
X2341104Y4732246D1*
X2337425Y4726291D1*
X2333506Y4720491D1*
X2329352Y4714858D1*
X2324971Y4709399D1*
X2320370Y4704124D1*
X2315556Y4699042D1*
X2310539Y4694162D1*
X2305325Y4689491D1*
X2299925Y4685038D1*
X2294347Y4680810D1*
X2288600Y4676815D1*
X2282694Y4673058D1*
X2276639Y4669546D1*
X2270446Y4666285D1*
X2264124Y4663281D1*
X2257684Y4660538D1*
X2251137Y4658062D1*
X2244494Y4655855D1*
X2237767Y4653923D1*
X2230966Y4652269D1*
X2224102Y4650894D1*
X2217189Y4649802D1*
X2210236Y4648994D1*
X2203256Y4648471D1*
X2196261Y4648235D1*
X2189261Y4648286D1*
X2182270Y4648623D1*
X2175298Y4649247D1*
X2168358Y4650156D1*
X2161461Y4651349D1*
X2154618Y4652823D1*
X2147842Y4654576D1*
X2141143Y4656606D1*
X2134533Y4658908D1*
X2128023Y4661479D1*
X2121624Y4664315D1*
X2115346Y4667411D1*
X2109200Y4670761D1*
X2103197Y4674360D1*
X2097346Y4678203D1*
X2091658Y4682281D1*
X2086142Y4686590D1*
X2080807Y4691121D1*
X2075662Y4695867D1*
X2070715Y4700819D1*
X2065976Y4705970D1*
X2061452Y4711311D1*
X2057151Y4716833D1*
X2053079Y4722526D1*
X2049244Y4728382D1*
X2047496Y4731239D1*
X2047500Y4547510D1*
X2740486Y4547500D1*
X2740500Y4731236D1*
X2735495Y4723371D1*
X2731458Y4717653D1*
X2727189Y4712106D1*
X2722697Y4706738D1*
X2717989Y4701558D1*
X2713072Y4696576D1*
X2707956Y4691800D1*
X2702648Y4687237D1*
X2697157Y4682896D1*
X2691494Y4678783D1*
X2685666Y4674906D1*
X2679685Y4671271D1*
X2673559Y4667884D1*
X2667300Y4664750D1*
X2660918Y4661876D1*
X2654423Y4659266D1*
X2647827Y4656925D1*
X2641140Y4654855D1*
X2634375Y4653061D1*
X2627541Y4651546D1*
X2620651Y4650312D1*
X2613717Y4649362D1*
X2606749Y4648697D1*
X2599760Y4648317D1*
X2592761Y4648224D1*
X2585764Y4648419D1*
X2578781Y4648899D1*
X2571823Y4649666D1*
X2564903Y4650717D1*
X2558032Y4652051D1*
X2551221Y4653665D1*
X2544482Y4655556D1*
X2537826Y4657723D1*
X2531265Y4660160D1*
X2524809Y4662864D1*
X2518469Y4665831D1*
X2512256Y4669054D1*
X2506180Y4672530D1*
X2500252Y4676251D1*
X2494481Y4680213D1*
X2488878Y4684407D1*
X2483451Y4688828D1*
X2478210Y4693467D1*
X2473163Y4698317D1*
X2468319Y4703370D1*
X2463687Y4708617D1*
X2459273Y4714050D1*
X2455086Y4719659D1*
X2451132Y4725435D1*
X2447418Y4731367D1*
X2443950Y4737448D1*
X2440734Y4743665D1*
X2437776Y4750008D1*
X2435080Y4756468D1*
X2432651Y4763032D1*
X2430493Y4769691D1*
X2428610Y4776432D1*
X2427005Y4783245D1*
X2425617Y4790510D1*
X2362377Y4790500D1*
X448207Y983631D2*
X526719D1*
X661269D2*
X926731D1*
X1061281D2*
X1326729D1*
X1461279D2*
X1726727D1*
X1861277D2*
X1939803D1*
X448207Y976762D2*
X539735D1*
X648267D2*
X939733D1*
X1048265D2*
X1339731D1*
X1448263D2*
X1739742D1*
X1848262D2*
X1939803D1*
X448207Y969894D2*
X558492D1*
X629496D2*
X958504D1*
X1029508D2*
X1358502D1*
X1429506D2*
X1758500D1*
X1829504D2*
X1939803D1*
X448207Y963025D2*
X1939803D1*
X448207Y956156D2*
X1939803D1*
X448207Y949287D2*
X1939803D1*
X448207Y942419D2*
X1939803D1*
X448207Y935550D2*
X1939803D1*
X448207Y928681D2*
X1939803D1*
X448207Y921812D2*
X1939803D1*
X448207Y914944D2*
X1939803D1*
X448207Y908075D2*
X1939803D1*
X448207Y901206D2*
X1939803D1*
X448207Y894337D2*
X1939803D1*
X448207Y887469D2*
X1939803D1*
X448207Y880600D2*
X1939803D1*
X448207Y873731D2*
X1939803D1*
X448207Y866862D2*
X1939803D1*
X448207Y859993D2*
X1939803D1*
X448207Y853125D2*
X1939803D1*
X448207Y846256D2*
X1939803D1*
X448207Y839387D2*
X1939803D1*
X448207Y832518D2*
X1939803D1*
X448207Y825650D2*
X1939803D1*
X448207Y818781D2*
X1939803D1*
X448207Y811912D2*
X1939803D1*
X448207Y805043D2*
X1939803D1*
X448207Y798175D2*
X1939803D1*
X448207Y791306D2*
X1939803D1*
X448207Y784437D2*
X1939803D1*
X448207Y777568D2*
X1939803D1*
X448207Y770699D2*
X1939803D1*
X448207Y763831D2*
X1939803D1*
X448207Y756962D2*
X1939803D1*
X448207Y750093D2*
X1939803D1*
X1070795Y990495D2*
X1066059Y987130D1*
X1060151Y983376D1*
X1054049Y979949D1*
X1047770Y976857D1*
X1041332Y974111D1*
X1034754Y971719D1*
X1028056Y969687D1*
X1021258Y968022D1*
X1014380Y966728D1*
X1007441Y965809D1*
X1000463Y965268D1*
X993466Y965107D1*
X986470Y965326D1*
X979497Y965925D1*
X972566Y966901D1*
X965698Y968252D1*
X958914Y969974D1*
X952234Y972061D1*
X945676Y974508D1*
X939261Y977307D1*
X933007Y980450D1*
X926934Y983929D1*
X921058Y987731D1*
X917203Y990496D1*
X670818Y990500D1*
X666059Y987130D1*
X660151Y983376D1*
X654049Y979949D1*
X647770Y976857D1*
X641332Y974111D1*
X634754Y971719D1*
X628056Y969687D1*
X621258Y968022D1*
X614380Y966728D1*
X607441Y965809D1*
X600463Y965268D1*
X593466Y965107D1*
X586470Y965326D1*
X579497Y965925D1*
X572566Y966901D1*
X565698Y968252D1*
X558914Y969974D1*
X552234Y972061D1*
X545676Y974508D1*
X539261Y977307D1*
X533007Y980450D1*
X526934Y983929D1*
X521058Y987731D1*
X517203Y990496D1*
X447502Y990500D1*
X447500Y747510D1*
X1940498Y747500D1*
X1940500Y990490D1*
X1870826Y990500D1*
X1866059Y987130D1*
X1860151Y983376D1*
X1854049Y979949D1*
X1847770Y976857D1*
X1841332Y974111D1*
X1834754Y971719D1*
X1828056Y969687D1*
X1821258Y968022D1*
X1814380Y966728D1*
X1807441Y965809D1*
X1800463Y965268D1*
X1793466Y965107D1*
X1786470Y965326D1*
X1779497Y965925D1*
X1772566Y966901D1*
X1765698Y968252D1*
X1758914Y969974D1*
X1752234Y972061D1*
X1745676Y974508D1*
X1739261Y977307D1*
X1733007Y980450D1*
X1726934Y983929D1*
X1721058Y987731D1*
X1717203Y990496D1*
X1470814Y990500D1*
X1466059Y987130D1*
X1460151Y983376D1*
X1454049Y979949D1*
X1447770Y976857D1*
X1441332Y974111D1*
X1434754Y971719D1*
X1428056Y969687D1*
X1421258Y968022D1*
X1414380Y966728D1*
X1407441Y965809D1*
X1400463Y965268D1*
X1393466Y965107D1*
X1386470Y965326D1*
X1379497Y965925D1*
X1372566Y966901D1*
X1365698Y968252D1*
X1358914Y969974D1*
X1352234Y972061D1*
X1345676Y974508D1*
X1339261Y977307D1*
X1333007Y980450D1*
X1326934Y983929D1*
X1321058Y987731D1*
X1317203Y990496D1*
X1070830Y990500D1*
X1039283Y1233631D2*
X1348713D1*
X1032406Y1226762D2*
X1355590D1*
X1025543Y1219894D2*
X1362453D1*
X1044164Y1213025D2*
X1343832D1*
X1058219Y1206156D2*
X1329778D1*
X1069047Y1199287D2*
X1318949D1*
X1077933Y1192419D2*
X1310063D1*
X448207Y1185550D2*
X502574D1*
X685428D2*
X902572D1*
X1085426D2*
X1302571D1*
X1485437D2*
X1702569D1*
X1885435D2*
X1939803D1*
X448207Y1178681D2*
X496121D1*
X691867D2*
X896133D1*
X1091879D2*
X1296131D1*
X1491877D2*
X1696129D1*
X1891875D2*
X1939803D1*
X448207Y1171812D2*
X490543D1*
X697459D2*
X890541D1*
X1097457D2*
X1290539D1*
X1497455D2*
X1690537D1*
X1897453D2*
X1939803D1*
X448207Y1164944D2*
X485690D1*
X702312D2*
X885688D1*
X1102310D2*
X1285686D1*
X1502308D2*
X1685684D1*
X1902306D2*
X1939803D1*
X448207Y1158075D2*
X481465D1*
X706537D2*
X881463D1*
X1106535D2*
X1281461D1*
X1506533D2*
X1681459D1*
X1906545D2*
X1939803D1*
X448207Y1151206D2*
X477801D1*
X710201D2*
X877799D1*
X1110199D2*
X1277797D1*
X1510197D2*
X1677795D1*
X1910209D2*
X1939803D1*
X448207Y1144337D2*
X474643D1*
X713359D2*
X874641D1*
X1113357D2*
X1274639D1*
X1513355D2*
X1674637D1*
X1913353D2*
X1939803D1*
X448207Y1137469D2*
X471963D1*
X716039D2*
X871961D1*
X1116037D2*
X1271959D1*
X1516049D2*
X1671957D1*
X1916047D2*
X1939803D1*
X448207Y1130600D2*
X469707D1*
X718295D2*
X869705D1*
X1118293D2*
X1269717D1*
X1518291D2*
X1669715D1*
X1918289D2*
X1939803D1*
X448207Y1123731D2*
X467889D1*
X720113D2*
X867887D1*
X1120111D2*
X1267885D1*
X1520123D2*
X1667883D1*
X1920121D2*
X1939803D1*
X448207Y1116862D2*
X466453D1*
X721549D2*
X866451D1*
X1121547D2*
X1266449D1*
X1521545D2*
X1666447D1*
X1921556D2*
X1939803D1*
X448207Y1109993D2*
X465401D1*
X722601D2*
X865399D1*
X1122599D2*
X1265397D1*
X1522597D2*
X1665408D1*
X1922596D2*
X1939803D1*
X448207Y1103125D2*
X464731D1*
X723271D2*
X864729D1*
X1123269D2*
X1264727D1*
X1523267D2*
X1664725D1*
X1923265D2*
X1939803D1*
X865164Y1097488D2*
X865359Y1102063D1*
X865986Y1109034D1*
X866991Y1115961D1*
X868370Y1122823D1*
X870120Y1129600D1*
X872235Y1136272D1*
X874709Y1142819D1*
X877535Y1149222D1*
X880704Y1155463D1*
X884208Y1161522D1*
X888035Y1167382D1*
X892174Y1173026D1*
X896614Y1178437D1*
X901341Y1183598D1*
X906341Y1188496D1*
X908563Y1190502D1*
X679443Y1190500D1*
X683982Y1186287D1*
X688858Y1181267D1*
X693456Y1175989D1*
X697759Y1170469D1*
X701757Y1164724D1*
X705438Y1158771D1*
X708789Y1152626D1*
X711802Y1146309D1*
X714468Y1139837D1*
X716778Y1133231D1*
X718727Y1126508D1*
X720308Y1119690D1*
X721516Y1112796D1*
X722348Y1105846D1*
X722802Y1098862D1*
X722835Y1097509D1*
X865150Y1097500D1*
X1024232Y1219289D2*
X1030113Y1217731D1*
X1036776Y1215589D1*
X1043313Y1213087D1*
X1049704Y1210235D1*
X1055932Y1207040D1*
X1061976Y1203512D1*
X1067821Y1199660D1*
X1073447Y1195497D1*
X1078840Y1191035D1*
X1083982Y1186287D1*
X1088858Y1181267D1*
X1093456Y1175989D1*
X1097759Y1170469D1*
X1101757Y1164724D1*
X1105438Y1158771D1*
X1108789Y1152626D1*
X1111802Y1146309D1*
X1114468Y1139837D1*
X1116778Y1133231D1*
X1118727Y1126508D1*
X1120308Y1119690D1*
X1121516Y1112796D1*
X1122348Y1105846D1*
X1122802Y1098862D1*
X1122835Y1097509D1*
X1265162Y1097500D1*
X1265625Y1105553D1*
X1266441Y1112504D1*
X1267634Y1119401D1*
X1269199Y1126223D1*
X1271132Y1132950D1*
X1273428Y1139562D1*
X1276079Y1146040D1*
X1279077Y1152364D1*
X1282415Y1158516D1*
X1286081Y1164478D1*
X1290066Y1170232D1*
X1294357Y1175761D1*
X1298942Y1181050D1*
X1303808Y1186081D1*
X1308939Y1190841D1*
X1314321Y1195316D1*
X1319938Y1199491D1*
X1325774Y1203356D1*
X1331810Y1206898D1*
X1338030Y1210108D1*
X1344415Y1212975D1*
X1350946Y1215491D1*
X1357605Y1217649D1*
X1363773Y1219292D1*
X1342554Y1240497D1*
X1045442Y1240500D1*
X1024244Y1219294D1*
X1479440Y1190496D2*
X1483982Y1186287D1*
X1488858Y1181267D1*
X1493456Y1175989D1*
X1497759Y1170469D1*
X1501757Y1164724D1*
X1505438Y1158771D1*
X1508789Y1152626D1*
X1511802Y1146309D1*
X1514468Y1139837D1*
X1516778Y1133231D1*
X1518727Y1126508D1*
X1520308Y1119690D1*
X1521516Y1112796D1*
X1522348Y1105846D1*
X1522802Y1098862D1*
X1522835Y1097509D1*
X1665147Y1097500D1*
X1665625Y1105553D1*
X1666441Y1112504D1*
X1667634Y1119401D1*
X1669199Y1126223D1*
X1671132Y1132950D1*
X1673428Y1139562D1*
X1676079Y1146040D1*
X1679077Y1152364D1*
X1682415Y1158516D1*
X1686081Y1164478D1*
X1690066Y1170232D1*
X1694357Y1175761D1*
X1698942Y1181050D1*
X1703808Y1186081D1*
X1708563Y1190502D1*
X1479435Y1190500D1*
X1879440Y1190496D2*
X1883982Y1186287D1*
X1888858Y1181267D1*
X1893456Y1175989D1*
X1897759Y1170469D1*
X1901757Y1164724D1*
X1905438Y1158771D1*
X1908789Y1152626D1*
X1911802Y1146309D1*
X1914468Y1139837D1*
X1916778Y1133231D1*
X1918727Y1126508D1*
X1920308Y1119690D1*
X1921516Y1112796D1*
X1922348Y1105846D1*
X1922802Y1098862D1*
X1922835Y1097509D1*
X1940498Y1097500D1*
X1940500Y1190507D1*
X1879447Y1190500D1*
X465164Y1097488D2*
X465359Y1102063D1*
X465986Y1109034D1*
X466991Y1115961D1*
X468370Y1122823D1*
X470120Y1129600D1*
X472235Y1136272D1*
X474709Y1142819D1*
X477535Y1149222D1*
X480704Y1155463D1*
X484208Y1161522D1*
X488035Y1167382D1*
X492174Y1173026D1*
X496614Y1178437D1*
X501341Y1183598D1*
X506341Y1188496D1*
X508563Y1190502D1*
X447513Y1190500D1*
X447500Y1097493D1*
X465166Y1097500D1*
X2239277Y1233631D2*
X2548721D1*
X2232414Y1226762D2*
X2555584D1*
X2225537Y1219894D2*
X2562461D1*
X2244158Y1213025D2*
X2543840D1*
X2258213Y1206156D2*
X2529785D1*
X2269054Y1199287D2*
X2518944D1*
X2277928Y1192419D2*
X2510071D1*
X2285433Y1185550D2*
X2502565D1*
X2291873Y1178681D2*
X2496125D1*
X2297451Y1171812D2*
X2490547D1*
X2302318Y1164944D2*
X2485694D1*
X2306543Y1158075D2*
X2481455D1*
X2310207Y1151206D2*
X2477791D1*
X2313351Y1144337D2*
X2474647D1*
X2316045Y1137469D2*
X2471953D1*
X2318287Y1130600D2*
X2469711D1*
X2320119Y1123731D2*
X2467879D1*
X2321554Y1116862D2*
X2466444D1*
X2322594Y1109993D2*
X2465404D1*
X2323277Y1103125D2*
X2464735D1*
X2224232Y1219289D2*
X2230113Y1217731D1*
X2236776Y1215589D1*
X2243313Y1213087D1*
X2249704Y1210235D1*
X2255932Y1207040D1*
X2261976Y1203512D1*
X2267821Y1199660D1*
X2273447Y1195497D1*
X2278840Y1191035D1*
X2283982Y1186287D1*
X2288858Y1181267D1*
X2293456Y1175989D1*
X2297759Y1170469D1*
X2301757Y1164724D1*
X2305438Y1158771D1*
X2308789Y1152626D1*
X2311802Y1146309D1*
X2314468Y1139837D1*
X2316778Y1133231D1*
X2318727Y1126508D1*
X2320308Y1119690D1*
X2321516Y1112796D1*
X2322348Y1105846D1*
X2322802Y1098862D1*
X2322835Y1097509D1*
X2465163Y1097500D1*
X2465359Y1102063D1*
X2465986Y1109034D1*
X2466991Y1115961D1*
X2468370Y1122823D1*
X2470120Y1129600D1*
X2472235Y1136272D1*
X2474709Y1142819D1*
X2477535Y1149222D1*
X2480704Y1155463D1*
X2484208Y1161522D1*
X2488035Y1167382D1*
X2492174Y1173026D1*
X2496614Y1178437D1*
X2501341Y1183598D1*
X2506341Y1188496D1*
X2511600Y1193115D1*
X2517101Y1197442D1*
X2522830Y1201463D1*
X2528768Y1205168D1*
X2534898Y1208545D1*
X2541203Y1211584D1*
X2547664Y1214277D1*
X2554261Y1216615D1*
X2560975Y1218591D1*
X2563773Y1219292D1*
X2542554Y1240497D1*
X2245450Y1240500D1*
X2224244Y1219294D1*
X2048207Y983631D2*
X2126719D1*
X2261269D2*
X2526731D1*
X2661281D2*
X2739793D1*
X2048207Y976762D2*
X2139735D1*
X2248267D2*
X2539733D1*
X2648265D2*
X2739793D1*
X2048207Y969894D2*
X2158492D1*
X2229496D2*
X2558504D1*
X2629508D2*
X2739793D1*
X2048207Y963025D2*
X2739793D1*
X2048207Y956156D2*
X2739793D1*
X2048207Y949287D2*
X2739793D1*
X2048207Y942419D2*
X2739793D1*
X2048207Y935550D2*
X2739793D1*
X2048207Y928681D2*
X2739793D1*
X2048207Y921812D2*
X2739793D1*
X2048207Y914944D2*
X2739793D1*
X2048207Y908075D2*
X2739793D1*
X2048207Y901206D2*
X2739793D1*
X2048207Y894337D2*
X2739793D1*
X2048207Y887469D2*
X2739793D1*
X2048207Y880600D2*
X2739793D1*
X2048207Y873731D2*
X2739793D1*
X2048207Y866862D2*
X2739793D1*
X2048207Y859993D2*
X2739793D1*
X2048207Y853125D2*
X2739793D1*
X2048207Y846256D2*
X2739793D1*
X2048207Y839387D2*
X2739793D1*
X2048207Y832518D2*
X2739793D1*
X2048207Y825650D2*
X2739793D1*
X2048207Y818781D2*
X2739793D1*
X2048207Y811912D2*
X2739793D1*
X2048207Y805043D2*
X2739793D1*
X2048207Y798175D2*
X2739793D1*
X2048207Y791306D2*
X2739793D1*
X2048207Y784437D2*
X2739793D1*
X2048207Y777568D2*
X2739793D1*
X2048207Y770699D2*
X2739793D1*
X2048207Y763831D2*
X2739793D1*
X2048207Y756962D2*
X2739793D1*
X2048207Y750093D2*
X2739793D1*
X2270795Y990495D2*
X2266059Y987130D1*
X2260151Y983376D1*
X2254049Y979949D1*
X2247770Y976857D1*
X2241332Y974111D1*
X2234754Y971719D1*
X2228056Y969687D1*
X2221258Y968022D1*
X2214380Y966728D1*
X2207441Y965809D1*
X2200463Y965268D1*
X2193466Y965107D1*
X2186470Y965326D1*
X2179497Y965925D1*
X2172566Y966901D1*
X2165698Y968252D1*
X2158914Y969974D1*
X2152234Y972061D1*
X2145676Y974508D1*
X2139261Y977307D1*
X2133007Y980450D1*
X2126934Y983929D1*
X2121058Y987731D1*
X2117203Y990496D1*
X2047514Y990500D1*
X2047500Y747510D1*
X2740486Y747500D1*
X2740500Y990490D1*
X2670814Y990500D1*
X2666059Y987130D1*
X2660151Y983376D1*
X2654049Y979949D1*
X2647770Y976857D1*
X2641332Y974111D1*
X2634754Y971719D1*
X2628056Y969687D1*
X2621258Y968022D1*
X2614380Y966728D1*
X2607441Y965809D1*
X2600463Y965268D1*
X2593466Y965107D1*
X2586470Y965326D1*
X2579497Y965925D1*
X2572566Y966901D1*
X2565698Y968252D1*
X2558914Y969974D1*
X2552234Y972061D1*
X2545676Y974508D1*
X2539261Y977307D1*
X2533007Y980450D1*
X2526934Y983929D1*
X2521058Y987731D1*
X2517203Y990496D1*
X2270830Y990500D1*
D18*
X2500213Y512970D3*
X2501441Y5332119D3*
D19*
X2194000Y4819000D3*
X1794000D3*
X1394000D3*
X994000D3*
X2594000Y4337749D3*
Y4819000D3*
X594000D3*
D18*
X700682Y512178D3*
Y5332029D3*
D19*
X1594000Y2200249D3*
X994000Y2194000D2*
D17*
G02X994000Y2194000I600000J0D01*
G01*
M02*
