G04 DipTrace 4.0.0.0*
G04 uTest_PCBpanel.GTS*
%MOIN*%
G04 #@! TF.FileFunction,Soldermask,Top*
G04 #@! TF.Part,Single*
%ADD20C,0.212*%
%ADD21C,0.106299*%
%ADD26C,0.328*%
%ADD28O,0.307213X0.185165*%
%FSLAX26Y26*%
G04*
G70*
G90*
G75*
G01*
G04 TopMask*
%LPD*%
D20*
X994000Y1094000D3*
X1394000D3*
X1794000D3*
X594000D3*
X2194000D3*
X2594000D3*
D21*
Y1494000D3*
X594000D3*
D28*
X2500213Y512970D3*
X2501441Y5332119D3*
D26*
X2194000Y4819000D3*
X1794000D3*
X1394000D3*
X994000D3*
X2594000Y4337749D3*
Y4819000D3*
X594000D3*
D28*
X700682Y512178D3*
Y5332029D3*
D26*
X1594000Y2200249D3*
G36*
X1694000Y4994000D2*
X1894000D1*
X1794000Y5094000D1*
D1*
X1694000Y4994000D1*
G37*
G36*
X1294000D2*
X1494000D1*
X1394000Y5094000D1*
D1*
X1294000Y4994000D1*
G37*
G36*
X2194000D2*
X2294000Y5094000D1*
X2094000D1*
X2194000Y4994000D1*
G37*
G36*
X2594000D2*
X2694000Y5094000D1*
X2494000D1*
X2594000Y4994000D1*
G37*
G36*
X894000D2*
X1094000D1*
X994000Y5094000D1*
D1*
X894000Y4994000D1*
G37*
G36*
X494000D2*
X694000D1*
X594000Y5094000D1*
D1*
X494000Y4994000D1*
G37*
G36*
X1469513Y5403620D2*
Y5393122D1*
X1507571Y5391809D1*
Y5277636D1*
X1519382D1*
Y5391809D1*
X1557440Y5393122D1*
Y5403620D1*
X1469513D1*
G37*
G36*
X1767414Y5394434D2*
X1766101Y5393122D1*
X1763477Y5372124D1*
X1763045Y5370532D1*
X1762164Y5369500D1*
X1755603Y5368187D1*
X1747729Y5366875D1*
X1746416Y5365563D1*
Y5357689D1*
X1763477Y5356376D1*
Y5303883D1*
X1764789Y5296009D1*
X1766101Y5290760D1*
X1767414Y5288135D1*
X1770038Y5284198D1*
X1772663Y5281573D1*
X1777912Y5278949D1*
X1781849Y5277636D1*
X1800222D1*
Y5285510D1*
X1797597Y5286823D1*
X1787099Y5289447D1*
X1783162Y5290760D1*
X1780537Y5292072D1*
X1777912Y5294697D1*
Y5296009D1*
X1776600Y5299946D1*
X1775288Y5301258D1*
Y5356376D1*
X1802847Y5357689D1*
Y5369500D1*
X1775288Y5370812D1*
Y5394434D1*
X1767414D1*
G37*
G36*
X1376338Y5369500D2*
Y5299946D1*
X1377650Y5294697D1*
X1381587Y5286823D1*
X1388149Y5280261D1*
X1393398Y5277636D1*
X1397335Y5276324D1*
X1413083D1*
X1420957Y5278949D1*
X1436705Y5286823D1*
X1437685Y5287665D1*
X1438365Y5287589D1*
X1439330Y5286823D1*
X1441954Y5278949D1*
X1443267Y5277636D1*
X1451141D1*
Y5368187D1*
X1449828Y5369500D1*
X1439330D1*
Y5298634D1*
X1426206Y5292072D1*
X1422269Y5290760D1*
X1417020Y5289447D1*
X1410458Y5288135D1*
X1403897D1*
X1397335Y5289447D1*
X1392086Y5292072D1*
X1390529Y5293547D1*
X1390773Y5294697D1*
X1389461Y5297321D1*
X1388149Y5368187D1*
X1386836Y5369500D1*
X1376338D1*
G37*
G36*
X1577125Y5356376D2*
X1575813Y5355064D1*
X1573188Y5347190D1*
X1571876Y5338004D1*
Y5309132D1*
X1573188Y5299946D1*
X1574500Y5294697D1*
X1575813Y5290760D1*
X1578437Y5285510D1*
X1582374Y5281573D1*
X1586311Y5278949D1*
X1590248Y5277636D1*
X1598122Y5276324D1*
X1611246D1*
X1626994Y5277636D1*
X1636180Y5278949D1*
X1641429Y5280261D1*
X1644054Y5281573D1*
Y5289447D1*
X1629618D1*
X1618245Y5288135D1*
X1606871D1*
X1595498Y5289447D1*
X1591561Y5290760D1*
X1588936Y5292072D1*
X1586311Y5294697D1*
Y5296009D1*
X1584999Y5301258D1*
X1583687Y5302571D1*
Y5315694D1*
X1630931Y5317006D1*
X1634868Y5318319D1*
X1640117Y5320943D1*
X1642742Y5323568D1*
X1645366Y5328817D1*
X1646679Y5334067D1*
Y5344565D1*
X1645366Y5352439D1*
X1644054Y5356376D1*
X1641429Y5361626D1*
X1638805Y5364250D1*
X1630931Y5368187D1*
X1625681Y5369500D1*
X1598122D1*
X1591561Y5368187D1*
X1587624Y5366875D1*
X1583687Y5364250D1*
X1577125Y5357689D1*
Y5356376D1*
X1595498D1*
X1605559Y5357689D1*
X1615620D1*
X1625681Y5356376D1*
X1629618Y5355064D1*
X1633555Y5351127D1*
Y5348502D1*
X1634868Y5347190D1*
Y5334067D1*
X1630931Y5330130D1*
X1615183Y5328817D1*
X1599435D1*
X1583687Y5330130D1*
Y5343253D1*
X1584999Y5344565D1*
X1586311Y5348502D1*
Y5349815D1*
X1591561Y5355064D1*
X1595498Y5356376D1*
X1577125D1*
G37*
G36*
X1676863Y5369500D2*
X1672926Y5368187D1*
X1670301Y5366875D1*
X1665052Y5361626D1*
X1663739Y5359001D1*
X1662427Y5355064D1*
Y5330130D1*
X1663739Y5326193D1*
X1666364Y5322256D1*
X1670301Y5319631D1*
X1674238Y5318319D1*
X1679487Y5317006D1*
X1718857Y5315694D1*
X1721482Y5314382D1*
X1722794Y5313069D1*
Y5309132D1*
X1724107Y5307820D1*
Y5297321D1*
X1722794Y5296009D1*
Y5293384D1*
X1720170Y5290760D1*
X1717545Y5289447D1*
X1666364Y5288135D1*
Y5280261D1*
X1670301Y5278949D1*
X1684737Y5277636D1*
X1704422Y5276324D1*
X1716233D1*
X1722794Y5277636D1*
X1728044Y5280261D1*
X1731981Y5284198D1*
X1733293Y5286823D1*
X1734605Y5290760D1*
Y5314382D1*
X1731981Y5319631D1*
X1729356Y5323568D1*
X1725419Y5326193D1*
X1722794Y5327505D1*
X1718857Y5328817D1*
X1678175Y5330130D1*
X1675550Y5331442D1*
X1674238Y5332754D1*
Y5336691D1*
X1672926Y5338004D1*
Y5351127D1*
X1674238Y5352439D1*
Y5353752D1*
X1676863Y5356376D1*
X1682112Y5357689D1*
X1730668Y5359001D1*
Y5366875D1*
X1725419Y5368187D1*
X1709671Y5369500D1*
X1676863D1*
G37*
M02*
