G04 DipTrace 4.0.0.0*
G04 uTest_PCBpanel.GTO*
%MOIN*%
G04 #@! TF.FileFunction,Legend,Top*
G04 #@! TF.Part,Single*
%FSLAX26Y26*%
G04*
G70*
G90*
G75*
G01*
G04 TopSilk*
%LPD*%
G36*
X2505209Y4148043D2*
Y4142531D1*
X2504290Y4141613D1*
X2502453Y4114054D1*
X2501534Y4099355D1*
X2500616Y4085576D1*
Y4073634D1*
X2507046D1*
X2507965Y4084657D1*
X2510721Y4125996D1*
Y4133345D1*
X2511407Y4133935D1*
X2511883Y4133881D1*
X2512558Y4133345D1*
Y4131508D1*
X2521744Y4103949D1*
X2522663Y4100274D1*
X2530931Y4075471D1*
X2531849Y4073634D1*
X2539199D1*
X2540117Y4076389D1*
X2541036Y4080064D1*
X2544710Y4091088D1*
X2545629Y4094762D1*
X2550222Y4108542D1*
X2551141Y4112216D1*
X2554815Y4123240D1*
X2555734Y4126914D1*
X2557571Y4132426D1*
X2557721Y4133137D1*
X2558285Y4133890D1*
X2558737Y4133868D1*
X2559408Y4133345D1*
Y4124159D1*
X2562164Y4088332D1*
X2563083Y4075471D1*
X2564002Y4073634D1*
X2570432D1*
Y4076389D1*
X2564920Y4148043D1*
X2554815D1*
X2552059Y4139775D1*
X2551141Y4136101D1*
X2547466Y4125077D1*
X2546548Y4121403D1*
X2543792Y4113135D1*
X2542873Y4109460D1*
X2539199Y4098437D1*
X2538280Y4094762D1*
X2536443Y4089250D1*
Y4087413D1*
X2535323Y4086454D1*
X2534260Y4086573D1*
X2533687Y4087413D1*
Y4090169D1*
X2527256Y4109460D1*
X2526338Y4113135D1*
X2519907Y4132426D1*
X2518989Y4136101D1*
X2515314Y4147124D1*
X2514395Y4148043D1*
X2505209D1*
G37*
G36*
X2585130D2*
Y4073634D1*
X2592479D1*
Y4148043D1*
X2585130D1*
G37*
G36*
X2607178Y4140694D2*
Y4073634D1*
X2639330D1*
X2643004Y4074552D1*
X2646679Y4076389D1*
X2649435Y4078227D1*
X2653109Y4081901D1*
X2654947Y4084657D1*
X2658621Y4092006D1*
X2659540Y4095681D1*
X2660458Y4098437D1*
X2661377Y4104867D1*
Y4117728D1*
X2660458Y4124159D1*
X2659540Y4127833D1*
X2657702Y4133345D1*
X2655865Y4137019D1*
X2654028Y4139775D1*
X2650353Y4143450D1*
X2647597Y4145287D1*
X2645760Y4146206D1*
X2643004Y4147124D1*
X2639330Y4148043D1*
X2607178D1*
Y4140694D1*
X2614527D1*
X2622488Y4141613D1*
X2630450D1*
X2638411Y4140694D1*
X2642086Y4139775D1*
X2645760Y4137938D1*
X2650353Y4133345D1*
Y4132426D1*
X2651272Y4130589D1*
X2652191Y4127833D1*
X2653109Y4124159D1*
X2654028Y4116809D1*
X2654947Y4115891D1*
Y4106704D1*
X2654028Y4105786D1*
X2653109Y4098437D1*
X2652191Y4094762D1*
X2649435Y4089250D1*
Y4088332D1*
X2644842Y4083739D1*
X2641167Y4081901D1*
X2632287Y4080983D1*
X2623407D1*
X2614527Y4081901D1*
Y4140694D1*
X2607178D1*
G37*
G36*
X2675157Y4148043D2*
Y4073634D1*
X2682506D1*
Y4148043D1*
X2675157D1*
G37*
G36*
X512164Y4625077D2*
X509540Y4624421D1*
X507571Y4623765D1*
X506259Y4623109D1*
X504290Y4621796D1*
X502978Y4620484D1*
X501666Y4618515D1*
X500353Y4615891D1*
X499697Y4613922D1*
X499041Y4611298D1*
X498385Y4607361D1*
Y4588988D1*
X499041Y4585707D1*
X499697Y4583082D1*
X500353Y4581114D1*
X501666Y4578489D1*
X502978Y4576521D1*
X506259Y4573240D1*
X508884Y4571928D1*
X510852Y4571271D1*
X514133Y4570615D1*
X520038D1*
X527912Y4571271D1*
X531849Y4571928D1*
X533162Y4572584D1*
Y4575865D1*
X511508Y4576521D1*
X508884Y4577833D1*
X506259Y4580458D1*
Y4581114D1*
X504947Y4583739D1*
X504290Y4586363D1*
X503634Y4589644D1*
X502978Y4590300D1*
Y4607361D1*
X503634Y4608017D1*
X504290Y4611298D1*
X504947Y4613922D1*
X505603Y4615235D1*
Y4615891D1*
X507571Y4617859D1*
X510196Y4619172D1*
X513477Y4619828D1*
X515664Y4620484D1*
X517851D1*
X520038Y4619828D1*
X533162D1*
Y4623109D1*
X531849Y4623765D1*
X527256Y4624421D1*
X521351Y4625077D1*
X512164D1*
G37*
G36*
X586968Y4619172D2*
X585655Y4617859D1*
X584343Y4615235D1*
X583687Y4613266D1*
X583031Y4610641D1*
X582374Y4606704D1*
Y4587676D1*
X583031Y4583739D1*
X584343Y4579802D1*
X585655Y4577177D1*
X587624Y4574552D1*
X589592Y4573240D1*
X590905Y4572584D1*
X594842Y4571271D1*
X609933D1*
X612558Y4571928D1*
X616495Y4573896D1*
X619120Y4576521D1*
X620432Y4579145D1*
X621744Y4583082D1*
X622401Y4585707D1*
X623057Y4590956D1*
Y4604080D1*
X622401Y4609329D1*
X621744Y4612610D1*
X620432Y4616547D1*
X619776Y4617859D1*
X618464Y4619828D1*
X616495Y4621796D1*
X614527Y4623109D1*
X612558Y4623765D1*
X609933Y4624421D1*
X604684Y4625077D1*
X600747D1*
X594842Y4624421D1*
X590905Y4623109D1*
X588936Y4621796D1*
X586968Y4619828D1*
Y4619172D1*
X594842D1*
X600091Y4619828D1*
X605340D1*
X610590Y4619172D1*
X613214Y4617859D1*
X615839Y4615235D1*
Y4613922D1*
X616495Y4612610D1*
X617151Y4609985D1*
X617807Y4604080D1*
X618464Y4603424D1*
Y4591613D1*
X617807Y4590956D1*
X617151Y4585707D1*
X616495Y4583082D1*
X615183Y4580458D1*
Y4579802D1*
X613870Y4578489D1*
X611246Y4577177D1*
X608621Y4576521D1*
X604465Y4575865D1*
X600310D1*
X596154Y4576521D1*
X593529Y4577177D1*
X592217Y4577833D1*
X588936Y4581114D1*
Y4581770D1*
X588280Y4583739D1*
X587624Y4587676D1*
X586968Y4588332D1*
Y4606048D1*
X587624Y4606704D1*
X588280Y4611298D1*
X588936Y4613266D1*
X589592Y4614578D1*
Y4615235D1*
X592217Y4617859D1*
X594842Y4619172D1*
X586968D1*
G37*
G36*
X645366Y4625077D2*
X642742Y4624421D1*
X640773Y4623765D1*
X639461Y4623109D1*
X637492Y4621796D1*
X636180Y4620484D1*
X634868Y4618515D1*
X633555Y4615891D1*
X632899Y4613922D1*
X632243Y4611298D1*
X631587Y4607361D1*
Y4588988D1*
X632243Y4585707D1*
X632899Y4583082D1*
X633555Y4581114D1*
X634868Y4578489D1*
X636180Y4576521D1*
X639461Y4573240D1*
X642086Y4571928D1*
X644054Y4571271D1*
X647335Y4570615D1*
X653241D1*
X661115Y4571271D1*
X665052Y4571928D1*
X666364Y4572584D1*
Y4575865D1*
X644710Y4576521D1*
X642086Y4577833D1*
X639461Y4580458D1*
Y4581114D1*
X638149Y4583739D1*
X637492Y4586363D1*
X636836Y4589644D1*
X636180Y4590300D1*
Y4607361D1*
X636836Y4608017D1*
X637492Y4611298D1*
X638149Y4613922D1*
X638805Y4615235D1*
Y4615891D1*
X640773Y4617859D1*
X643398Y4619172D1*
X646679Y4619828D1*
X648866Y4620484D1*
X651053D1*
X653241Y4619828D1*
X666364D1*
Y4623109D1*
X665052Y4623765D1*
X660458Y4624421D1*
X654553Y4625077D1*
X645366D1*
G37*
G36*
X542348Y4624421D2*
Y4578489D1*
X543004Y4575865D1*
X543660Y4574552D1*
X545629Y4572584D1*
X546941Y4571928D1*
X548910Y4571271D1*
X574500D1*
Y4575865D1*
X549566Y4576521D1*
X548254Y4577177D1*
X547597Y4577833D1*
Y4624421D1*
X542348D1*
G37*
G36*
X675550D2*
Y4571271D1*
X680800D1*
Y4594893D1*
X682987Y4595550D1*
X685174D1*
X687361Y4594893D1*
X688674Y4593581D1*
Y4592925D1*
X691298Y4588988D1*
X693267Y4586363D1*
X695891Y4582426D1*
X697860Y4579802D1*
X701797Y4573896D1*
X703765Y4571271D1*
X709671D1*
X709015Y4572584D1*
X702453Y4582426D1*
X700485Y4585051D1*
X695235Y4592925D1*
X693267Y4595550D1*
X691954Y4596862D1*
Y4598830D1*
X693267Y4600143D1*
X695891Y4604080D1*
X697860Y4606704D1*
X701797Y4612610D1*
X703765Y4615235D1*
X709015Y4623109D1*
X709671Y4624421D1*
X703765D1*
X701797Y4621796D1*
X699172Y4617859D1*
X697204Y4615235D1*
X694579Y4611298D1*
X692611Y4608673D1*
X689986Y4604736D1*
X688017Y4602111D1*
X687802Y4601315D1*
X687361Y4600799D1*
X685174Y4600143D1*
X682987D1*
X680800Y4600799D1*
Y4624421D1*
X675550D1*
G37*
G36*
X912427Y4625077D2*
X909146Y4624421D1*
X906521Y4623109D1*
X904553Y4621796D1*
X903241Y4620484D1*
X901928Y4618515D1*
X900616Y4615891D1*
X899960Y4613922D1*
X899304Y4611298D1*
X898647Y4608017D1*
Y4587019D1*
X899304Y4583739D1*
X900616Y4579802D1*
X901928Y4577177D1*
X903241Y4575208D1*
X903897Y4574552D1*
X905865Y4573240D1*
X908490Y4571928D1*
X910458Y4571271D1*
X914395Y4570615D1*
X916364D1*
X920957Y4571271D1*
X923582Y4571928D1*
X926863Y4573240D1*
X928175Y4573896D1*
X928876Y4574334D1*
X929487Y4574552D1*
X930800Y4573240D1*
Y4571928D1*
X931456Y4571271D1*
X934737D1*
Y4598830D1*
X931456Y4599487D1*
X928831D1*
X922926Y4598830D1*
X919645Y4598174D1*
X917676Y4597518D1*
Y4594237D1*
X930143Y4593581D1*
Y4579802D1*
X929487Y4579145D1*
X927519Y4578489D1*
X926206Y4577833D1*
X920957Y4576521D1*
X917676Y4575865D1*
X914395D1*
X911115Y4576521D1*
X909146Y4577177D1*
X905865Y4580458D1*
Y4581114D1*
X905209Y4582426D1*
X904553Y4584395D1*
X903897Y4588332D1*
X903241Y4588988D1*
Y4607361D1*
X903897Y4608017D1*
X904553Y4611298D1*
X905209Y4613922D1*
X905865Y4615235D1*
Y4615891D1*
X908490Y4618515D1*
X910458Y4619172D1*
X913083Y4619828D1*
X915270Y4620484D1*
X917457D1*
X919645Y4619828D1*
X932112Y4619172D1*
X933424D1*
Y4623109D1*
X930800Y4623765D1*
X926206Y4624421D1*
X919645Y4625077D1*
X912427D1*
G37*
G36*
X959671Y4615891D2*
X959015Y4615235D1*
X958359Y4613266D1*
X957702Y4611954D1*
X956390Y4608017D1*
X955734Y4606704D1*
X953765Y4600799D1*
X953109Y4599487D1*
X951141Y4593581D1*
X950485Y4592269D1*
X949172Y4588332D1*
X948516Y4587019D1*
X946548Y4581114D1*
X945891Y4579802D1*
X944579Y4575865D1*
X943923Y4574552D1*
X943267Y4572584D1*
Y4571271D1*
X949172D1*
X951797Y4579145D1*
X952453Y4581770D1*
X953109Y4583739D1*
Y4585051D1*
X953765Y4585707D1*
X961202Y4586363D1*
X968639D1*
X976075Y4585707D1*
Y4584395D1*
X978044Y4578489D1*
X978700Y4575865D1*
X980012Y4571928D1*
X980668Y4571271D1*
X985918D1*
Y4572584D1*
X984605Y4576521D1*
X983949Y4577833D1*
X980668Y4587676D1*
X980012Y4588988D1*
X976075Y4600799D1*
X975419Y4602111D1*
X972138Y4611954D1*
X971482Y4613266D1*
X968201Y4623109D1*
X967545Y4624421D1*
X962296D1*
X960983Y4620484D1*
X960327Y4619172D1*
X959671Y4617203D1*
Y4615891D1*
X964264D1*
X964754Y4616312D1*
X965086Y4616257D1*
X965459Y4615715D1*
X965576Y4615235D1*
X969513Y4603424D1*
X970170Y4602111D1*
X973450Y4592269D1*
X974107Y4591613D1*
X967982Y4590956D1*
X961858D1*
X955734Y4591613D1*
X955862Y4592078D1*
X956390Y4592925D1*
X957046Y4594893D1*
X957702Y4596206D1*
X960983Y4606048D1*
X961639Y4607361D1*
X964264Y4615235D1*
Y4615891D1*
X959671D1*
G37*
G36*
X991823Y4624421D2*
Y4619828D1*
X1007571Y4619172D1*
Y4571271D1*
X1012821D1*
Y4619172D1*
X1028569Y4619828D1*
Y4624421D1*
X991823D1*
G37*
G36*
X1043660D2*
X1041692Y4623765D1*
X1040380Y4623109D1*
X1039067Y4621796D1*
X1037755Y4619172D1*
X1037099Y4616547D1*
Y4578489D1*
X1037755Y4575865D1*
X1039067Y4573240D1*
X1039723Y4572584D1*
X1042348Y4571271D1*
X1056128D1*
X1067939Y4571928D1*
X1069251Y4572584D1*
Y4575865D1*
X1043660Y4576521D1*
X1042348Y4577833D1*
Y4594237D1*
X1048910Y4594893D1*
X1065970Y4595550D1*
Y4599487D1*
X1053503Y4600143D1*
X1042348Y4600799D1*
Y4617859D1*
X1043004Y4618515D1*
X1044317Y4619172D1*
X1069251Y4619828D1*
Y4623109D1*
X1064658Y4623765D1*
X1052191Y4624421D1*
X1043660D1*
G37*
G36*
X1362558Y4625077D2*
X1359933Y4624421D1*
X1357965Y4623765D1*
X1356653Y4623109D1*
X1354684Y4621796D1*
X1353372Y4620484D1*
X1352059Y4618515D1*
X1350747Y4615891D1*
X1350091Y4613922D1*
X1349435Y4611298D1*
X1348779Y4607361D1*
Y4588988D1*
X1349435Y4585707D1*
X1350091Y4583082D1*
X1350747Y4581114D1*
X1352059Y4578489D1*
X1353372Y4576521D1*
X1356653Y4573240D1*
X1359277Y4571928D1*
X1361246Y4571271D1*
X1364527Y4570615D1*
X1370432D1*
X1378306Y4571271D1*
X1382243Y4571928D1*
X1383555Y4572584D1*
Y4575865D1*
X1361902Y4576521D1*
X1359277Y4577833D1*
X1356653Y4580458D1*
Y4581114D1*
X1355340Y4583739D1*
X1354684Y4586363D1*
X1354028Y4589644D1*
X1353372Y4590300D1*
Y4607361D1*
X1354028Y4608017D1*
X1354684Y4611298D1*
X1355340Y4613922D1*
X1355996Y4615235D1*
Y4615891D1*
X1357965Y4617859D1*
X1360590Y4619172D1*
X1363870Y4619828D1*
X1366058Y4620484D1*
X1368245D1*
X1370432Y4619828D1*
X1383555D1*
Y4623109D1*
X1382243Y4623765D1*
X1377650Y4624421D1*
X1371744Y4625077D1*
X1362558D1*
G37*
G36*
X1390773Y4624421D2*
Y4623109D1*
X1392742Y4617203D1*
X1393398Y4615891D1*
X1396679Y4606048D1*
X1397335Y4604736D1*
X1401272Y4592925D1*
X1401928Y4591613D1*
X1405209Y4581770D1*
X1405865Y4580458D1*
X1408490Y4572584D1*
X1409146Y4571271D1*
X1414395D1*
X1416364Y4577177D1*
X1417020Y4578489D1*
X1418332Y4582426D1*
X1418989Y4583739D1*
X1420957Y4589644D1*
X1421613Y4590956D1*
X1422926Y4594893D1*
X1423582Y4596206D1*
X1425550Y4602111D1*
X1426206Y4603424D1*
X1428175Y4609329D1*
X1428831Y4610641D1*
X1430143Y4614578D1*
X1430800Y4615891D1*
X1432768Y4621796D1*
X1433424Y4623109D1*
Y4624421D1*
X1428175D1*
X1426863Y4620484D1*
X1426206Y4619172D1*
X1424238Y4613266D1*
X1423582Y4611954D1*
X1421613Y4606048D1*
X1420957Y4604736D1*
X1418989Y4598830D1*
X1418332Y4597518D1*
X1416364Y4591613D1*
X1415708Y4590300D1*
X1413739Y4584395D1*
X1413083Y4583082D1*
X1412427Y4581114D1*
X1412260Y4580340D1*
X1411732Y4579741D1*
X1411394Y4579850D1*
X1410971Y4580573D1*
X1411115Y4581114D1*
X1410458Y4582426D1*
X1405865Y4596206D1*
X1405209Y4597518D1*
X1401272Y4609329D1*
X1400616Y4610641D1*
X1396023Y4624421D1*
X1390773D1*
G37*
G36*
X1867151Y4619172D2*
X1865839Y4617859D1*
X1864527Y4615235D1*
X1863870Y4613266D1*
X1863214Y4610641D1*
X1862558Y4606704D1*
Y4587676D1*
X1863214Y4583739D1*
X1864527Y4579802D1*
X1865839Y4577177D1*
X1867807Y4574552D1*
X1869776Y4573240D1*
X1871088Y4572584D1*
X1875025Y4571271D1*
X1890117D1*
X1892742Y4571928D1*
X1896679Y4573896D1*
X1899304Y4576521D1*
X1900616Y4579145D1*
X1901928Y4583082D1*
X1902584Y4585707D1*
X1903241Y4590956D1*
Y4604080D1*
X1902584Y4609329D1*
X1901928Y4612610D1*
X1900616Y4616547D1*
X1899960Y4617859D1*
X1898647Y4619828D1*
X1896679Y4621796D1*
X1894710Y4623109D1*
X1892742Y4623765D1*
X1890117Y4624421D1*
X1884868Y4625077D1*
X1880931D1*
X1875025Y4624421D1*
X1871088Y4623109D1*
X1869120Y4621796D1*
X1867151Y4619828D1*
Y4619172D1*
X1875025D1*
X1880275Y4619828D1*
X1885524D1*
X1890773Y4619172D1*
X1893398Y4617859D1*
X1896023Y4615235D1*
Y4613922D1*
X1896679Y4612610D1*
X1897335Y4609985D1*
X1897991Y4604080D1*
X1898647Y4603424D1*
Y4591613D1*
X1897991Y4590956D1*
X1897335Y4585707D1*
X1896679Y4583082D1*
X1895366Y4580458D1*
Y4579802D1*
X1894054Y4578489D1*
X1891429Y4577177D1*
X1888805Y4576521D1*
X1884649Y4575865D1*
X1880493D1*
X1876338Y4576521D1*
X1873713Y4577177D1*
X1872401Y4577833D1*
X1869120Y4581114D1*
Y4581770D1*
X1868464Y4583739D1*
X1867807Y4587676D1*
X1867151Y4588332D1*
Y4606048D1*
X1867807Y4606704D1*
X1868464Y4611298D1*
X1869120Y4613266D1*
X1869776Y4614578D1*
Y4615235D1*
X1872401Y4617859D1*
X1875025Y4619172D1*
X1867151D1*
G37*
G36*
X1714264Y4615891D2*
X1713608Y4615235D1*
X1712952Y4613266D1*
X1712296Y4611954D1*
X1710983Y4608017D1*
X1710327Y4606704D1*
X1708359Y4600799D1*
X1707702Y4599487D1*
X1705734Y4593581D1*
X1705078Y4592269D1*
X1703765Y4588332D1*
X1703109Y4587019D1*
X1701141Y4581114D1*
X1700485Y4579802D1*
X1699172Y4575865D1*
X1698516Y4574552D1*
X1697860Y4572584D1*
Y4571271D1*
X1703765D1*
X1706390Y4579145D1*
X1707046Y4581770D1*
X1707702Y4583739D1*
Y4585051D1*
X1708359Y4585707D1*
X1715795Y4586363D1*
X1723232D1*
X1730668Y4585707D1*
Y4584395D1*
X1732637Y4578489D1*
X1733293Y4575865D1*
X1734605Y4571928D1*
X1735262Y4571271D1*
X1740511D1*
Y4572584D1*
X1739199Y4576521D1*
X1738542Y4577833D1*
X1735262Y4587676D1*
X1734605Y4588988D1*
X1730668Y4600799D1*
X1730012Y4602111D1*
X1726731Y4611954D1*
X1726075Y4613266D1*
X1722794Y4623109D1*
X1722138Y4624421D1*
X1716889D1*
X1715576Y4620484D1*
X1714920Y4619172D1*
X1714264Y4617203D1*
Y4615891D1*
X1718857D1*
X1719347Y4616312D1*
X1719679Y4616257D1*
X1720053Y4615715D1*
X1720170Y4615235D1*
X1724107Y4603424D1*
X1724763Y4602111D1*
X1728044Y4592269D1*
X1728700Y4591613D1*
X1722576Y4590956D1*
X1716451D1*
X1710327Y4591613D1*
X1710455Y4592078D1*
X1710983Y4592925D1*
X1711639Y4594893D1*
X1712296Y4596206D1*
X1715576Y4606048D1*
X1716233Y4607361D1*
X1718857Y4615235D1*
Y4615891D1*
X1714264D1*
G37*
G36*
X1749041Y4624421D2*
Y4590956D1*
X1749697Y4585051D1*
X1750353Y4581770D1*
X1751666Y4577833D1*
X1752322Y4576521D1*
X1756259Y4572584D1*
X1760196Y4571271D1*
X1765445Y4570615D1*
X1770695D1*
X1776600Y4571271D1*
X1778569Y4571928D1*
X1781193Y4573240D1*
X1783818Y4575865D1*
X1785130Y4577833D1*
X1785786Y4579145D1*
X1787099Y4583082D1*
X1787755Y4586363D1*
Y4624421D1*
X1783162D1*
X1782506Y4587676D1*
X1781849Y4583739D1*
X1781193Y4581770D1*
X1779881Y4579802D1*
Y4579145D1*
X1778569Y4577833D1*
X1775944Y4576521D1*
X1771132Y4575865D1*
X1766320D1*
X1761508Y4576521D1*
X1759540Y4577177D1*
X1758227Y4577833D1*
X1756915Y4579145D1*
Y4579802D1*
X1755603Y4582426D1*
X1754947Y4585051D1*
X1754290Y4624421D1*
X1749041D1*
G37*
G36*
X1798910Y4619172D2*
Y4571271D1*
X1821876D1*
X1824500Y4571928D1*
X1827125Y4573240D1*
X1829094Y4574552D1*
X1831718Y4577177D1*
X1833031Y4579145D1*
X1835655Y4584395D1*
X1836311Y4587019D1*
X1836968Y4588988D1*
X1837624Y4593581D1*
Y4602767D1*
X1836968Y4607361D1*
X1836311Y4609985D1*
X1834999Y4613922D1*
X1833687Y4616547D1*
X1832374Y4618515D1*
X1829750Y4621140D1*
X1827781Y4622452D1*
X1826469Y4623109D1*
X1824500Y4623765D1*
X1821876Y4624421D1*
X1798910D1*
Y4619172D1*
X1804159D1*
X1809846Y4619828D1*
X1815533D1*
X1821220Y4619172D1*
X1823844Y4618515D1*
X1826469Y4617203D1*
X1829750Y4613922D1*
Y4613266D1*
X1830406Y4611954D1*
X1831062Y4609985D1*
X1831718Y4607361D1*
X1832374Y4602111D1*
X1833031Y4601455D1*
Y4594893D1*
X1832374Y4594237D1*
X1831718Y4588988D1*
X1831062Y4586363D1*
X1829094Y4582426D1*
Y4581770D1*
X1825813Y4578489D1*
X1823188Y4577177D1*
X1816845Y4576521D1*
X1810502D1*
X1804159Y4577177D1*
Y4619172D1*
X1798910D1*
G37*
G36*
X1847466Y4624421D2*
Y4571271D1*
X1852716D1*
Y4624421D1*
X1847466D1*
G37*
G36*
X2267414Y4619172D2*
X2266101Y4617859D1*
X2264789Y4615235D1*
X2264133Y4613266D1*
X2263477Y4610641D1*
X2262821Y4606704D1*
Y4587676D1*
X2263477Y4583739D1*
X2264789Y4579802D1*
X2266101Y4577177D1*
X2268070Y4574552D1*
X2270038Y4573240D1*
X2271351Y4572584D1*
X2275288Y4571271D1*
X2290380D1*
X2293004Y4571928D1*
X2296941Y4573896D1*
X2299566Y4576521D1*
X2300878Y4579145D1*
X2302191Y4583082D1*
X2302847Y4585707D1*
X2303503Y4590956D1*
Y4604080D1*
X2302847Y4609329D1*
X2302191Y4612610D1*
X2300878Y4616547D1*
X2300222Y4617859D1*
X2298910Y4619828D1*
X2296941Y4621796D1*
X2294973Y4623109D1*
X2293004Y4623765D1*
X2290380Y4624421D1*
X2285130Y4625077D1*
X2281193D1*
X2275288Y4624421D1*
X2271351Y4623109D1*
X2269382Y4621796D1*
X2267414Y4619828D1*
Y4619172D1*
X2275288D1*
X2280537Y4619828D1*
X2285786D1*
X2291036Y4619172D1*
X2293660Y4617859D1*
X2296285Y4615235D1*
Y4613922D1*
X2296941Y4612610D1*
X2297597Y4609985D1*
X2298254Y4604080D1*
X2298910Y4603424D1*
Y4591613D1*
X2298254Y4590956D1*
X2297597Y4585707D1*
X2296941Y4583082D1*
X2295629Y4580458D1*
Y4579802D1*
X2294317Y4578489D1*
X2291692Y4577177D1*
X2289067Y4576521D1*
X2284912Y4575865D1*
X2280756D1*
X2276600Y4576521D1*
X2273975Y4577177D1*
X2272663Y4577833D1*
X2269382Y4581114D1*
Y4581770D1*
X2268726Y4583739D1*
X2268070Y4587676D1*
X2267414Y4588332D1*
Y4606048D1*
X2268070Y4606704D1*
X2268726Y4611298D1*
X2269382Y4613266D1*
X2270038Y4614578D1*
Y4615235D1*
X2272663Y4617859D1*
X2275288Y4619172D1*
X2267414D1*
G37*
G36*
X2114527Y4615891D2*
X2113870Y4615235D1*
X2113214Y4613266D1*
X2112558Y4611954D1*
X2111246Y4608017D1*
X2110590Y4606704D1*
X2108621Y4600799D1*
X2107965Y4599487D1*
X2105996Y4593581D1*
X2105340Y4592269D1*
X2104028Y4588332D1*
X2103372Y4587019D1*
X2101403Y4581114D1*
X2100747Y4579802D1*
X2099435Y4575865D1*
X2098779Y4574552D1*
X2098122Y4572584D1*
Y4571271D1*
X2104028D1*
X2106653Y4579145D1*
X2107309Y4581770D1*
X2107965Y4583739D1*
Y4585051D1*
X2108621Y4585707D1*
X2116058Y4586363D1*
X2123494D1*
X2130931Y4585707D1*
Y4584395D1*
X2132899Y4578489D1*
X2133555Y4575865D1*
X2134868Y4571928D1*
X2135524Y4571271D1*
X2140773D1*
Y4572584D1*
X2139461Y4576521D1*
X2138805Y4577833D1*
X2135524Y4587676D1*
X2134868Y4588988D1*
X2130931Y4600799D1*
X2130275Y4602111D1*
X2126994Y4611954D1*
X2126338Y4613266D1*
X2123057Y4623109D1*
X2122401Y4624421D1*
X2117151D1*
X2115839Y4620484D1*
X2115183Y4619172D1*
X2114527Y4617203D1*
Y4615891D1*
X2119120D1*
X2119610Y4616312D1*
X2119942Y4616257D1*
X2120315Y4615715D1*
X2120432Y4615235D1*
X2124369Y4603424D1*
X2125025Y4602111D1*
X2128306Y4592269D1*
X2128962Y4591613D1*
X2122838Y4590956D1*
X2116714D1*
X2110590Y4591613D1*
X2110717Y4592078D1*
X2111246Y4592925D1*
X2111902Y4594893D1*
X2112558Y4596206D1*
X2115839Y4606048D1*
X2116495Y4607361D1*
X2119120Y4615235D1*
Y4615891D1*
X2114527D1*
G37*
G36*
X2149304Y4624421D2*
Y4590956D1*
X2149960Y4585051D1*
X2150616Y4581770D1*
X2151928Y4577833D1*
X2152584Y4576521D1*
X2156521Y4572584D1*
X2160458Y4571271D1*
X2165708Y4570615D1*
X2170957D1*
X2176863Y4571271D1*
X2178831Y4571928D1*
X2181456Y4573240D1*
X2184080Y4575865D1*
X2185393Y4577833D1*
X2186049Y4579145D1*
X2187361Y4583082D1*
X2188017Y4586363D1*
Y4624421D1*
X2183424D1*
X2182768Y4587676D1*
X2182112Y4583739D1*
X2181456Y4581770D1*
X2180143Y4579802D1*
Y4579145D1*
X2178831Y4577833D1*
X2176206Y4576521D1*
X2171394Y4575865D1*
X2166583D1*
X2161771Y4576521D1*
X2159802Y4577177D1*
X2158490Y4577833D1*
X2157178Y4579145D1*
Y4579802D1*
X2155865Y4582426D1*
X2155209Y4585051D1*
X2154553Y4624421D1*
X2149304D1*
G37*
G36*
X2199172Y4619172D2*
Y4571271D1*
X2222138D1*
X2224763Y4571928D1*
X2227387Y4573240D1*
X2229356Y4574552D1*
X2231981Y4577177D1*
X2233293Y4579145D1*
X2235918Y4584395D1*
X2236574Y4587019D1*
X2237230Y4588988D1*
X2237886Y4593581D1*
Y4602767D1*
X2237230Y4607361D1*
X2236574Y4609985D1*
X2235262Y4613922D1*
X2233949Y4616547D1*
X2232637Y4618515D1*
X2230012Y4621140D1*
X2228044Y4622452D1*
X2226731Y4623109D1*
X2224763Y4623765D1*
X2222138Y4624421D1*
X2199172D1*
Y4619172D1*
X2204422D1*
X2210108Y4619828D1*
X2215795D1*
X2221482Y4619172D1*
X2224107Y4618515D1*
X2226731Y4617203D1*
X2230012Y4613922D1*
Y4613266D1*
X2230668Y4611954D1*
X2231325Y4609985D1*
X2231981Y4607361D1*
X2232637Y4602111D1*
X2233293Y4601455D1*
Y4594893D1*
X2232637Y4594237D1*
X2231981Y4588988D1*
X2231325Y4586363D1*
X2229356Y4582426D1*
Y4581770D1*
X2226075Y4578489D1*
X2223450Y4577177D1*
X2217108Y4576521D1*
X2210765D1*
X2204422Y4577177D1*
Y4619172D1*
X2199172D1*
G37*
G36*
X2247729Y4624421D2*
Y4571271D1*
X2252978D1*
Y4624421D1*
X2247729D1*
G37*
G36*
X2512164Y4625077D2*
X2508884Y4624421D1*
X2506259Y4623109D1*
X2504290Y4621796D1*
X2502978Y4620484D1*
X2501666Y4618515D1*
X2500353Y4615891D1*
X2499697Y4613922D1*
X2499041Y4611298D1*
X2498385Y4608017D1*
Y4587019D1*
X2499041Y4583739D1*
X2500353Y4579802D1*
X2501666Y4577177D1*
X2502978Y4575208D1*
X2503634Y4574552D1*
X2505603Y4573240D1*
X2508227Y4571928D1*
X2510196Y4571271D1*
X2514133Y4570615D1*
X2516101D1*
X2520695Y4571271D1*
X2523319Y4571928D1*
X2526600Y4573240D1*
X2527912Y4573896D1*
X2528614Y4574334D1*
X2529225Y4574552D1*
X2530537Y4573240D1*
Y4571928D1*
X2531193Y4571271D1*
X2534474D1*
Y4598830D1*
X2531193Y4599487D1*
X2528569D1*
X2522663Y4598830D1*
X2519382Y4598174D1*
X2517414Y4597518D1*
Y4594237D1*
X2529881Y4593581D1*
Y4579802D1*
X2529225Y4579145D1*
X2527256Y4578489D1*
X2525944Y4577833D1*
X2520695Y4576521D1*
X2517414Y4575865D1*
X2514133D1*
X2510852Y4576521D1*
X2508884Y4577177D1*
X2505603Y4580458D1*
Y4581114D1*
X2504947Y4582426D1*
X2504290Y4584395D1*
X2503634Y4588332D1*
X2502978Y4588988D1*
Y4607361D1*
X2503634Y4608017D1*
X2504290Y4611298D1*
X2504947Y4613922D1*
X2505603Y4615235D1*
Y4615891D1*
X2508227Y4618515D1*
X2510196Y4619172D1*
X2512821Y4619828D1*
X2515008Y4620484D1*
X2517195D1*
X2519382Y4619828D1*
X2531849Y4619172D1*
X2533162D1*
Y4623109D1*
X2530537Y4623765D1*
X2525944Y4624421D1*
X2519382Y4625077D1*
X2512164D1*
G37*
G36*
X2559408Y4615891D2*
X2558752Y4615235D1*
X2558096Y4613266D1*
X2557440Y4611954D1*
X2556128Y4608017D1*
X2555471Y4606704D1*
X2553503Y4600799D1*
X2552847Y4599487D1*
X2550878Y4593581D1*
X2550222Y4592269D1*
X2548910Y4588332D1*
X2548254Y4587019D1*
X2546285Y4581114D1*
X2545629Y4579802D1*
X2544317Y4575865D1*
X2543660Y4574552D1*
X2543004Y4572584D1*
Y4571271D1*
X2548910D1*
X2551534Y4579145D1*
X2552191Y4581770D1*
X2552847Y4583739D1*
Y4585051D1*
X2553503Y4585707D1*
X2560940Y4586363D1*
X2568376D1*
X2575813Y4585707D1*
Y4584395D1*
X2577781Y4578489D1*
X2578437Y4575865D1*
X2579750Y4571928D1*
X2580406Y4571271D1*
X2585655D1*
Y4572584D1*
X2584343Y4576521D1*
X2583687Y4577833D1*
X2580406Y4587676D1*
X2579750Y4588988D1*
X2575813Y4600799D1*
X2575157Y4602111D1*
X2571876Y4611954D1*
X2571220Y4613266D1*
X2567939Y4623109D1*
X2567283Y4624421D1*
X2562033D1*
X2560721Y4620484D1*
X2560065Y4619172D1*
X2559408Y4617203D1*
Y4615891D1*
X2564002D1*
X2564492Y4616312D1*
X2564824Y4616257D1*
X2565197Y4615715D1*
X2565314Y4615235D1*
X2569251Y4603424D1*
X2569907Y4602111D1*
X2573188Y4592269D1*
X2573844Y4591613D1*
X2567720Y4590956D1*
X2561596D1*
X2555471Y4591613D1*
X2555599Y4592078D1*
X2556128Y4592925D1*
X2556784Y4594893D1*
X2557440Y4596206D1*
X2560721Y4606048D1*
X2561377Y4607361D1*
X2564002Y4615235D1*
Y4615891D1*
X2559408D1*
G37*
G36*
X2591561Y4624421D2*
Y4619828D1*
X2607309Y4619172D1*
Y4571271D1*
X2612558D1*
Y4619172D1*
X2628306Y4619828D1*
Y4624421D1*
X2591561D1*
G37*
G36*
X2643398D2*
X2641429Y4623765D1*
X2640117Y4623109D1*
X2638805Y4621796D1*
X2637492Y4619172D1*
X2636836Y4616547D1*
Y4578489D1*
X2637492Y4575865D1*
X2638805Y4573240D1*
X2639461Y4572584D1*
X2642086Y4571271D1*
X2655865D1*
X2667676Y4571928D1*
X2668989Y4572584D1*
Y4575865D1*
X2643398Y4576521D1*
X2642086Y4577833D1*
Y4594237D1*
X2648647Y4594893D1*
X2665708Y4595550D1*
Y4599487D1*
X2653241Y4600143D1*
X2642086Y4600799D1*
Y4617859D1*
X2642742Y4618515D1*
X2644054Y4619172D1*
X2668989Y4619828D1*
Y4623109D1*
X2664395Y4623765D1*
X2651928Y4624421D1*
X2643398D1*
G37*
G36*
X512164Y924946D2*
X509540Y924290D1*
X507571Y923634D1*
X506259Y922977D1*
X504290Y921665D1*
X502978Y920353D1*
X501666Y918384D1*
X500353Y915760D1*
X499697Y913791D1*
X499041Y911166D1*
X498385Y907229D1*
Y888857D1*
X499041Y885576D1*
X499697Y882951D1*
X500353Y880983D1*
X501666Y878358D1*
X502978Y876389D1*
X506259Y873109D1*
X508884Y871796D1*
X510852Y871140D1*
X514133Y870484D1*
X520038D1*
X527912Y871140D1*
X531849Y871796D1*
X533162Y872452D1*
Y875733D1*
X511508Y876389D1*
X508884Y877702D1*
X506259Y880326D1*
Y880983D1*
X504947Y883607D1*
X504290Y886232D1*
X503634Y889513D1*
X502978Y890169D1*
Y907229D1*
X503634Y907886D1*
X504290Y911166D1*
X504947Y913791D1*
X505603Y915103D1*
Y915760D1*
X507571Y917728D1*
X510196Y919040D1*
X513477Y919697D1*
X515664Y920353D1*
X517851D1*
X520038Y919697D1*
X533162D1*
Y922977D1*
X531849Y923634D1*
X527256Y924290D1*
X521351Y924946D1*
X512164D1*
G37*
G36*
X586968Y919040D2*
X585655Y917728D1*
X584343Y915103D1*
X583687Y913135D1*
X583031Y910510D1*
X582374Y906573D1*
Y887544D1*
X583031Y883607D1*
X584343Y879670D1*
X585655Y877046D1*
X587624Y874421D1*
X589592Y873109D1*
X590905Y872452D1*
X594842Y871140D1*
X609933D1*
X612558Y871796D1*
X616495Y873765D1*
X619120Y876389D1*
X620432Y879014D1*
X621744Y882951D1*
X622401Y885576D1*
X623057Y890825D1*
Y903949D1*
X622401Y909198D1*
X621744Y912479D1*
X620432Y916416D1*
X619776Y917728D1*
X618464Y919697D1*
X616495Y921665D1*
X614527Y922977D1*
X612558Y923634D1*
X609933Y924290D1*
X604684Y924946D1*
X600747D1*
X594842Y924290D1*
X590905Y922977D1*
X588936Y921665D1*
X586968Y919697D1*
Y919040D1*
X594842D1*
X600091Y919697D1*
X605340D1*
X610590Y919040D1*
X613214Y917728D1*
X615839Y915103D1*
Y913791D1*
X616495Y912479D1*
X617151Y909854D1*
X617807Y903949D1*
X618464Y903292D1*
Y891481D1*
X617807Y890825D1*
X617151Y885576D1*
X616495Y882951D1*
X615183Y880326D1*
Y879670D1*
X613870Y878358D1*
X611246Y877046D1*
X608621Y876389D1*
X604465Y875733D1*
X600310D1*
X596154Y876389D1*
X593529Y877046D1*
X592217Y877702D1*
X588936Y880983D1*
Y881639D1*
X588280Y883607D1*
X587624Y887544D1*
X586968Y888201D1*
Y905917D1*
X587624Y906573D1*
X588280Y911166D1*
X588936Y913135D1*
X589592Y914447D1*
Y915103D1*
X592217Y917728D1*
X594842Y919040D1*
X586968D1*
G37*
G36*
X645366Y924946D2*
X642742Y924290D1*
X640773Y923634D1*
X639461Y922977D1*
X637492Y921665D1*
X636180Y920353D1*
X634868Y918384D1*
X633555Y915760D1*
X632899Y913791D1*
X632243Y911166D1*
X631587Y907229D1*
Y888857D1*
X632243Y885576D1*
X632899Y882951D1*
X633555Y880983D1*
X634868Y878358D1*
X636180Y876389D1*
X639461Y873109D1*
X642086Y871796D1*
X644054Y871140D1*
X647335Y870484D1*
X653241D1*
X661115Y871140D1*
X665052Y871796D1*
X666364Y872452D1*
Y875733D1*
X644710Y876389D1*
X642086Y877702D1*
X639461Y880326D1*
Y880983D1*
X638149Y883607D1*
X637492Y886232D1*
X636836Y889513D1*
X636180Y890169D1*
Y907229D1*
X636836Y907886D1*
X637492Y911166D1*
X638149Y913791D1*
X638805Y915103D1*
Y915760D1*
X640773Y917728D1*
X643398Y919040D1*
X646679Y919697D1*
X648866Y920353D1*
X651053D1*
X653241Y919697D1*
X666364D1*
Y922977D1*
X665052Y923634D1*
X660458Y924290D1*
X654553Y924946D1*
X645366D1*
G37*
G36*
X542348Y924290D2*
Y878358D1*
X543004Y875733D1*
X543660Y874421D1*
X545629Y872452D1*
X546941Y871796D1*
X548910Y871140D1*
X574500D1*
Y875733D1*
X549566Y876389D1*
X548254Y877046D1*
X547597Y877702D1*
Y924290D1*
X542348D1*
G37*
G36*
X675550D2*
Y871140D1*
X680800D1*
Y894762D1*
X682987Y895418D1*
X685174D1*
X687361Y894762D1*
X688674Y893450D1*
Y892794D1*
X691298Y888857D1*
X693267Y886232D1*
X695891Y882295D1*
X697860Y879670D1*
X701797Y873765D1*
X703765Y871140D1*
X709671D1*
X709015Y872452D1*
X702453Y882295D1*
X700485Y884920D1*
X695235Y892794D1*
X693267Y895418D1*
X691954Y896731D1*
Y898699D1*
X693267Y900012D1*
X695891Y903949D1*
X697860Y906573D1*
X701797Y912479D1*
X703765Y915103D1*
X709015Y922977D1*
X709671Y924290D1*
X703765D1*
X701797Y921665D1*
X699172Y917728D1*
X697204Y915103D1*
X694579Y911166D1*
X692611Y908542D1*
X689986Y904605D1*
X688017Y901980D1*
X687802Y901184D1*
X687361Y900668D1*
X685174Y900012D1*
X682987D1*
X680800Y900668D1*
Y924290D1*
X675550D1*
G37*
G36*
X912427Y924946D2*
X909146Y924290D1*
X906521Y922977D1*
X904553Y921665D1*
X903241Y920353D1*
X901928Y918384D1*
X900616Y915760D1*
X899960Y913791D1*
X899304Y911166D1*
X898647Y907886D1*
Y886888D1*
X899304Y883607D1*
X900616Y879670D1*
X901928Y877046D1*
X903241Y875077D1*
X903897Y874421D1*
X905865Y873109D1*
X908490Y871796D1*
X910458Y871140D1*
X914395Y870484D1*
X916364D1*
X920957Y871140D1*
X923582Y871796D1*
X926863Y873109D1*
X928175Y873765D1*
X928876Y874203D1*
X929487Y874421D1*
X930800Y873109D1*
Y871796D1*
X931456Y871140D1*
X934737D1*
Y898699D1*
X931456Y899355D1*
X928831D1*
X922926Y898699D1*
X919645Y898043D1*
X917676Y897387D1*
Y894106D1*
X930143Y893450D1*
Y879670D1*
X929487Y879014D1*
X927519Y878358D1*
X926206Y877702D1*
X920957Y876389D1*
X917676Y875733D1*
X914395D1*
X911115Y876389D1*
X909146Y877046D1*
X905865Y880326D1*
Y880983D1*
X905209Y882295D1*
X904553Y884263D1*
X903897Y888201D1*
X903241Y888857D1*
Y907229D1*
X903897Y907886D1*
X904553Y911166D1*
X905209Y913791D1*
X905865Y915103D1*
Y915760D1*
X908490Y918384D1*
X910458Y919040D1*
X913083Y919697D1*
X915270Y920353D1*
X917457D1*
X919645Y919697D1*
X932112Y919040D1*
X933424D1*
Y922977D1*
X930800Y923634D1*
X926206Y924290D1*
X919645Y924946D1*
X912427D1*
G37*
G36*
X959671Y915760D2*
X959015Y915103D1*
X958359Y913135D1*
X957702Y911823D1*
X956390Y907886D1*
X955734Y906573D1*
X953765Y900668D1*
X953109Y899355D1*
X951141Y893450D1*
X950485Y892138D1*
X949172Y888201D1*
X948516Y886888D1*
X946548Y880983D1*
X945891Y879670D1*
X944579Y875733D1*
X943923Y874421D1*
X943267Y872452D1*
Y871140D1*
X949172D1*
X951797Y879014D1*
X952453Y881639D1*
X953109Y883607D1*
Y884920D1*
X953765Y885576D1*
X961202Y886232D1*
X968639D1*
X976075Y885576D1*
Y884263D1*
X978044Y878358D1*
X978700Y875733D1*
X980012Y871796D1*
X980668Y871140D1*
X985918D1*
Y872452D1*
X984605Y876389D1*
X983949Y877702D1*
X980668Y887544D1*
X980012Y888857D1*
X976075Y900668D1*
X975419Y901980D1*
X972138Y911823D1*
X971482Y913135D1*
X968201Y922977D1*
X967545Y924290D1*
X962296D1*
X960983Y920353D1*
X960327Y919040D1*
X959671Y917072D1*
Y915760D1*
X964264D1*
X964754Y916181D1*
X965086Y916126D1*
X965459Y915583D1*
X965576Y915103D1*
X969513Y903292D1*
X970170Y901980D1*
X973450Y892138D1*
X974107Y891481D1*
X967982Y890825D1*
X961858D1*
X955734Y891481D1*
X955862Y891946D1*
X956390Y892794D1*
X957046Y894762D1*
X957702Y896075D1*
X960983Y905917D1*
X961639Y907229D1*
X964264Y915103D1*
Y915760D1*
X959671D1*
G37*
G36*
X991823Y924290D2*
Y919697D1*
X1007571Y919040D1*
Y871140D1*
X1012821D1*
Y919040D1*
X1028569Y919697D1*
Y924290D1*
X991823D1*
G37*
G36*
X1043660D2*
X1041692Y923634D1*
X1040380Y922977D1*
X1039067Y921665D1*
X1037755Y919040D1*
X1037099Y916416D1*
Y878358D1*
X1037755Y875733D1*
X1039067Y873109D1*
X1039723Y872452D1*
X1042348Y871140D1*
X1056128D1*
X1067939Y871796D1*
X1069251Y872452D1*
Y875733D1*
X1043660Y876389D1*
X1042348Y877702D1*
Y894106D1*
X1048910Y894762D1*
X1065970Y895418D1*
Y899355D1*
X1053503Y900012D1*
X1042348Y900668D1*
Y917728D1*
X1043004Y918384D1*
X1044317Y919040D1*
X1069251Y919697D1*
Y922977D1*
X1064658Y923634D1*
X1052191Y924290D1*
X1043660D1*
G37*
G36*
X1362558Y924946D2*
X1359933Y924290D1*
X1357965Y923634D1*
X1356653Y922977D1*
X1354684Y921665D1*
X1353372Y920353D1*
X1352059Y918384D1*
X1350747Y915760D1*
X1350091Y913791D1*
X1349435Y911166D1*
X1348779Y907229D1*
Y888857D1*
X1349435Y885576D1*
X1350091Y882951D1*
X1350747Y880983D1*
X1352059Y878358D1*
X1353372Y876389D1*
X1356653Y873109D1*
X1359277Y871796D1*
X1361246Y871140D1*
X1364527Y870484D1*
X1370432D1*
X1378306Y871140D1*
X1382243Y871796D1*
X1383555Y872452D1*
Y875733D1*
X1361902Y876389D1*
X1359277Y877702D1*
X1356653Y880326D1*
Y880983D1*
X1355340Y883607D1*
X1354684Y886232D1*
X1354028Y889513D1*
X1353372Y890169D1*
Y907229D1*
X1354028Y907886D1*
X1354684Y911166D1*
X1355340Y913791D1*
X1355996Y915103D1*
Y915760D1*
X1357965Y917728D1*
X1360590Y919040D1*
X1363870Y919697D1*
X1366058Y920353D1*
X1368245D1*
X1370432Y919697D1*
X1383555D1*
Y922977D1*
X1382243Y923634D1*
X1377650Y924290D1*
X1371744Y924946D1*
X1362558D1*
G37*
G36*
X1390773Y924290D2*
Y922977D1*
X1392742Y917072D1*
X1393398Y915760D1*
X1396679Y905917D1*
X1397335Y904605D1*
X1401272Y892794D1*
X1401928Y891481D1*
X1405209Y881639D1*
X1405865Y880326D1*
X1408490Y872452D1*
X1409146Y871140D1*
X1414395D1*
X1416364Y877046D1*
X1417020Y878358D1*
X1418332Y882295D1*
X1418989Y883607D1*
X1420957Y889513D1*
X1421613Y890825D1*
X1422926Y894762D1*
X1423582Y896075D1*
X1425550Y901980D1*
X1426206Y903292D1*
X1428175Y909198D1*
X1428831Y910510D1*
X1430143Y914447D1*
X1430800Y915760D1*
X1432768Y921665D1*
X1433424Y922977D1*
Y924290D1*
X1428175D1*
X1426863Y920353D1*
X1426206Y919040D1*
X1424238Y913135D1*
X1423582Y911823D1*
X1421613Y905917D1*
X1420957Y904605D1*
X1418989Y898699D1*
X1418332Y897387D1*
X1416364Y891481D1*
X1415708Y890169D1*
X1413739Y884263D1*
X1413083Y882951D1*
X1412427Y880983D1*
X1412260Y880209D1*
X1411732Y879610D1*
X1411394Y879719D1*
X1410971Y880442D1*
X1411115Y880983D1*
X1410458Y882295D1*
X1405865Y896075D1*
X1405209Y897387D1*
X1401272Y909198D1*
X1400616Y910510D1*
X1396023Y924290D1*
X1390773D1*
G37*
G36*
X1867151Y919040D2*
X1865839Y917728D1*
X1864527Y915103D1*
X1863870Y913135D1*
X1863214Y910510D1*
X1862558Y906573D1*
Y887544D1*
X1863214Y883607D1*
X1864527Y879670D1*
X1865839Y877046D1*
X1867807Y874421D1*
X1869776Y873109D1*
X1871088Y872452D1*
X1875025Y871140D1*
X1890117D1*
X1892742Y871796D1*
X1896679Y873765D1*
X1899304Y876389D1*
X1900616Y879014D1*
X1901928Y882951D1*
X1902584Y885576D1*
X1903241Y890825D1*
Y903949D1*
X1902584Y909198D1*
X1901928Y912479D1*
X1900616Y916416D1*
X1899960Y917728D1*
X1898647Y919697D1*
X1896679Y921665D1*
X1894710Y922977D1*
X1892742Y923634D1*
X1890117Y924290D1*
X1884868Y924946D1*
X1880931D1*
X1875025Y924290D1*
X1871088Y922977D1*
X1869120Y921665D1*
X1867151Y919697D1*
Y919040D1*
X1875025D1*
X1880275Y919697D1*
X1885524D1*
X1890773Y919040D1*
X1893398Y917728D1*
X1896023Y915103D1*
Y913791D1*
X1896679Y912479D1*
X1897335Y909854D1*
X1897991Y903949D1*
X1898647Y903292D1*
Y891481D1*
X1897991Y890825D1*
X1897335Y885576D1*
X1896679Y882951D1*
X1895366Y880326D1*
Y879670D1*
X1894054Y878358D1*
X1891429Y877046D1*
X1888805Y876389D1*
X1884649Y875733D1*
X1880493D1*
X1876338Y876389D1*
X1873713Y877046D1*
X1872401Y877702D1*
X1869120Y880983D1*
Y881639D1*
X1868464Y883607D1*
X1867807Y887544D1*
X1867151Y888201D1*
Y905917D1*
X1867807Y906573D1*
X1868464Y911166D1*
X1869120Y913135D1*
X1869776Y914447D1*
Y915103D1*
X1872401Y917728D1*
X1875025Y919040D1*
X1867151D1*
G37*
G36*
X1714264Y915760D2*
X1713608Y915103D1*
X1712952Y913135D1*
X1712296Y911823D1*
X1710983Y907886D1*
X1710327Y906573D1*
X1708359Y900668D1*
X1707702Y899355D1*
X1705734Y893450D1*
X1705078Y892138D1*
X1703765Y888201D1*
X1703109Y886888D1*
X1701141Y880983D1*
X1700485Y879670D1*
X1699172Y875733D1*
X1698516Y874421D1*
X1697860Y872452D1*
Y871140D1*
X1703765D1*
X1706390Y879014D1*
X1707046Y881639D1*
X1707702Y883607D1*
Y884920D1*
X1708359Y885576D1*
X1715795Y886232D1*
X1723232D1*
X1730668Y885576D1*
Y884263D1*
X1732637Y878358D1*
X1733293Y875733D1*
X1734605Y871796D1*
X1735262Y871140D1*
X1740511D1*
Y872452D1*
X1739199Y876389D1*
X1738542Y877702D1*
X1735262Y887544D1*
X1734605Y888857D1*
X1730668Y900668D1*
X1730012Y901980D1*
X1726731Y911823D1*
X1726075Y913135D1*
X1722794Y922977D1*
X1722138Y924290D1*
X1716889D1*
X1715576Y920353D1*
X1714920Y919040D1*
X1714264Y917072D1*
Y915760D1*
X1718857D1*
X1719347Y916181D1*
X1719679Y916126D1*
X1720053Y915583D1*
X1720170Y915103D1*
X1724107Y903292D1*
X1724763Y901980D1*
X1728044Y892138D1*
X1728700Y891481D1*
X1722576Y890825D1*
X1716451D1*
X1710327Y891481D1*
X1710455Y891946D1*
X1710983Y892794D1*
X1711639Y894762D1*
X1712296Y896075D1*
X1715576Y905917D1*
X1716233Y907229D1*
X1718857Y915103D1*
Y915760D1*
X1714264D1*
G37*
G36*
X1749041Y924290D2*
Y890825D1*
X1749697Y884920D1*
X1750353Y881639D1*
X1751666Y877702D1*
X1752322Y876389D1*
X1756259Y872452D1*
X1760196Y871140D1*
X1765445Y870484D1*
X1770695D1*
X1776600Y871140D1*
X1778569Y871796D1*
X1781193Y873109D1*
X1783818Y875733D1*
X1785130Y877702D1*
X1785786Y879014D1*
X1787099Y882951D1*
X1787755Y886232D1*
Y924290D1*
X1783162D1*
X1782506Y887544D1*
X1781849Y883607D1*
X1781193Y881639D1*
X1779881Y879670D1*
Y879014D1*
X1778569Y877702D1*
X1775944Y876389D1*
X1771132Y875733D1*
X1766320D1*
X1761508Y876389D1*
X1759540Y877046D1*
X1758227Y877702D1*
X1756915Y879014D1*
Y879670D1*
X1755603Y882295D1*
X1754947Y884920D1*
X1754290Y924290D1*
X1749041D1*
G37*
G36*
X1798910Y919040D2*
Y871140D1*
X1821876D1*
X1824500Y871796D1*
X1827125Y873109D1*
X1829094Y874421D1*
X1831718Y877046D1*
X1833031Y879014D1*
X1835655Y884263D1*
X1836311Y886888D1*
X1836968Y888857D1*
X1837624Y893450D1*
Y902636D1*
X1836968Y907229D1*
X1836311Y909854D1*
X1834999Y913791D1*
X1833687Y916416D1*
X1832374Y918384D1*
X1829750Y921009D1*
X1827781Y922321D1*
X1826469Y922977D1*
X1824500Y923634D1*
X1821876Y924290D1*
X1798910D1*
Y919040D1*
X1804159D1*
X1809846Y919697D1*
X1815533D1*
X1821220Y919040D1*
X1823844Y918384D1*
X1826469Y917072D1*
X1829750Y913791D1*
Y913135D1*
X1830406Y911823D1*
X1831062Y909854D1*
X1831718Y907229D1*
X1832374Y901980D1*
X1833031Y901324D1*
Y894762D1*
X1832374Y894106D1*
X1831718Y888857D1*
X1831062Y886232D1*
X1829094Y882295D1*
Y881639D1*
X1825813Y878358D1*
X1823188Y877046D1*
X1816845Y876389D1*
X1810502D1*
X1804159Y877046D1*
Y919040D1*
X1798910D1*
G37*
G36*
X1847466Y924290D2*
Y871140D1*
X1852716D1*
Y924290D1*
X1847466D1*
G37*
G36*
X2267414Y919040D2*
X2266101Y917728D1*
X2264789Y915103D1*
X2264133Y913135D1*
X2263477Y910510D1*
X2262821Y906573D1*
Y887544D1*
X2263477Y883607D1*
X2264789Y879670D1*
X2266101Y877046D1*
X2268070Y874421D1*
X2270038Y873109D1*
X2271351Y872452D1*
X2275288Y871140D1*
X2290380D1*
X2293004Y871796D1*
X2296941Y873765D1*
X2299566Y876389D1*
X2300878Y879014D1*
X2302191Y882951D1*
X2302847Y885576D1*
X2303503Y890825D1*
Y903949D1*
X2302847Y909198D1*
X2302191Y912479D1*
X2300878Y916416D1*
X2300222Y917728D1*
X2298910Y919697D1*
X2296941Y921665D1*
X2294973Y922977D1*
X2293004Y923634D1*
X2290380Y924290D1*
X2285130Y924946D1*
X2281193D1*
X2275288Y924290D1*
X2271351Y922977D1*
X2269382Y921665D1*
X2267414Y919697D1*
Y919040D1*
X2275288D1*
X2280537Y919697D1*
X2285786D1*
X2291036Y919040D1*
X2293660Y917728D1*
X2296285Y915103D1*
Y913791D1*
X2296941Y912479D1*
X2297597Y909854D1*
X2298254Y903949D1*
X2298910Y903292D1*
Y891481D1*
X2298254Y890825D1*
X2297597Y885576D1*
X2296941Y882951D1*
X2295629Y880326D1*
Y879670D1*
X2294317Y878358D1*
X2291692Y877046D1*
X2289067Y876389D1*
X2284912Y875733D1*
X2280756D1*
X2276600Y876389D1*
X2273975Y877046D1*
X2272663Y877702D1*
X2269382Y880983D1*
Y881639D1*
X2268726Y883607D1*
X2268070Y887544D1*
X2267414Y888201D1*
Y905917D1*
X2268070Y906573D1*
X2268726Y911166D1*
X2269382Y913135D1*
X2270038Y914447D1*
Y915103D1*
X2272663Y917728D1*
X2275288Y919040D1*
X2267414D1*
G37*
G36*
X2114527Y915760D2*
X2113870Y915103D1*
X2113214Y913135D1*
X2112558Y911823D1*
X2111246Y907886D1*
X2110590Y906573D1*
X2108621Y900668D1*
X2107965Y899355D1*
X2105996Y893450D1*
X2105340Y892138D1*
X2104028Y888201D1*
X2103372Y886888D1*
X2101403Y880983D1*
X2100747Y879670D1*
X2099435Y875733D1*
X2098779Y874421D1*
X2098122Y872452D1*
Y871140D1*
X2104028D1*
X2106653Y879014D1*
X2107309Y881639D1*
X2107965Y883607D1*
Y884920D1*
X2108621Y885576D1*
X2116058Y886232D1*
X2123494D1*
X2130931Y885576D1*
Y884263D1*
X2132899Y878358D1*
X2133555Y875733D1*
X2134868Y871796D1*
X2135524Y871140D1*
X2140773D1*
Y872452D1*
X2139461Y876389D1*
X2138805Y877702D1*
X2135524Y887544D1*
X2134868Y888857D1*
X2130931Y900668D1*
X2130275Y901980D1*
X2126994Y911823D1*
X2126338Y913135D1*
X2123057Y922977D1*
X2122401Y924290D1*
X2117151D1*
X2115839Y920353D1*
X2115183Y919040D1*
X2114527Y917072D1*
Y915760D1*
X2119120D1*
X2119610Y916181D1*
X2119942Y916126D1*
X2120315Y915583D1*
X2120432Y915103D1*
X2124369Y903292D1*
X2125025Y901980D1*
X2128306Y892138D1*
X2128962Y891481D1*
X2122838Y890825D1*
X2116714D1*
X2110590Y891481D1*
X2110717Y891946D1*
X2111246Y892794D1*
X2111902Y894762D1*
X2112558Y896075D1*
X2115839Y905917D1*
X2116495Y907229D1*
X2119120Y915103D1*
Y915760D1*
X2114527D1*
G37*
G36*
X2149304Y924290D2*
Y890825D1*
X2149960Y884920D1*
X2150616Y881639D1*
X2151928Y877702D1*
X2152584Y876389D1*
X2156521Y872452D1*
X2160458Y871140D1*
X2165708Y870484D1*
X2170957D1*
X2176863Y871140D1*
X2178831Y871796D1*
X2181456Y873109D1*
X2184080Y875733D1*
X2185393Y877702D1*
X2186049Y879014D1*
X2187361Y882951D1*
X2188017Y886232D1*
Y924290D1*
X2183424D1*
X2182768Y887544D1*
X2182112Y883607D1*
X2181456Y881639D1*
X2180143Y879670D1*
Y879014D1*
X2178831Y877702D1*
X2176206Y876389D1*
X2171394Y875733D1*
X2166583D1*
X2161771Y876389D1*
X2159802Y877046D1*
X2158490Y877702D1*
X2157178Y879014D1*
Y879670D1*
X2155865Y882295D1*
X2155209Y884920D1*
X2154553Y924290D1*
X2149304D1*
G37*
G36*
X2199172Y919040D2*
Y871140D1*
X2222138D1*
X2224763Y871796D1*
X2227387Y873109D1*
X2229356Y874421D1*
X2231981Y877046D1*
X2233293Y879014D1*
X2235918Y884263D1*
X2236574Y886888D1*
X2237230Y888857D1*
X2237886Y893450D1*
Y902636D1*
X2237230Y907229D1*
X2236574Y909854D1*
X2235262Y913791D1*
X2233949Y916416D1*
X2232637Y918384D1*
X2230012Y921009D1*
X2228044Y922321D1*
X2226731Y922977D1*
X2224763Y923634D1*
X2222138Y924290D1*
X2199172D1*
Y919040D1*
X2204422D1*
X2210108Y919697D1*
X2215795D1*
X2221482Y919040D1*
X2224107Y918384D1*
X2226731Y917072D1*
X2230012Y913791D1*
Y913135D1*
X2230668Y911823D1*
X2231325Y909854D1*
X2231981Y907229D1*
X2232637Y901980D1*
X2233293Y901324D1*
Y894762D1*
X2232637Y894106D1*
X2231981Y888857D1*
X2231325Y886232D1*
X2229356Y882295D1*
Y881639D1*
X2226075Y878358D1*
X2223450Y877046D1*
X2217108Y876389D1*
X2210765D1*
X2204422Y877046D1*
Y919040D1*
X2199172D1*
G37*
G36*
X2247729Y924290D2*
Y871140D1*
X2252978D1*
Y924290D1*
X2247729D1*
G37*
G36*
X2512164Y924946D2*
X2508884Y924290D1*
X2506259Y922977D1*
X2504290Y921665D1*
X2502978Y920353D1*
X2501666Y918384D1*
X2500353Y915760D1*
X2499697Y913791D1*
X2499041Y911166D1*
X2498385Y907886D1*
Y886888D1*
X2499041Y883607D1*
X2500353Y879670D1*
X2501666Y877046D1*
X2502978Y875077D1*
X2503634Y874421D1*
X2505603Y873109D1*
X2508227Y871796D1*
X2510196Y871140D1*
X2514133Y870484D1*
X2516101D1*
X2520695Y871140D1*
X2523319Y871796D1*
X2526600Y873109D1*
X2527912Y873765D1*
X2528614Y874203D1*
X2529225Y874421D1*
X2530537Y873109D1*
Y871796D1*
X2531193Y871140D1*
X2534474D1*
Y898699D1*
X2531193Y899355D1*
X2528569D1*
X2522663Y898699D1*
X2519382Y898043D1*
X2517414Y897387D1*
Y894106D1*
X2529881Y893450D1*
Y879670D1*
X2529225Y879014D1*
X2527256Y878358D1*
X2525944Y877702D1*
X2520695Y876389D1*
X2517414Y875733D1*
X2514133D1*
X2510852Y876389D1*
X2508884Y877046D1*
X2505603Y880326D1*
Y880983D1*
X2504947Y882295D1*
X2504290Y884263D1*
X2503634Y888201D1*
X2502978Y888857D1*
Y907229D1*
X2503634Y907886D1*
X2504290Y911166D1*
X2504947Y913791D1*
X2505603Y915103D1*
Y915760D1*
X2508227Y918384D1*
X2510196Y919040D1*
X2512821Y919697D1*
X2515008Y920353D1*
X2517195D1*
X2519382Y919697D1*
X2531849Y919040D1*
X2533162D1*
Y922977D1*
X2530537Y923634D1*
X2525944Y924290D1*
X2519382Y924946D1*
X2512164D1*
G37*
G36*
X2559408Y915760D2*
X2558752Y915103D1*
X2558096Y913135D1*
X2557440Y911823D1*
X2556128Y907886D1*
X2555471Y906573D1*
X2553503Y900668D1*
X2552847Y899355D1*
X2550878Y893450D1*
X2550222Y892138D1*
X2548910Y888201D1*
X2548254Y886888D1*
X2546285Y880983D1*
X2545629Y879670D1*
X2544317Y875733D1*
X2543660Y874421D1*
X2543004Y872452D1*
Y871140D1*
X2548910D1*
X2551534Y879014D1*
X2552191Y881639D1*
X2552847Y883607D1*
Y884920D1*
X2553503Y885576D1*
X2560940Y886232D1*
X2568376D1*
X2575813Y885576D1*
Y884263D1*
X2577781Y878358D1*
X2578437Y875733D1*
X2579750Y871796D1*
X2580406Y871140D1*
X2585655D1*
Y872452D1*
X2584343Y876389D1*
X2583687Y877702D1*
X2580406Y887544D1*
X2579750Y888857D1*
X2575813Y900668D1*
X2575157Y901980D1*
X2571876Y911823D1*
X2571220Y913135D1*
X2567939Y922977D1*
X2567283Y924290D1*
X2562033D1*
X2560721Y920353D1*
X2560065Y919040D1*
X2559408Y917072D1*
Y915760D1*
X2564002D1*
X2564492Y916181D1*
X2564824Y916126D1*
X2565197Y915583D1*
X2565314Y915103D1*
X2569251Y903292D1*
X2569907Y901980D1*
X2573188Y892138D1*
X2573844Y891481D1*
X2567720Y890825D1*
X2561596D1*
X2555471Y891481D1*
X2555599Y891946D1*
X2556128Y892794D1*
X2556784Y894762D1*
X2557440Y896075D1*
X2560721Y905917D1*
X2561377Y907229D1*
X2564002Y915103D1*
Y915760D1*
X2559408D1*
G37*
G36*
X2591561Y924290D2*
Y919697D1*
X2607309Y919040D1*
Y871140D1*
X2612558D1*
Y919040D1*
X2628306Y919697D1*
Y924290D1*
X2591561D1*
G37*
G36*
X2643398D2*
X2641429Y923634D1*
X2640117Y922977D1*
X2638805Y921665D1*
X2637492Y919040D1*
X2636836Y916416D1*
Y878358D1*
X2637492Y875733D1*
X2638805Y873109D1*
X2639461Y872452D1*
X2642086Y871140D1*
X2655865D1*
X2667676Y871796D1*
X2668989Y872452D1*
Y875733D1*
X2643398Y876389D1*
X2642086Y877702D1*
Y894106D1*
X2648647Y894762D1*
X2665708Y895418D1*
Y899355D1*
X2653241Y900012D1*
X2642086Y900668D1*
Y917728D1*
X2642742Y918384D1*
X2644054Y919040D1*
X2668989Y919697D1*
Y922977D1*
X2664395Y923634D1*
X2651928Y924290D1*
X2643398D1*
G37*
G36*
X2362558Y1225471D2*
Y1172321D1*
X2367807D1*
Y1225471D1*
X2362558D1*
G37*
G36*
X2378306D2*
Y1172321D1*
X2383555D1*
Y1214316D1*
X2384046Y1214737D1*
X2384386Y1214699D1*
X2384837Y1214251D1*
X2385188Y1213647D1*
X2385524Y1213004D1*
X2398647Y1193319D1*
X2399304Y1192006D1*
X2412427Y1172321D1*
X2417676D1*
Y1225471D1*
X2413083D1*
Y1182820D1*
X2412387Y1182107D1*
X2412048Y1182214D1*
X2411771Y1182820D1*
X2406521Y1190694D1*
X2405865Y1192006D1*
X2392742Y1211691D1*
X2392086Y1213004D1*
X2384212Y1224815D1*
X2383555Y1225471D1*
X2378306D1*
G37*
G36*
X1134868Y1211035D2*
X1133555Y1209723D1*
X1132243Y1207098D1*
X1131587Y1205130D1*
X1130931Y1202505D1*
X1130275Y1198568D1*
Y1179539D1*
X1130931Y1175602D1*
X1132243Y1171665D1*
X1133555Y1169040D1*
X1135524Y1166416D1*
X1137492Y1165103D1*
X1138805Y1164447D1*
X1142742Y1163135D1*
X1157834D1*
X1160458Y1163791D1*
X1164395Y1165760D1*
X1167020Y1168384D1*
X1168332Y1171009D1*
X1169645Y1174946D1*
X1170301Y1177571D1*
X1170957Y1182820D1*
Y1195943D1*
X1170301Y1201193D1*
X1169645Y1204473D1*
X1168332Y1208410D1*
X1167676Y1209723D1*
X1166364Y1211691D1*
X1164395Y1213660D1*
X1162427Y1214972D1*
X1160458Y1215628D1*
X1157834Y1216284D1*
X1152584Y1216941D1*
X1148647D1*
X1142742Y1216284D1*
X1138805Y1214972D1*
X1136836Y1213660D1*
X1134868Y1211691D1*
Y1211035D1*
X1142742D1*
X1147991Y1211691D1*
X1153241D1*
X1158490Y1211035D1*
X1161115Y1209723D1*
X1163739Y1207098D1*
Y1205786D1*
X1164395Y1204473D1*
X1165052Y1201849D1*
X1165708Y1195943D1*
X1166364Y1195287D1*
Y1183476D1*
X1165708Y1182820D1*
X1165052Y1177571D1*
X1164395Y1174946D1*
X1163083Y1172321D1*
Y1171665D1*
X1161771Y1170353D1*
X1159146Y1169040D1*
X1156521Y1168384D1*
X1152366Y1167728D1*
X1148210D1*
X1144054Y1168384D1*
X1141429Y1169040D1*
X1140117Y1169697D1*
X1136836Y1172977D1*
Y1173634D1*
X1136180Y1175602D1*
X1135524Y1179539D1*
X1134868Y1180195D1*
Y1197912D1*
X1135524Y1198568D1*
X1136180Y1203161D1*
X1136836Y1205130D1*
X1137492Y1206442D1*
Y1207098D1*
X1140117Y1209723D1*
X1142742Y1211035D1*
X1134868D1*
G37*
G36*
X1180800Y1216284D2*
Y1182820D1*
X1181456Y1176914D1*
X1182112Y1173634D1*
X1183424Y1169697D1*
X1184080Y1168384D1*
X1188017Y1164447D1*
X1191954Y1163135D1*
X1197204Y1162479D1*
X1202453D1*
X1208359Y1163135D1*
X1210327Y1163791D1*
X1212952Y1165103D1*
X1215576Y1167728D1*
X1216889Y1169697D1*
X1217545Y1171009D1*
X1218857Y1174946D1*
X1219513Y1178227D1*
Y1216284D1*
X1214920D1*
X1214264Y1179539D1*
X1213608Y1175602D1*
X1212952Y1173634D1*
X1211639Y1171665D1*
Y1171009D1*
X1210327Y1169697D1*
X1207702Y1168384D1*
X1202891Y1167728D1*
X1198079D1*
X1193267Y1168384D1*
X1191298Y1169040D1*
X1189986Y1169697D1*
X1188674Y1171009D1*
Y1171665D1*
X1187361Y1174290D1*
X1186705Y1176914D1*
X1186049Y1216284D1*
X1180800D1*
G37*
G36*
X1228044D2*
Y1211691D1*
X1243792Y1211035D1*
Y1163135D1*
X1249041D1*
Y1211035D1*
X1264789Y1211691D1*
Y1216284D1*
X1228044D1*
G37*
M02*
