M48
INCH
T01C0.1063
T02C0.126
T03C0.212
T04C0.2362
T05C0.2677
%
T01
X+025940Y+014940
X+005940Y+014940
T02
X+024510Y+005130G85X+025494Y+005130
X+006515Y+005122G85X+007499Y+005122
X+006515Y+053320G85X+007499Y+053320
X+024522Y+053321G85X+025507Y+053321
T03
X+009940Y+010940
X+013940Y+010940
X+017940Y+010940
X+021940Y+010940
X+025940Y+010940
X+005940Y+010940
T04
X+021940Y+048190
X+025940Y+048190
X+025940Y+043377
X+017940Y+048190
X+013940Y+048190
X+009940Y+048190
X+005940Y+048190
T05
X+015940Y+022002
T00
M30
