G04 DipTrace 4.0.0.0*
G04 uTest_p02.GBO*
%MOIN*%
G04 #@! TF.FileFunction,Legend,Bot*
G04 #@! TF.Part,Single*
%ADD10C,0.009843*%
%ADD20C,0.005984*%
%ADD31C,0.006*%
%ADD120C,0.004632*%
%ADD121C,0.00772*%
%ADD122C,0.009264*%
%ADD123C,0.006176*%
%FSLAX26Y26*%
G04*
G70*
G90*
G75*
G01*
G04 BotSilk*
%LPD*%
X2550799Y4419340D2*
D31*
X2620834D1*
X2585834Y4454286D2*
Y4384343D1*
X2635849Y4244457D2*
X2760834D1*
X2535820D2*
X2410834D1*
X2535820Y4644466D2*
X2410834D1*
X2635849D2*
X2760834D1*
Y4244457D1*
X2410834D2*
Y4644466D1*
X2535820Y4244457D2*
D20*
Y4231982D1*
X2635849D1*
Y4244457D1*
X2150799Y4419340D2*
D31*
X2220834D1*
X2185834Y4454286D2*
Y4384343D1*
X2235849Y4244457D2*
X2360834D1*
X2135820D2*
X2010834D1*
X2135820Y4644466D2*
X2010834D1*
X2235849D2*
X2360834D1*
Y4244457D1*
X2010834D2*
Y4644466D1*
X2135820Y4244457D2*
D20*
Y4231982D1*
X2235849D1*
Y4244457D1*
X1750799Y4419340D2*
D31*
X1820834D1*
X1785834Y4454286D2*
Y4384343D1*
X1835849Y4244457D2*
X1960834D1*
X1735820D2*
X1610834D1*
X1735820Y4644466D2*
X1610834D1*
X1835849D2*
X1960834D1*
Y4244457D1*
X1610834D2*
Y4644466D1*
X1735820Y4244457D2*
D20*
Y4231982D1*
X1835849D1*
Y4244457D1*
X1350799Y4419340D2*
D31*
X1420834D1*
X1385834Y4454286D2*
Y4384343D1*
X1435849Y4244457D2*
X1560834D1*
X1335820D2*
X1210834D1*
X1335820Y4644466D2*
X1210834D1*
X1435849D2*
X1560834D1*
Y4244457D1*
X1210834D2*
Y4644466D1*
X1335820Y4244457D2*
D20*
Y4231982D1*
X1435849D1*
Y4244457D1*
X950799Y4419340D2*
D31*
X1020834D1*
X985834Y4454286D2*
Y4384343D1*
X1035849Y4244457D2*
X1160834D1*
X935820D2*
X810834D1*
X935820Y4644466D2*
X810834D1*
X1035849D2*
X1160834D1*
Y4244457D1*
X810834D2*
Y4644466D1*
X935820Y4244457D2*
D20*
Y4231982D1*
X1035849D1*
Y4244457D1*
X620870Y3938764D2*
D31*
X550834D1*
X585834Y3903826D2*
Y3973785D1*
X535820Y4113660D2*
X410834D1*
X635849D2*
X760834D1*
X635849Y3713650D2*
X760834D1*
X535820D2*
X410834D1*
Y4113660D1*
X760834D2*
Y3713650D1*
X635849Y4113660D2*
D20*
Y4126133D1*
X535820D1*
Y4113660D1*
X550799Y4419340D2*
D31*
X620834D1*
X585834Y4454286D2*
Y4384343D1*
X635849Y4244457D2*
X760834D1*
X535820D2*
X410834D1*
X535820Y4644466D2*
X410834D1*
X635849D2*
X760834D1*
Y4244457D1*
X410834D2*
Y4644466D1*
X535820Y4244457D2*
D20*
Y4231982D1*
X635849D1*
Y4244457D1*
X2703945Y578703D2*
D10*
Y814942D1*
Y578703D2*
X2467708D1*
Y814942D1*
X2703945D1*
X2303945Y576341D2*
Y812580D1*
Y576341D2*
X2067708D1*
Y812580D1*
X2303945D1*
X1903945Y576341D2*
Y812580D1*
Y576341D2*
X1667708D1*
Y812580D1*
X1903945D1*
X1503945Y578703D2*
Y814942D1*
Y578703D2*
X1267708D1*
Y814942D1*
X1503945D1*
X1103945Y576341D2*
Y812580D1*
Y576341D2*
X867708D1*
Y812580D1*
X1103945D1*
X703945Y578703D2*
Y814942D1*
Y578703D2*
X467708D1*
Y814942D1*
X703945D1*
X613375Y3564933D2*
Y2568920D1*
X2558275D1*
Y3564933D1*
X613375D1*
X686180Y3486230D2*
Y2923239D1*
X2485471D1*
Y3486230D1*
X686180D1*
X613375Y3564933D2*
X581804D1*
X617240Y2864135D2*
X577938Y2860215D1*
X574073Y2864135D2*
X428248Y2950781D1*
X410638Y2966459D2*
Y3450747D1*
X424383Y3458585D2*
X574073Y3564933D1*
X1614818Y2161131D2*
D120*
X1633455D1*
Y2130987D1*
X1614818D1*
X1633455Y2146772D2*
X1621981D1*
X1585459Y2161131D2*
Y2130987D1*
X1605555Y2161131D1*
Y2130987D1*
X1554673Y2153968D2*
X1556099Y2156820D1*
X1558984Y2159705D1*
X1561836Y2161131D1*
X1567573D1*
X1570458Y2159705D1*
X1573310Y2156820D1*
X1574769Y2153968D1*
X1576195Y2149657D1*
Y2142461D1*
X1574769Y2138183D1*
X1573310Y2135298D1*
X1570458Y2132446D1*
X1567573Y2130987D1*
X1561836D1*
X1558984Y2132446D1*
X1556099Y2135298D1*
X1554673Y2138183D1*
X1545410Y2155361D2*
X1542525Y2156820D1*
X1538214Y2161098D1*
Y2130987D1*
X2586885Y4688895D2*
Y4665947D1*
X2588311Y4661636D1*
X2589770Y4660210D1*
X2592622Y4658751D1*
X2595507D1*
X2598359Y4660210D1*
X2599785Y4661636D1*
X2601244Y4665947D1*
Y4668799D1*
X2577621Y4683124D2*
X2574736Y4684584D1*
X2570425Y4688861D1*
Y4658751D1*
X2193335Y4688895D2*
Y4665947D1*
X2194761Y4661636D1*
X2196220Y4660210D1*
X2199072Y4658751D1*
X2201957D1*
X2204809Y4660210D1*
X2206235Y4661636D1*
X2207694Y4665947D1*
Y4668799D1*
X2182612Y4681698D2*
Y4683124D1*
X2181186Y4686009D1*
X2179760Y4687435D1*
X2176875Y4688861D1*
X2171138D1*
X2168286Y4687435D1*
X2166860Y4686009D1*
X2165401Y4683124D1*
Y4680272D1*
X2166860Y4677387D1*
X2169712Y4673110D1*
X2184071Y4658751D1*
X2163975D1*
X1793335Y4688895D2*
Y4665947D1*
X1794761Y4661636D1*
X1796220Y4660210D1*
X1799072Y4658751D1*
X1801957D1*
X1804809Y4660210D1*
X1806235Y4661636D1*
X1807694Y4665947D1*
Y4668799D1*
X1781186Y4688861D2*
X1765434D1*
X1774023Y4677387D1*
X1769712D1*
X1766860Y4675961D1*
X1765434Y4674536D1*
X1763975Y4670224D1*
Y4667373D1*
X1765434Y4663062D1*
X1768286Y4660176D1*
X1772597Y4658751D1*
X1776908D1*
X1781186Y4660176D1*
X1782612Y4661636D1*
X1784071Y4664488D1*
X1394048Y4688895D2*
Y4665947D1*
X1395474Y4661636D1*
X1396933Y4660210D1*
X1399785Y4658751D1*
X1402670D1*
X1405522Y4660210D1*
X1406948Y4661636D1*
X1408407Y4665947D1*
Y4668799D1*
X1370425Y4658751D2*
Y4688861D1*
X1384784Y4668799D1*
X1363262D1*
X993335Y4688895D2*
Y4665947D1*
X994761Y4661636D1*
X996220Y4660210D1*
X999072Y4658751D1*
X1001957D1*
X1004809Y4660210D1*
X1006235Y4661636D1*
X1007694Y4665947D1*
Y4668799D1*
X966860Y4688861D2*
X981186D1*
X982612Y4675961D1*
X981186Y4677387D1*
X976875Y4678847D1*
X972597D1*
X968286Y4677387D1*
X965401Y4674536D1*
X963975Y4670224D1*
Y4667373D1*
X965401Y4663062D1*
X968286Y4660176D1*
X972597Y4658751D1*
X976875D1*
X981186Y4660176D1*
X982612Y4661636D1*
X984071Y4664488D1*
X592605Y4170066D2*
Y4147119D1*
X594031Y4142808D1*
X595490Y4141382D1*
X598342Y4139922D1*
X601227D1*
X604079Y4141382D1*
X605505Y4142808D1*
X606964Y4147119D1*
Y4149970D1*
X566131Y4165755D2*
X567557Y4168607D1*
X571868Y4170033D1*
X574720D1*
X579031Y4168607D1*
X581916Y4164296D1*
X583342Y4157133D1*
Y4149970D1*
X581916Y4144233D1*
X579031Y4141348D1*
X574720Y4139922D1*
X573294D1*
X569016Y4141348D1*
X566131Y4144233D1*
X564705Y4148544D1*
Y4149970D1*
X566131Y4154281D1*
X569016Y4157133D1*
X573294Y4158559D1*
X574720D1*
X579031Y4157133D1*
X581916Y4154281D1*
X583342Y4149970D1*
X601565Y4688895D2*
Y4665947D1*
X602991Y4661636D1*
X604450Y4660210D1*
X607302Y4658751D1*
X610187D1*
X613039Y4660210D1*
X614464Y4661636D1*
X615924Y4665947D1*
Y4668799D1*
X592301Y4683124D2*
X589416Y4684584D1*
X585105Y4688861D1*
Y4658751D1*
X567219Y4688861D2*
X571530Y4687435D1*
X574415Y4683124D1*
X575841Y4675961D1*
Y4671650D1*
X574415Y4664488D1*
X571530Y4660176D1*
X567219Y4658751D1*
X564367D1*
X560056Y4660176D1*
X557204Y4664488D1*
X555745Y4671650D1*
Y4675961D1*
X557204Y4683124D1*
X560056Y4687435D1*
X564367Y4688861D1*
X567219D1*
X557204Y4683124D2*
X574415Y4664488D1*
X2439254Y698559D2*
D121*
X2396199D1*
X2417699Y677059D2*
Y720114D1*
X2561851Y864005D2*
D120*
X2564703Y866890D1*
X2569014Y868316D1*
X2574751D1*
X2579062Y866890D1*
X2581947Y864005D1*
Y861153D1*
X2580488Y858268D1*
X2579062Y856842D1*
X2576210Y855416D1*
X2567588Y852531D1*
X2564703Y851105D1*
X2563277Y849646D1*
X2561851Y846794D1*
Y842483D1*
X2564703Y839631D1*
X2569014Y838172D1*
X2574751D1*
X2579062Y839631D1*
X2581947Y842483D1*
X2552587Y868316D2*
X2545391Y838172D1*
X2538228Y868316D1*
X2531065Y838172D1*
X2523869Y868316D1*
X2514606Y862546D2*
X2511721Y864005D1*
X2507410Y868283D1*
Y838172D1*
X2039254Y696197D2*
D121*
X1996199D1*
X2017699Y674697D2*
Y717752D1*
X2168301Y861643D2*
D120*
X2171153Y864528D1*
X2175464Y865954D1*
X2181201D1*
X2185512Y864528D1*
X2188397Y861643D1*
Y858791D1*
X2186938Y855906D1*
X2185512Y854480D1*
X2182660Y853054D1*
X2174038Y850169D1*
X2171153Y848743D1*
X2169727Y847284D1*
X2168301Y844432D1*
Y840121D1*
X2171153Y837269D1*
X2175464Y835810D1*
X2181201D1*
X2185512Y837269D1*
X2188397Y840121D1*
X2159037Y865954D2*
X2151841Y835810D1*
X2144678Y865954D1*
X2137515Y835810D1*
X2130319Y865954D1*
X2119597Y858757D2*
Y860183D1*
X2118171Y863069D1*
X2116745Y864494D1*
X2113860Y865920D1*
X2108123D1*
X2105271Y864494D1*
X2103845Y863069D1*
X2102386Y860183D1*
Y857332D1*
X2103845Y854446D1*
X2106697Y850169D1*
X2121056Y835810D1*
X2100960D1*
X1639254Y696197D2*
D121*
X1596199D1*
X1617699Y674697D2*
Y717752D1*
X1768301Y861643D2*
D120*
X1771153Y864528D1*
X1775464Y865954D1*
X1781201D1*
X1785512Y864528D1*
X1788397Y861643D1*
Y858791D1*
X1786938Y855906D1*
X1785512Y854480D1*
X1782660Y853054D1*
X1774038Y850169D1*
X1771153Y848743D1*
X1769727Y847284D1*
X1768301Y844432D1*
Y840121D1*
X1771153Y837269D1*
X1775464Y835810D1*
X1781201D1*
X1785512Y837269D1*
X1788397Y840121D1*
X1759037Y865954D2*
X1751841Y835810D1*
X1744678Y865954D1*
X1737515Y835810D1*
X1730319Y865954D1*
X1718171Y865920D2*
X1702419D1*
X1711008Y854446D1*
X1706697D1*
X1703845Y853021D1*
X1702419Y851595D1*
X1700960Y847284D1*
Y844432D1*
X1702419Y840121D1*
X1705271Y837236D1*
X1709582Y835810D1*
X1713893D1*
X1718171Y837236D1*
X1719597Y838695D1*
X1721056Y841547D1*
X1239254Y698559D2*
D121*
X1196199D1*
X1217699Y677059D2*
Y720114D1*
X1369014Y864005D2*
D120*
X1371866Y866890D1*
X1376177Y868316D1*
X1381914D1*
X1386225Y866890D1*
X1389110Y864005D1*
Y861153D1*
X1387651Y858268D1*
X1386225Y856842D1*
X1383373Y855416D1*
X1374751Y852531D1*
X1371866Y851105D1*
X1370440Y849646D1*
X1369014Y846794D1*
Y842483D1*
X1371866Y839631D1*
X1376177Y838172D1*
X1381914D1*
X1386225Y839631D1*
X1389110Y842483D1*
X1359750Y868316D2*
X1352554Y838172D1*
X1345391Y868316D1*
X1338228Y838172D1*
X1331032Y868316D1*
X1307410Y838172D2*
Y868283D1*
X1321769Y848220D1*
X1300247D1*
X839254Y696197D2*
D121*
X796199D1*
X817699Y674697D2*
Y717752D1*
X968301Y861643D2*
D120*
X971153Y864528D1*
X975464Y865954D1*
X981201D1*
X985512Y864528D1*
X988397Y861643D1*
Y858791D1*
X986938Y855906D1*
X985512Y854480D1*
X982660Y853054D1*
X974038Y850169D1*
X971153Y848743D1*
X969727Y847284D1*
X968301Y844432D1*
Y840121D1*
X971153Y837269D1*
X975464Y835810D1*
X981201D1*
X985512Y837269D1*
X988397Y840121D1*
X959037Y865954D2*
X951841Y835810D1*
X944678Y865954D1*
X937515Y835810D1*
X930319Y865954D1*
X903845Y865920D2*
X918171D1*
X919597Y853021D1*
X918171Y854446D1*
X913860Y855906D1*
X909582D1*
X905271Y854446D1*
X902386Y851595D1*
X900960Y847284D1*
Y844432D1*
X902386Y840121D1*
X905271Y837236D1*
X909582Y835810D1*
X913860D1*
X918171Y837236D1*
X919597Y838695D1*
X921056Y841547D1*
X439254Y698559D2*
D121*
X396199D1*
X417699Y677059D2*
Y720114D1*
X567571Y864005D2*
D120*
X570423Y866890D1*
X574734Y868316D1*
X580471D1*
X584782Y866890D1*
X587667Y864005D1*
Y861153D1*
X586208Y858268D1*
X584782Y856842D1*
X581930Y855416D1*
X573308Y852531D1*
X570423Y851105D1*
X568997Y849646D1*
X567571Y846794D1*
Y842483D1*
X570423Y839631D1*
X574734Y838172D1*
X580471D1*
X584782Y839631D1*
X587667Y842483D1*
X558308Y868316D2*
X551112Y838172D1*
X543949Y868316D1*
X536786Y838172D1*
X529590Y868316D1*
X503115Y864005D2*
X504541Y866857D1*
X508852Y868283D1*
X511704D1*
X516015Y866857D1*
X518900Y862546D1*
X520326Y855383D1*
Y848220D1*
X518900Y842483D1*
X516015Y839598D1*
X511704Y838172D1*
X510278D1*
X506000Y839598D1*
X503115Y842483D1*
X501689Y846794D1*
Y848220D1*
X503115Y852531D1*
X506000Y855383D1*
X510278Y856809D1*
X511704D1*
X516015Y855383D1*
X518900Y852531D1*
X520326Y848220D1*
X515533Y3271703D2*
D122*
X538547Y3331991D1*
X561495Y3271703D1*
X552873Y3291799D2*
X524155D1*
X549683Y3135182D2*
Y3074894D1*
X509491Y3135182D2*
X549683Y3094990D1*
X535357Y3109383D2*
X509491Y3074894D1*
X1288598Y2638789D2*
D121*
X1283790Y2641221D1*
X1276605Y2648351D1*
Y2598166D1*
X2171404Y2618524D2*
D123*
X2167557Y2620470D1*
X2161809Y2626174D1*
Y2586026D1*
X2130313D2*
Y2626174D1*
X2149458Y2599423D1*
X2120762D1*
X1523847Y3608867D2*
D120*
Y3587345D1*
X1522422Y3583034D1*
X1519536Y3580182D1*
X1515225Y3578723D1*
X1512374D1*
X1508063Y3580182D1*
X1505177Y3583034D1*
X1503751Y3587345D1*
Y3608867D1*
X1487325Y3614587D2*
Y3572969D1*
X1481588Y3614587D2*
Y3572969D1*
X1474425Y3604539D2*
X1477277Y3607391D1*
X1481588Y3608817D1*
X1487325D1*
X1491603Y3607391D1*
X1494488Y3604539D1*
Y3601654D1*
X1493062Y3598802D1*
X1491603Y3597343D1*
X1488751Y3595917D1*
X1480162Y3593065D1*
X1477277Y3591606D1*
X1475851Y3590180D1*
X1474425Y3587328D1*
Y3583017D1*
X1477277Y3580132D1*
X1481588Y3578706D1*
X1487325D1*
X1491603Y3580132D1*
X1494488Y3583017D1*
X1462276Y3608834D2*
X1446525D1*
X1455114Y3597360D1*
X1450803D1*
X1447951Y3595934D1*
X1446525Y3594508D1*
X1445066Y3590197D1*
Y3587345D1*
X1446525Y3583034D1*
X1449377Y3580149D1*
X1453688Y3578723D1*
X1457999D1*
X1462276Y3580149D1*
X1463702Y3581608D1*
X1465162Y3584460D1*
M02*
