G04 DipTrace 4.0.0.0*
G04 uTest_p02.GTS*
%MOIN*%
G04 #@! TF.FileFunction,Soldermask,Top*
G04 #@! TF.Part,Single*
%AMOUTLINE0*
4,1,8,
-0.014159,-0.034184,
-0.034184,-0.014159,
-0.034184,0.014159,
-0.014159,0.034184,
0.014159,0.034184,
0.034184,0.014159,
0.034184,-0.014159,
0.014159,-0.034184,
-0.014159,-0.034184,
0*%
%AMOUTLINE2*
4,1,8,
-0.016982,0.041,
-0.041,0.016982,
-0.041,-0.016982,
-0.016982,-0.041,
0.016982,-0.041,
0.041,-0.016982,
0.041,0.016982,
0.016982,0.041,
-0.016982,0.041,
0*%
%ADD20C,0.005984*%
%ADD55C,0.106299*%
%ADD64O,0.055244X0.094614*%
%ADD66O,0.055244X0.074929*%
%ADD68R,0.027685X0.078866*%
%ADD70R,0.078866X0.027685*%
%ADD72C,0.063118*%
%ADD74C,0.067055*%
%ADD76R,0.08674X0.224535*%
%ADD78R,0.063118X0.04737*%
%ADD80R,0.067055X0.067055*%
%ADD82C,0.073*%
%ADD84O,0.093X0.083*%
%ADD86R,0.094614X0.149732*%
%ADD88R,0.095992X0.055992*%
%ADD90R,0.031622X0.08674*%
%ADD92R,0.033591X0.049339*%
%ADD94R,0.12611X0.145795*%
%ADD96C,0.08674*%
%ADD98R,0.04737X0.063118*%
%ADD100R,0.04737X0.094614*%
%ADD102R,0.072961X0.137921*%
%ADD104R,0.137921X0.072961*%
%ADD106R,0.067055X0.059181*%
%ADD108R,0.072961X0.132016*%
%ADD110R,0.059181X0.067055*%
%ADD112R,0.04737X0.051307*%
%ADD114R,0.051307X0.04737*%
%ADD116R,0.067055X0.070992*%
%ADD118R,0.055244X0.055244*%
%ADD124OUTLINE0*%
%ADD126OUTLINE2*%
%FSLAX26Y26*%
G04*
G70*
G90*
G75*
G01*
G04 TopMask*
%LPD*%
D118*
X1463661Y2379249D3*
D116*
X1336890Y2418619D3*
D118*
X1463622Y2457990D3*
D114*
X2058485Y2646517D3*
X1991556D3*
D112*
X704041Y1384114D3*
Y1317185D3*
X2392085Y3975710D3*
Y3908781D3*
D114*
X672852Y2012269D3*
X605922D3*
X1390471Y4364807D3*
X1457400D3*
D110*
X1236039Y3769461D3*
X1310842D3*
D112*
X1648334Y3980139D3*
Y3913210D3*
X1510834Y4490032D3*
Y4556961D3*
D108*
X859834Y2747482D3*
Y2960080D3*
D112*
X913630Y3395181D3*
Y3462110D3*
X2447212Y2948251D3*
Y3015180D3*
D114*
X1360834Y2644461D3*
X1293905D3*
D112*
X1423334Y3056978D3*
Y3123907D3*
Y2857026D3*
Y2790097D3*
D114*
X1085105Y1516231D3*
X1152034D3*
X2075854Y3337235D3*
X2008925D3*
D112*
X1885834Y1319461D3*
Y1386390D3*
X2445058Y3109976D3*
Y3176906D3*
D114*
X1749908Y4039301D3*
X1816837D3*
X585834Y2606961D3*
X652764D3*
D112*
X1985834Y1319461D3*
Y1386390D3*
X1177370Y3913210D3*
Y3980139D3*
D114*
X1323334Y4069461D3*
X1390264D3*
D106*
X973334Y4494461D3*
Y4419658D3*
D112*
X1085834Y3913210D3*
Y3980139D3*
D104*
X1357653Y3505882D3*
X1562378D3*
D102*
X2317085Y2156961D3*
Y2361685D3*
X1973334D3*
Y2156961D3*
D100*
X2310834Y1894461D3*
X2210834D3*
Y1669658D3*
X2310834D3*
D98*
X485834Y3733083D3*
X523236Y3646469D3*
X448433D3*
X485834Y4044461D3*
X523236Y3957847D3*
X448433D3*
D96*
X1585834Y1506961D3*
X1684260D3*
X1487409D3*
X1684260Y2077827D3*
X1487409D3*
D94*
X1361425Y1802236D3*
X1810244D3*
D55*
X585834Y1094461D3*
X2585834D3*
D92*
X2560834Y3975711D3*
X2486031D3*
X2523433Y3885160D3*
D90*
X998088Y3394461D3*
X1048088D3*
X1098088D3*
X1148088D3*
Y3607059D3*
X1098088D3*
X1048088D3*
X998088D3*
X785834Y1169461D3*
X835834D3*
X885834D3*
X935834D3*
X985834D3*
X1035834D3*
X1085834D3*
X1135834D3*
Y1382059D3*
X1085834D3*
X1035834D3*
X985834D3*
X935834D3*
X885834D3*
X835834D3*
X785834D3*
X2085834Y1169461D3*
X2135834D3*
X2185834D3*
X2235834D3*
X2285834D3*
X2335834D3*
X2385834D3*
X2435834D3*
Y1382059D3*
X2385834D3*
X2335834D3*
X2285834D3*
X2235834D3*
X2185834D3*
X2135834D3*
X2085834D3*
X1267134Y4325760D3*
X1217134D3*
X1167134D3*
X1117134D3*
Y4113161D3*
X1167134D3*
X1217134D3*
X1267134D3*
D88*
X835833Y2194461D3*
Y2103476D3*
Y2012492D3*
D86*
X1079850Y2103476D3*
D84*
X2585834Y4282461D3*
Y4607461D3*
D82*
Y4182461D3*
D84*
X2185834Y4282461D3*
Y4607461D3*
D82*
Y4182461D3*
D84*
X1785834Y4282461D3*
Y4607461D3*
D82*
Y4182461D3*
D84*
X1385834Y4282461D3*
Y4607461D3*
D82*
Y4182461D3*
D84*
X985834Y4282461D3*
Y4607461D3*
D82*
Y4182461D3*
D84*
X585834Y4075654D3*
Y3750654D3*
Y4282461D3*
Y4607461D3*
D82*
Y4182461D3*
D124*
X2579585Y1900710D3*
X2679585D3*
X2579585Y1800710D3*
X2679585D3*
X2579585Y1700710D3*
X2679585D3*
X2579585Y1600710D3*
X2679585D3*
X2579585Y1500710D3*
X2679585D3*
D90*
X867134Y4075760D3*
X817134D3*
X767134D3*
X717134D3*
Y3863161D3*
X767134D3*
X817134D3*
X867134D3*
D80*
X1685834Y1650711D3*
Y1719461D3*
Y1788211D3*
X1492084Y1650711D3*
Y1719461D3*
Y1788211D3*
D78*
X549220Y4469264D3*
X635834Y4431862D3*
X549220Y4394461D3*
D76*
X1598334Y3144511D3*
Y2770495D3*
D112*
X2273334Y3975711D3*
Y3908782D3*
X635834Y3894461D3*
Y3961390D3*
X863680Y3693493D3*
Y3760423D3*
X2092084Y3913210D3*
Y3980139D3*
D80*
X2235836Y3737089D3*
D74*
X2335834D3*
X2435834D3*
D112*
X1998334Y3913210D3*
Y3980139D3*
X1473334Y3913210D3*
Y3980139D3*
X1910834Y3913210D3*
Y3980139D3*
D80*
X1785836Y3737089D3*
D74*
X1885834D3*
X1985834D3*
D112*
X460834Y3481961D3*
Y3415032D3*
X1560834Y3980139D3*
Y3913210D3*
X1610834Y4490032D3*
Y4556961D3*
X708627Y4323182D3*
Y4256253D3*
X469299Y4577925D3*
Y4510996D3*
X2485834Y927925D3*
Y860996D3*
X2085834Y927925D3*
Y860996D3*
X1685834Y927925D3*
Y860996D3*
X1285834Y927925D3*
Y860996D3*
X885834Y927925D3*
Y860996D3*
X485834Y927925D3*
Y860996D3*
X2485834Y4490032D3*
Y4556961D3*
D114*
X585834Y2706961D3*
X652764D3*
D112*
X2085834Y4490032D3*
Y4556961D3*
X1273334Y3913210D3*
Y3980139D3*
X1098334Y4556961D3*
Y4490032D3*
X1285834Y4556961D3*
Y4490032D3*
X998334Y3980139D3*
Y3913210D3*
X1198334Y4490032D3*
Y4556961D3*
X1360834Y3913210D3*
Y3980139D3*
X1710834Y4490032D3*
Y4556961D3*
X1735834Y3977925D3*
Y3910996D3*
X685834Y927925D3*
Y860996D3*
X1085834Y927925D3*
Y860996D3*
X1485834Y927925D3*
Y860996D3*
X1885834Y927925D3*
Y860996D3*
X2285834Y927925D3*
Y860996D3*
X2685834Y927925D3*
Y860996D3*
D72*
X2483472Y596823D3*
Y796823D3*
X2688197D3*
Y596823D3*
X2692134Y696823D3*
X2479535D3*
X2083472Y594461D3*
Y794461D3*
X2288197D3*
Y594461D3*
X2292134Y694461D3*
X2079535D3*
X1683472Y594461D3*
Y794461D3*
X1888197D3*
Y594461D3*
X1892134Y694461D3*
X1679535D3*
X1283472Y596823D3*
Y796823D3*
X1488197D3*
Y596823D3*
X1492134Y696823D3*
X1279535D3*
X883472Y594461D3*
Y794461D3*
X1088197D3*
Y594461D3*
X1092134Y694461D3*
X879535D3*
X483472Y596823D3*
Y796823D3*
X688197D3*
Y596823D3*
X692134Y696823D3*
X479535D3*
D126*
X579585Y2288211D3*
X479585D3*
X579585Y2388211D3*
X479585D3*
X579585Y2488211D3*
X479585D3*
D70*
X1835834Y3144461D3*
Y3112965D3*
Y3081469D3*
Y3049972D3*
Y3018476D3*
Y2986980D3*
Y2955484D3*
Y2923988D3*
Y2892492D3*
Y2860996D3*
Y2829500D3*
D68*
X1902764Y2762571D3*
X1934260D3*
X1965756D3*
X1997252D3*
X2028748D3*
X2060244D3*
X2091740D3*
X2123236D3*
X2154732D3*
X2186228D3*
X2217724D3*
D70*
X2284653Y2829500D3*
Y2860996D3*
Y2892492D3*
Y2923988D3*
Y2955484D3*
Y2986980D3*
Y3018476D3*
Y3049972D3*
Y3081469D3*
Y3112965D3*
Y3144461D3*
D68*
X2217724Y3211390D3*
X2186228D3*
X2154732D3*
X2123236D3*
X2091740D3*
X2060244D3*
X2028748D3*
X1997252D3*
X1965756D3*
X1934260D3*
X1902764D3*
D90*
X1672972Y4325760D3*
X1622972D3*
X1572972D3*
X1522972D3*
Y4113161D3*
X1572972D3*
X1622972D3*
X1672972D3*
D66*
X1320086Y2566902D3*
X1379142D3*
X1438197D3*
X1497252D3*
X1556307D3*
X1615362D3*
X1674417D3*
X1733472D3*
X1792527D3*
X1851583D3*
X1910638D3*
X1969693D3*
X2028748D3*
X2087803D3*
D64*
X457882Y3303122D3*
Y3106272D3*
G36*
X685834Y2444461D2*
X1198334D1*
X1235834Y2406961D1*
Y1644461D1*
X1198334Y1606961D1*
X685834D1*
X648334Y1644461D1*
Y2131961D1*
X667085Y2144461D1*
X773334D1*
X798334Y2169461D1*
Y2219461D1*
X773334Y2244461D1*
X673334D1*
X648334Y2269461D1*
Y2394461D1*
Y2406961D1*
X685834Y2444461D1*
G37*
X2473334Y2694461D2*
D20*
X2678931D1*
Y2485669D1*
X2473334D1*
Y2694461D1*
G36*
X2519065Y2647006D2*
Y2553174D1*
X2517621Y2551731D1*
X2516178Y2545956D1*
Y2544513D1*
X2513291Y2541626D1*
X2510404Y2540182D1*
X2504148Y2538739D1*
X2497893D1*
X2491637Y2540182D1*
X2488750D1*
X2487306Y2535851D1*
Y2532964D1*
X2493081Y2530077D1*
X2500299Y2528634D1*
X2508960D1*
X2516178Y2530077D1*
X2521952Y2532964D1*
X2524839Y2535851D1*
X2526283Y2538739D1*
X2527726Y2543069D1*
X2529170Y2550287D1*
Y2647006D1*
X2519065D1*
G37*
G36*
X2556598D2*
Y2638345D1*
X2555154Y2636901D1*
X2552267Y2593594D1*
X2550823Y2570497D1*
X2549380Y2548844D1*
Y2530077D1*
X2559485D1*
X2560928Y2547400D1*
X2565259Y2612361D1*
Y2623909D1*
X2566337Y2624836D1*
X2567085Y2624752D1*
X2568146Y2623909D1*
Y2621022D1*
X2582582Y2577715D1*
X2584026Y2571941D1*
X2597018Y2532964D1*
X2598461Y2530077D1*
X2610010D1*
X2611453Y2534408D1*
X2612897Y2540182D1*
X2618671Y2557505D1*
X2620115Y2563279D1*
X2627333Y2584933D1*
X2628776Y2590707D1*
X2634551Y2608030D1*
X2635994Y2613804D1*
X2638881Y2622466D1*
X2639117Y2623582D1*
X2640002Y2624765D1*
X2640714Y2624731D1*
X2641768Y2623909D1*
Y2609474D1*
X2646099Y2553174D1*
X2647543Y2532964D1*
X2648986Y2530077D1*
X2659091D1*
Y2534408D1*
X2650430Y2647006D1*
X2634551D1*
X2630220Y2634014D1*
X2628776Y2628240D1*
X2623002Y2610917D1*
X2621558Y2605143D1*
X2617228Y2592151D1*
X2615784Y2586376D1*
X2610010Y2569054D1*
X2608566Y2563279D1*
X2605679Y2554618D1*
Y2551731D1*
X2603919Y2550224D1*
X2602250Y2550411D1*
X2601348Y2551731D1*
Y2556061D1*
X2591243Y2586376D1*
X2589800Y2592151D1*
X2579695Y2622466D1*
X2578251Y2628240D1*
X2572477Y2645563D1*
X2571033Y2647006D1*
X2556598D1*
G37*
M02*
