G04 DipTrace 4.0.0.0*
G04 uTest_p02.GKO*
%MOIN*%
G04 #@! TF.FileFunction,Profile*
G04 #@! TF.Part,Single*
%ADD11C,0.005512*%
%FSLAX26Y26*%
G04*
G70*
G90*
G75*
G01*
G04 BoardOutline*
%LPD*%
X2775834Y494461D2*
D11*
G02X2685834Y394461I-85468J-13579D01*
G01*
X485834D1*
G02X395834Y494461I-8738J82636D01*
G01*
Y4594461D1*
G02X485834Y4694461I89260J10166D01*
G01*
X2685834D1*
G02X2775834Y4594461I-1920J-92228D01*
G01*
Y494461D1*
X2606760Y755845D2*
G02X2606760Y755845I26392J0D01*
G01*
X2512129D2*
G02X2512129Y755845I26392J0D01*
G01*
X2538590Y641718D2*
X2633064D1*
Y582479D1*
X2538590D1*
Y641718D1*
X2206760Y753482D2*
G02X2206760Y753482I26392J0D01*
G01*
X2112129D2*
G02X2112129Y753482I26392J0D01*
G01*
X2138590Y639356D2*
X2233064D1*
Y580117D1*
X2138590D1*
Y639356D1*
X1806760Y753482D2*
G02X1806760Y753482I26392J0D01*
G01*
X1712129D2*
G02X1712129Y753482I26392J0D01*
G01*
X1738590Y639356D2*
X1833064D1*
Y580117D1*
X1738590D1*
Y639356D1*
X1406760Y755845D2*
G02X1406760Y755845I26392J0D01*
G01*
X1312129D2*
G02X1312129Y755845I26392J0D01*
G01*
X1338590Y641718D2*
X1433064D1*
Y582479D1*
X1338590D1*
Y641718D1*
X1006760Y753482D2*
G02X1006760Y753482I26392J0D01*
G01*
X912129D2*
G02X912129Y753482I26392J0D01*
G01*
X938590Y639356D2*
X1033064D1*
Y580117D1*
X938590D1*
Y639356D1*
X606760Y755845D2*
G02X606760Y755845I26392J0D01*
G01*
X512129D2*
G02X512129Y755845I26392J0D01*
G01*
X538590Y641718D2*
X633064D1*
Y582479D1*
X538590D1*
Y641718D1*
M02*
