M48
INCH
T01C0.015
T02C0.0276
T03C0.0315
T04C0.0354
T05C0.0394
T06C0.04
T07C0.052
T08C0.1024
T09C0.1063
%
T01
X+007466Y+021833
X+007013Y+022052
X+006558Y+021668
X+006358Y+021070
X+006428Y+022300
X+007774Y+020133
X+013002Y+020133
X+015358Y+019695
X+016421Y+019382
X+016858Y+018320
X+016421Y+017195
X+015358Y+017195
X+014921Y+018320
X+016168Y+015994
X+016858Y+015757
X+018419Y+013169
X+018858Y+012570
X+020632Y+011913
X+021358Y+012195
X+021858Y+012820
X+022483Y+012695
X+023358Y+013195
X+024369Y+014412
X+024771Y+014461
X+025108Y+014130
X+024046Y+014982
X+023983Y+015820
X+023608Y+015820
X+023233Y+015820
X+022858Y+015820
X+022242Y+014968
X+024864Y+012195
X+025365Y+012213
X+024235Y+010566
X+022358Y+011071
X+021858Y+010820
X+020858Y+010320
X+019210Y+008610
X+018102Y+008195
X+016858Y+010070
X+015223Y+008610
X+014177Y+008195
X+011192Y+008610
X+010074Y+008195
X+008358Y+010070
X+008608Y+010566
X+007858Y+010320
X+007104Y+011071
X+008858Y+012445
X+009858Y+012945
X+010358Y+013195
X+011975Y+014049
X+010622Y+015162
X+008806Y+014459
X+007858Y+014820
X+009858Y+010820
X+010858Y+010820
X+012858Y+012445
X+014858Y+012820
X+020233Y+019382
X+019921Y+019757
X+019398Y+020084
X+023858Y+020195
X+023858Y+019820
X+023858Y+019445
X+023858Y+019070
X+026159Y+021570
X+026547Y+022569
X+022871Y+024820
X+022358Y+025070
X+021547Y+026696
X+021232Y+026954
X+021862Y+027011
X+020935Y+028240
X+021233Y+028622
X+021729Y+029324
X+022161Y+029916
X+022288Y+030500
X+022246Y+030860
X+021991Y+031103
X+021970Y+031465
X+020912Y+031537
X+020360Y+031477
X+020064Y+030534
X+019683Y+028637
X+019343Y+028214
X+019020Y+028106
X+018496Y+027982
X+017836Y+028885
X+017343Y+030710
X+017595Y+031130
X+017843Y+030815
X+018358Y+031820
X+018053Y+032454
X+017343Y+032718
X+017595Y+033243
X+018004Y+033917
X+018358Y+033622
X+018188Y+034545
X+018460Y+036946
X+019858Y+036695
X+020580Y+038077
X+022369Y+039757
X+022369Y+040958
X+020310Y+043701
X+019546Y+044195
X+019193Y+044779
X+017108Y+044570
X+016108Y+044570
X+017108Y+043320
X+016108Y+042695
X+012733Y+042695
X+012108Y+042695
X+012733Y+044570
X+012358Y+045570
X+010983Y+044570
X+011108Y+040570
X+011733Y+040570
X+012608Y+040195
X+013233Y+040299
X+012233Y+039132
X+012108Y+038320
X+011983Y+037695
X+011268Y+038570
X+008637Y+038039
X+008000Y+037469
X+006645Y+036163
X+005205Y+036003
X+005733Y+033570
X+005483Y+032945
X+005858Y+032320
X+006824Y+032949
X+008000Y+032357
X+008408Y+034756
X+009981Y+035445
X+010481Y+034570
X+011481Y+034570
X+011481Y+032958
X+010512Y+032826
X+013485Y+034558
X+014733Y+037695
X+014733Y+038695
X+016034Y+039132
X+017858Y+038632
X+017904Y+039780
X+020194Y+032836
X+021266Y+032757
X+021858Y+032695
X+022374Y+032561
X+023899Y+030043
X+024012Y+029191
X+023758Y+028879
X+023517Y+028592
X+024420Y+028280
X+019349Y+026631
X+011274Y+025110
X+008598Y+026745
X+005858Y+027570
X+005195Y+039168
X+006645Y+043673
X+006850Y+046445
X+023010Y+046429
X+026547Y+040895
X+026017Y+040558
X+027137Y+013195
X+027251Y+008610
X+026291Y+008195
X+023254Y+008610
X+022108Y+008195
X+007253Y+008610
X+006192Y+008195
X+004858Y+009747
T02
X+013201Y+025669
X+013791Y+025669
X+014382Y+025669
X+014973Y+025669
X+015563Y+025669
X+016154Y+025669
X+016744Y+025669
X+017335Y+025669
X+017925Y+025669
X+018516Y+025669
X+019106Y+025669
X+019697Y+025669
X+020287Y+025669
X+020878Y+025669
X+004579Y+031240G85X+004579Y+030886
X+004579Y+033208G85X+004579Y+032854
T03
X+024835Y+005968
X+024795Y+006968
X+024835Y+007968
X+022882Y+007945
X+022921Y+006945
X+022882Y+005945
X+020835Y+005945
X+020795Y+006945
X+020835Y+007945
X+018882Y+007945
X+018921Y+006945
X+018882Y+005945
X+016835Y+005945
X+016795Y+006945
X+016835Y+007945
X+014882Y+007968
X+014921Y+006968
X+014882Y+005968
X+012835Y+005968
X+012795Y+006968
X+012835Y+007968
X+010882Y+007945
X+010921Y+006945
X+010882Y+005945
X+008835Y+005945
X+008795Y+006945
X+008835Y+007945
X+006882Y+007968
X+006921Y+006968
X+006882Y+005968
X+004835Y+005968
X+004795Y+006968
X+004835Y+007968
X+026882Y+007968
X+026921Y+006968
X+026882Y+005968
T04
X+022358Y+037371
X+023358Y+037371
X+024358Y+037371
X+019858Y+037371
X+018858Y+037371
X+017858Y+037371
T05
X+015858Y+015070
X+016843Y+015070
X+014874Y+015070
X+014874Y+020778
X+016843Y+020778
T06
X+025858Y+041825
X+021858Y+041825
X+017858Y+041825
X+013858Y+041825
X+009858Y+041825
X+005858Y+041825
X+005796Y+024882
X+005796Y+023882
X+005796Y+022882
X+004796Y+022882
X+004796Y+023882
X+004796Y+024882
X+025796Y+019007
X+026796Y+019007
X+026796Y+018007
X+025796Y+018007
X+025796Y+017007
X+025796Y+016007
X+026796Y+016007
X+026796Y+017007
X+026796Y+015007
X+025796Y+015007
T07
X+025858Y+042825
X+025858Y+046075
X+021858Y+046075
X+021858Y+042825
X+017858Y+042825
X+017858Y+046075
X+013858Y+046075
X+013858Y+042825
X+009858Y+042825
X+009858Y+046075
X+005858Y+046075
X+005858Y+042825
X+005858Y+040757
X+005858Y+037507
T08
X+013614Y+018022
X+018102Y+018022
T09
X+005858Y+010945
X+025858Y+010945
T00
M30
